<?xml version="1.0" encoding="utf-8"?>
<!-- Generator: Adobe Illustrator 27.0.0, SVG Export Plug-In . SVG Version: 6.00 Build 0)  -->
<svg version="1.1" id="Шар_1" xmlns="http://www.w3.org/2000/svg" xmlns:xlink="http://www.w3.org/1999/xlink" x="0px" y="0px"
	 viewBox="0 0 860 1195" style="enable-background:new 0 0 860 1195;" xml:space="preserve">
<style type="text/css">
	.st0{fill:#C6D76A;}
	.st1{fill:#38AC59;}
	.st2{fill:#71B62E;}
	.st3{fill:#71B52E;}
	.st4{fill:#329B37;}
	.st5{fill:#C6D769;}
	.st6{fill:#359C38;}
	.st7{fill:#70B52D;}
	.st8{fill:#37AB58;}
	.st9{fill:#349C37;}
	.st10{fill:#339C37;}
	.st11{fill:#38AC58;}
	.st12{fill:#349C38;}
	.st13{fill:#319B37;}
	.st14{fill:#C7D76A;}
	.st15{fill:#72B62F;}
	.st16{fill:#3AAC5A;}
	.st17{fill:#359D39;}
	.st18{fill:#C4D669;}
	.st19{fill:#379D38;}
	.st20{fill:#D2E094;}
</style>
<g>
	<g>
		<path class="st0" d="M462.3,90.1c-0.8-0.3-1.7-0.3-2.3-0.8c-6.4-5.2-12.4-3-18.4,0.8c-32.3,0-64.5-0.1-96.8,0
			c-1.9,0-4.2,1-5.7,2.2c-4.9,3.8-9.5,7.8-14.2,11.8c-0.3,0-0.7-0.1-1,0c-35.4,7.7-70.7,15.3-106,23.1c-1.5,0.3-3.2,2.2-4,3.8
			c-3.8,8.3-7.4,16.7-11,25.1c-1.7-1.2-3.4-2.5-5.7-4.1c-0.6,8.3-1.2,15.8-1.8,23.4c-5.3,12.3-10.5,24.5-15.8,36.8
			c-6-0.5-11.9-1-17.9-1.5c0.8-1.4,1.5-2.9,2.3-4.3c4.4-8,8.8-16.1,13.1-24.1c0.1-0.3,0.2-0.6,0.2-1c-0.2,0.2-0.4,0.4-0.5,0.7
			c-0.4,0.3-0.9,0.5-1.2,0.8c-23,25.4-46,50.8-68.9,76.3c-1,1.2-1.5,3.3-1.4,5c0.4,8,1.1,15.9,1.7,23.9c0.7,10,1.5,20,2.3,31.6
			c1-2.7,1.6-4,2-5.4c3.2-11.2,6.4-22.4,9.7-33.5c1.8-6.2,2.9-13,6.3-18.2C137.7,245.9,149,230,160,214c3.7,5.9,7.5,11.9,11.2,17.8
			c-3.3,7.2-6.3,14.6-10,21.7c-20,37.9-40.2,75.7-60.3,113.6c-5.6-8-11.2-16.1-16.8-24.1c1.3-10.7,2.6-21.4,3.8-32.1
			c0.1-0.5-0.5-1.1-0.7-1.7c1.6-10.6,3.3-21.2,4.7-31.9c1.3-9.9,2-19.8,3.3-29.6c0.3-2.2,1.9-4.5,3.4-6.4
			c13.4-15.6,26.9-31.2,40.4-46.8c1.7-2,3.1-4.3,4.6-6.4c0.7-0.4,1.5-0.8,2-1.4c13.4-15.5,27.3-30.6,39.8-46.8
			c15.8-20.4,30.3-41.8,45.4-62.7c1.3-1.7,3.2-3.5,5.2-4c4-1.1,8.2-1.5,12.3-2.1c31.5-4.9,63.1-9.5,94.6-14.7
			c32.8-5.4,65.8-9.6,99.1-11.4c23.9-1.3,47.8-3.3,71.7-4.8c3.7-0.2,8-0.2,11,1.5c38,22.1,75.8,44.5,113.7,66.8
			c2.4,1.4,5,2.3,7.5,3.4c0,0-0.1,0-0.1,0c0.3,0.4,0.7,0.7,1,1.1c8.3,5.1,16.5,10.7,25.1,15.3c5.5,3,8.7,6.9,10.9,12.7
			c11.4,30.7,22.7,61.5,35.1,91.9c4.7,11.6,12.2,22.1,18.5,33c20.6,35,41.5,69.9,61.6,105.2c3.9,6.8,4.9,15.4,6.5,23.3
			c8.5,40.8,16.8,81.7,24.9,122.6c0.6,3.1,0.3,6.6-0.6,9.6c-5.3,17.9-10.9,35.6-16.4,53.4c-0.4,1.3-0.5,2.6-0.8,3.9
			c-4,12.3-8,24.5-11.9,36.8c-6.4,20.1-12.7,40.1-19,60.2c-0.3-0.7-0.8-1.4-1-2.2c-8.3-37.3-16.7-74.6-24.9-112
			c-0.5-2.2-0.7-4.6-0.2-6.8c2-8.1,4.5-16,6.4-24.1c2.2-9.3,6.2-18.2,5.5-28.2c-1.5-22.4-2.6-44.8-3.8-67.3
			c-1.2-24.4-2.1-48.9-3.4-73.3c-0.3-4.6-1.2-9.8-3.5-13.7C714.5,285,672.7,216.5,634,146.2c-1.1-2.1-2.8-4.3-4.8-5.4
			c-26-14.2-52.1-28.2-78.2-42.3c1.9-1.6,3.7-3.2,6.1-5.3c-3.4-8.9-6.9-17.9-10.5-27c-5.4-13.8-5.5-13.7-20.2-13.6
			c-2.9,0-4.4,1-5.6,3.7c-5.2,11.3-10.5,22.5-15.8,33.8C490.7,90.1,476.5,90.1,462.3,90.1z M781.8,384.1c-0.2,0-0.4,0.1-0.6,0.1
			c0,2.3-0.1,4.5,0,6.8c1,18.6,2,37.2,2.9,55.8c1,19.4,2,38.9,3.1,58.3c0.1,2.7,0.8,5.4,0.5,7.9c-3.4,23.4-7,46.7-10.4,70
			c-1.1,7.5-2.1,15.1-3.2,22.6c11.9-33.3,23.1-66.7,34.2-100.2c0.5-1.4,0.3-3.3,0-4.8c-5.1-22.9-10.3-45.7-15.5-68.6
			C789.2,416,785.5,400,781.8,384.1z"/>
		<path class="st1" d="M550.9,98.5c26.1,14.1,52.2,28.1,78.2,42.3c2,1.1,3.7,3.3,4.8,5.4c38.7,70.3,80.6,138.8,122.3,207.4
			c2.3,3.9,3.2,9,3.5,13.7c1.4,24.4,2.2,48.9,3.4,73.3c1.1,22.4,2.3,44.9,3.8,67.3c0.7,10-3.3,18.9-5.5,28.2
			c-1.9,8.1-4.4,16-6.4,24.1c-0.5,2.1-0.3,4.6,0.2,6.8c8.2,37.3,16.6,74.6,24.9,112c0.2,0.8,0.6,1.5,1,2.2
			c1.5,7.3,3.1,14.5,4.4,21.9c1,5.4,2.8,10.5,1.1,16.5c-9.8,34.6-19.1,69.3-28.6,104c-3.5,12.6-7.2,25.1-10.7,37.7
			c-9.3-24.6-18.6-49.2-27.9-73.9c-0.3-0.9-0.2-2-0.3-3c0.3-0.6,0.7-1.2,0.8-1.8c2-14.5,4.2-28.9,5.9-43.4
			c0.8-7.3,1.7-14.9,0.8-22.1c-1.2-9.5-4.3-18.7-6.5-28.1c-5.1-21.1-10.3-42.2-15.4-63.3c2.9-3.7,6.4-7.1,8.7-11.1
			c5-8.6,9.5-17.6,14-26.5c1.1-2.1,1.8-4.7,1.8-7c-0.2-15.5-0.6-31-1.1-46.4c-0.1-1.7-0.7-3.6-1.4-5.2c-2.5-5.4-5.1-10.8-7.7-16.2
			c0-49.6,0.1-99.3,0.1-148.9c0-1.4-0.4-3-1.1-4.3c-3.9-7.3-7.9-14.6-11.9-21.9c-18-33-36-66-53.9-99c-2.9-5.4-6.3-9.3-12.4-11.9
			c-38.9-16.4-77.6-33.3-116.4-50c3-8.4,6-16.7,9-25.3c-5.6-3.9-10.9-7.9-16.4-11.4c-2.9-1.9-3.4-3.7-1.5-6.4
			c7,3.7,14.1,7.4,21.1,11.1c10.8,5.7,21.7,11.3,32.5,17c0.1,0.1,0.1,0.2,0.2,0.3c0.1,0.1,0.2,0,0.3,0.1c-0.1-0.1-0.3-0.3-0.4-0.4
			c-1.1-1.6-2-3.4-3.4-4.7c-12.9-13.2-25.8-26.2-38.8-39.4C534.2,111.4,542.6,105,550.9,98.5z M735,812c0.5-0.7,1-1.3,1.3-2
			c12-29.6,24-59.2,35.8-88.9c0.7-1.7,0.5-4.3-0.2-6.1c-4.2-9.8-8.7-19.5-13.1-29.1c-3.2-7-6.6-14-9.9-21.1
			c0.5,12.8,1.8,25.4,2.9,38c0.6,7.4,2,15.1,0.8,22.3c-2.7,16.5-6.8,32.9-10.2,49.3C739.8,786.9,737.5,799.5,735,812
			c0,0.1-0.1,0.2-0.2,0.3C734.9,812.2,734.9,812.1,735,812z"/>
		<path class="st2" d="M216.9,1073.1c-0.6,8.9-1.2,17.9-1.8,27.4c-2-0.6-3.4-0.9-4.7-1.4c-5-1.8-10-3.5-15-5.3
			c-7.7-2.8-16.6-4-22.6-8.8c-6.2-4.9-9.7-13.3-14.2-20.3c-28.1-43.1-56.2-86.2-84.1-129.4c-1.4-2.2-2.3-5.2-2.3-7.8
			c-0.1-37.8-0.1-75.6-0.2-113.5c0-2.9-0.4-6-1.3-8.8c-12.4-38.7-24.9-77.3-37.2-115.9c-0.9-3-1.1-6.6-0.5-9.6
			c6.1-29.8,12.7-59.5,18.5-89.4c1.2-6,0.1-12.6-0.6-18.8c-4.7-40-9.6-80-14.4-119.9c-0.2-1.4-0.1-3,0.3-4.4
			c2.4-6.9,5-13.7,7.7-21.2c8,7.1,15.8,13.8,23.3,20.8c0.9,0.9,0.9,3.3,0.6,4.9c-2.1,9.4-4.6,18.7-6.7,28.2
			c-0.5,2.1-0.4,4.6,0.2,6.7c3.2,10.7,6.6,21.3,10.3,31.8c0.6,1.9,2.6,3.7,4.5,4.6c5.4,2.6,11,4.7,16.5,7
			c-0.4,13.6-0.8,27.2-1.1,40.9c0,1.5,0,3-0.1,4.5c-1.6,20.3-3.1,40.6-5,60.9c-1.1,12.2-2.8,24.3-4.3,36.5
			c-1.9,15.1-3.8,30.2-5.6,45.3c-1.5,12.5-3.1,25-4.5,37.4c-0.2,1.9-0.1,4.1,0.6,5.7c8.1,18.1,16.3,36,24.4,54.1
			c8.7,19.2,17.2,38.5,26,57.7c4.3,9.5,9,18.9,13.5,28.3c0.3,13.2-1.1,26.6,4,39.4c2.1,5.2,3.4,10.8,5,16.2
			c9.4,32.7,18.8,65.4,28.3,98.1c0.4,1.5,2,3.3,3.4,3.9C190.7,1063.6,203.8,1068.3,216.9,1073.1z M145,1018c0.1,0.4,0.3,0.8,0.4,1.2
			c0.1-0.1,0.3-0.3,0.3-0.3C145.5,1018.6,145.2,1018.3,145,1018c-1.7-5.1-3.1-10.4-4.9-15.5c-7.2-20.6-15.1-40.9-21.6-61.6
			c-5-16.1-8.4-32.8-12.5-49.2c-0.3-1.2-0.8-2.3-1.2-3.5c-0.6,23.1-0.7,46-0.5,68.9c0,2,1.1,4.2,2.2,5.9
			c7.1,10.5,14.2,20.9,21.5,31.3C133.5,1002.2,139.3,1010,145,1018z"/>
		<path class="st3" d="M570.2,632.9c-10.3,13.5-20.7,26.9-30.9,40.4c-1.8,2.5-3.4,5.3-4.3,8.3c-6.1,19-12.1,38-17.7,57.1
			c-1.2,4.1-0.4,8.8-0.5,13.2c-9.5,3.5-19.3,6.3-28.4,10.6c-9.8,4.7-18.8,4.5-28.9,0.9c-14.8-5.3-30.1-9.1-45.3-13.6
			c-1.4-20.6-2.7-41.1-4.3-61.7c-0.5-6.4-1.9-12.8-2.8-19.2c19.3,17.7,38.6,35.4,58,53.2c13.1-11,25.9-21.6,38.5-32.5
			c1.8-1.5,3.2-4.4,3.3-6.7c0.2-21.3,0.2-42.6,0-64c0-2-1.1-4.5-2.5-6.1c-10.2-10.8-20.6-21.3-30.8-32c-6.5-6.7-12.9-13.5-19.3-20.2
			c-4.1-4.3-8.3-8.5-12.7-13.1c-10.6,12.6-20.5,24.6-30.6,36.4c-5.3,6.2-10.8,12.1-16.2,18.1c-2.3-12.4-4.6-24.7-6.9-37.1
			c5.2-12.7,10.3-25.4,15.5-38.1c-0.4-0.2-0.7-0.3-1.1-0.5c-1.1,1.6-2.2,3.2-3.3,4.8c-4.6,6.9-9.2,13.7-13.7,20.6
			c-3-15.6-5.9-31.3-8.9-46.9c0.7-0.4,1.6-0.6,2.2-1.1c15.5-12.7,30.9-25.6,46.4-38.2c1.8-1.4,4.3-2.5,6.6-2.6
			c15.1-0.2,30.3-0.2,45.4-0.1c1.7,0,3.8,0.3,5,1.4c9.3,7.7,18.4,15.7,27.7,23.5c8.5,7.1,17.1,14.2,25.6,21.2
			c-5.4,16.1-3.6,32.9-4.9,49.4c-0.2,2.4,0.7,5.3,1.9,7.5c6.9,12.7,14.2,25.2,20.8,38.1c2.4,4.6,5.4,6.7,10.3,6.9
			c1,0,1.9,0.5,2.8,0.7C567.4,618.8,568.8,625.9,570.2,632.9z M528.1,661.1c0.6-0.2,0.8-0.3,0.9-0.4c6.6-18.3,13.3-36.5,19.8-54.9
			c0.6-1.6-0.1-4-1-5.6c-16.9-28.2-33.9-56.4-51-84.5c-1.2-2-3.5-3.6-5.7-4.5c-12.8-5.2-25.7-10.1-38.6-15c-0.9-0.4-1.9-0.5-3.8-0.9
			c1.6,2.3,2.7,3.8,3.6,5.3c17,27.6,38.5,51.6,59.1,76.4c3.5,4.2,8.4,8.4,9.3,13.2c2.4,13.3,3,27,4.4,40.5
			C526,640.8,527,650.9,528.1,661.1z"/>
		<path class="st4" d="M621.2,915.7c4.3,10.7,8.5,21.5,12.8,32.2c-1.1,1.5-2.2,2.9-3.2,4.4c-14.9,23.7-29.7,47.4-44.5,71.1
			c-1.9,3-4,4.8-7.5,5.8c-44.9,12.5-89.6,25.1-134.5,37.5c-3,0.8-6.9,0.4-9.9-0.8c-14.6-6.1-29-12.6-43.4-18.9
			c-0.5-0.4-1-0.9-1.6-1.2c-29.1-13.1-58.1-26.2-87.3-39c-4.6-2-6.4-5.2-8.2-9.2c-8.5-18.9-17.1-37.8-25.6-56.7
			c0.5-7,0.9-13.9,1.4-20.9c1.4,0.8,2.9,1.5,4.2,2.4c5.9,4.1,11.8,8.3,17.7,12.5c5,15.7,10.1,31.3,15.3,47.6
			c6-7.6,11.5-14.7,17-21.7c1.5,0.6,3,1.1,4.4,1.9c7.5,4.5,13.6,10.7,23.3,12.3c29.5,4.9,58.8,10.9,88.2,16.5
			c20.8,4,41.6,8.1,62.4,12c3.3,0.6,6.9,0.8,7.7-4c6.6,1.7,13.3,2.9,19.7,5.2c8,2.9,15.9,2.1,23.9,0.9c9.7-1.4,9.7-1.2,12.1-10.6
			c0.6-2.2,1.3-4.4,2-6.6c7.1-3,14.3-6,21.4-9.1c0.5-0.2,0.9-1,1.2-1.6C600.6,957.4,610.9,936.6,621.2,915.7z M345.4,999.1
			c-0.2,0.6-0.3,1.2-0.5,1.8c23.3,10.4,46.6,21,70.1,31c4.2,1.8,9.4,2,14,1.7c11.7-0.8,23.4-2.4,35.1-3.7c9.3-1,18.6-2,28-3
			C442.8,1018.8,392.6,1017.4,345.4,999.1z"/>
		<path class="st5" d="M391,1047c14.5,6.4,28.8,12.9,43.4,18.9c2.9,1.2,6.9,1.7,9.9,0.8c44.9-12.4,89.7-25,134.5-37.5
			c3.5-1,5.7-2.8,7.5-5.8c14.7-23.8,29.6-47.4,44.5-71.1c1-1.5,2.1-3,3.2-4.4c5.2,13,10.5,26,15.7,39c-1.1,1.1-2.5,2.1-3.3,3.4
			c-20.3,30.9-40.5,61.8-60.6,92.8c-1.8,2.7-3.7,3.7-6.9,3.8c-10.1,0.2-20.3,0.7-30.4,1.2c-34.4,1.9-68.7,3.8-103.1,5.8
			c-16.8,0.9-33.5,2-50.3,2.8c-3.2,0.1-6.7-0.3-9.7-1.3c-37.4-12.1-74.7-24.3-112-36.4c-3.9-1.3-8-2.2-12-3.2
			c0.7-12.4,1.4-24.8,2.1-37.2c0-0.6,0.6-1.1,0.9-1.7c1.5,0.1,3,0.1,4.4,0.4c27.4,6.7,54.8,13.4,82.2,20.1
			C364.2,1040.7,377.6,1043.8,391,1047z"/>
		<path class="st6" d="M646.1,112c-2.5-1.1-5.2-2-7.5-3.4c-37.9-22.3-75.7-44.7-113.7-66.8c-3-1.7-7.3-1.7-11-1.5
			c-23.9,1.5-47.8,3.5-71.7,4.8c-33.3,1.8-66.2,5.9-99.1,11.4c-31.5,5.2-63.1,9.8-94.6,14.7c-4.1,0.6-8.3,1-12.3,2.1
			c-2,0.6-4,2.3-5.2,4c-15.2,20.9-29.7,42.3-45.4,62.7c-12.5,16.2-26.5,31.2-39.8,46.8c-0.5,0.6-1.3,0.9-2,1.4
			c13-34.7,26-69.5,39.2-104.1c0.7-1.8,3-3.4,4.9-4.1C219.8,67.8,251.9,56,284,44c3.9-1.4,7.6-3.3,11.2-5.4
			c20.2-11.3,40.3-22.7,60.6-33.8c2.2-1.2,5-1.9,7.5-1.7c35,3,69.9,6.3,104.9,9.5c28.5,2.5,57,4.9,85.6,7.4
			c8.8,0.8,17.6,1.4,26.4,2.3c1.6,0.2,3.7,1.1,4.5,2.3c20.5,28.9,40.9,57.9,61.3,86.9C646.1,111.6,646,111.8,646.1,112z"/>
		<path class="st2" d="M649.6,1047c0.1,16,0.2,32,0.1,48c0,1.6-1,3.5-2.2,4.7c-17.2,16.7-34.5,33.4-51.8,49.9c-1.2,1.2-3,2-4.7,2.4
			c-60.5,13-121,26-181.6,38.8c-2.5,0.5-5.7,0.1-8-1c-46.7-23.8-93.3-47.8-140-71.7c-3.2-1.6-4.2-3.4-3.8-6.9
			c0.8-7.1,1.1-14.3,1.5-21.4c1.6,0.4,3.3,0.5,4.8,1.1c20.7,7.7,41.4,15.4,62.1,23.1c10.6,3.9,21,8.8,31.9,11.5
			c12.8,3.2,26.1,4.4,39.2,6.4c21.8,3.4,43.5,6.9,65.3,10.4c17.2,2.8,34.3,5.8,51.5,8.4c2.2,0.3,5.2-0.2,6.9-1.5
			c14.7-11.4,29.2-23,43.8-34.6C593,1092.2,621.3,1069.6,649.6,1047z"/>
		<path class="st1" d="M649.6,1047c-28.3,22.6-56.6,45.1-84.9,67.7c-14.5,11.6-29,23.2-43.8,34.6c-1.7,1.3-4.7,1.8-6.9,1.5
			c-17.2-2.6-34.3-5.7-51.5-8.4c-21.7-3.5-43.5-6.9-65.3-10.4c-13.1-2.1-26.4-3.3-39.2-6.4c-10.9-2.7-21.3-7.6-31.9-11.5
			c-20.7-7.7-41.4-15.5-62.1-23.1c-1.5-0.6-3.2-0.7-4.8-1.1c0.6-11.3,1.3-22.7,1.9-34c4,1.1,8.1,1.9,12,3.2
			c37.3,12.1,74.7,24.3,112,36.4c3.1,1,6.5,1.4,9.7,1.3c16.8-0.8,33.5-1.8,50.3-2.8c34.4-1.9,68.7-3.9,103.1-5.8
			c10.1-0.6,20.3-1,30.4-1.2c3.2-0.1,5.1-1.1,6.9-3.8c20.1-31,40.4-61.9,60.6-92.8c0.9-1.3,2.2-2.3,3.3-3.4
			C649.7,1006.9,649.6,1027,649.6,1047z"/>
		<path class="st7" d="M523.2,177c38.8,16.7,77.5,33.6,116.4,50c6.1,2.6,9.5,6.5,12.4,11.9c17.9,33.1,35.9,66,53.9,99
			c4,7.3,8,14.6,11.9,21.9c0.7,1.3,1.1,2.8,1.1,4.3c0,49.6,0,99.3-0.1,148.9c-0.7-3.3-2.2-6.7-1.8-9.9c1.1-8.7-1.2-15.3-8-21.4
			c-9.2-8.4-17.5-17.8-25.9-26.9c-4-4.4-8-8.3-14.3-8.6c0.4-8.5,0.7-16.9,1.2-25.4c0.5-7.8,1.1-15.5,1.9-23.3
			c0.4-4.3-0.1-8-3.8-11.1c-3.7-3.1-6.7-6.9-10-10.4c-0.3-2.1-0.5-4.3-1-6.4c-4.8-20.1-9.5-40.3-14.6-60.4
			c-2.2-8.7-2.4-18.4-11-24.2c-1.8-1.2-3.4-2.6-5-4.1c-17.2-16.4-34.3-32.9-51.5-49.3c-6.5-6.1-13-11.6-22.4-13.8
			c-13.5-3.2-26.7-7.9-40-12C516.1,196.2,519.7,186.6,523.2,177z"/>
		<path class="st8" d="M658.1,376c3.3,3.5,6.3,7.4,10,10.4c3.7,3.1,4.2,6.8,3.8,11.1c-0.7,7.8-1.4,15.5-1.9,23.3
			c-0.5,8.5-0.8,16.9-1.2,25.4c-14.2-2.6-28.4-5.3-42.7-7.6c-3.1-0.5-6.6-0.2-9.6,0.8c-8,2.9-15.7,6.4-23.5,9.7
			c-0.3-2.6-0.4-5.3-0.9-7.9c-2-12.9-4.1-25.8-6.2-38.7c-1.3-8.2-2.4-15.6-10.7-21.4c-18.1-12.8-35.1-27.2-52.6-40.9
			c-5.2-4.1-9.9-10-15.9-11.7c-15-4.5-30.6-7.2-46-10.6c3.8-8.3,7.6-16.7,11.4-25c0.9,0.4,1.9,0.7,2.8,1.1
			c37.9,18.6,75.8,37.2,113.8,55.8c3.3,1.6,6.7,2.8,10.1,4.1c0.4,0.2,0.7,0.5,1.1,0.7c0.1-0.1,0.2-0.3,0.3-0.4
			c-0.4-0.1-0.9-0.3-1.3-0.4c-0.4-0.7-0.7-1.5-1.2-2c-22.8-18.4-45.6-36.8-68.5-55.1c-1.1-0.9-2.6-1.5-4-1.8
			c-8.3-1.5-16.6-2.6-24.9-4.2c-8.2-1.5-16.4-3.4-24.6-5c4.5-9.6,8.9-19.3,13.4-28.9c0.8,0.3,1.6,0.4,2.3,0.8
			c30.7,15.2,61.4,30.3,92.1,45.6c2,1,3.8,2.6,5.5,4.2c21.7,21.6,43.3,43.3,65,64.9C655.2,373.7,656.7,374.8,658.1,376z"/>
		<path class="st9" d="M136.9,901.1c-4.5-9.4-9.1-18.8-13.5-28.3c-8.7-19.2-17.3-38.5-26-57.7c-8.1-18-16.4-36-24.4-54.1
			c-0.7-1.7-0.8-3.9-0.6-5.7c1.4-12.5,3-25,4.5-37.4c1.9-15.1,3.8-30.2,5.6-45.3c1.5-12.2,3.2-24.3,4.3-36.5
			c1.9-20.3,3.3-40.6,5-60.9c0.1-1.5,0-3,0.1-4.5c0.4-13.6,0.8-27.2,1.1-40.9c2.7-1,5.5-1.7,8.1-2.9c2.8-1.3,5.4-3.1,9-5.2
			c-0.7,6.4-1.2,11.9-2,17.3c-0.5,3.5,0.1,6.2,2.9,8.8c6.8,6.5,13.3,13.5,19.9,20.3c1.7,7.1,3.6,14.1,5.2,21.3
			c1.2,5.6,2,11.3,3,16.9c-0.1,1-0.1,2-0.3,3c-7.5,40.2-14.7,80.5-22.7,120.6c-2.5,12.5-2.8,23.6,3.8,35.3
			c6.8,11.9,11.6,25,17.2,37.6c-0.1,2.3-0.2,4.7-0.2,7C137,840.1,137,870.6,136.9,901.1z"/>
		<path class="st8" d="M268,781c-0.6,9.6-0.1,19.4-5,28.3c-2.5-2.9-5-5.7-7.5-8.6c-0.2,0.1-0.5,0.2-0.7,0.4c1.9,4.7,3.7,9.3,5.6,14
			c-9.1,20.7-18.1,41.5-27.2,62.2c-2.7-9.9-5.5-19.7-8.2-29.6c-4-14.9-8-29.8-12-44.7c0-0.8,0.1-1.7-0.1-2.5
			c-5.3-20.3-10.9-40.6-15.8-61.1c-2.6-11-7.1-21.4-6.3-33.3c1.1-17,0.9-34.2,1.2-51.2c0.1-9.6,0-19.3,0-28.9c6,1.8,12.1,3.4,18,5.6
			c3.2,1.1,4.8,0,7.3-2c12.5-10.6,16.4-25.1,19.5-40.2c0.4-2.1,1.1-4.1,1.7-6.2c0.6,1.7,0.9,3.6,1.7,5.2
			c8.1,17.2,11.5,35.4,11.9,54.4c0.2,12.6,1.3,25.1,1.9,37.7c1.1,22.7,2,45.3,3.1,68c0.3,5.8,0.6,11.6,1.1,17.3
			c0.1,1.4,0.7,2.9,1.6,4.1C262.3,773.7,265.2,777.3,268,781z"/>
		<path class="st10" d="M394.7,602.2c5.4-6,11-11.9,16.2-18.1c10.1-11.9,20.1-23.8,30.6-36.4c4.5,4.6,8.6,8.9,12.7,13.1
			c6.4,6.7,12.8,13.5,19.3,20.2c10.3,10.7,20.7,21.2,30.8,32c1.4,1.5,2.5,4,2.5,6.1c0.2,21.3,0.2,42.6,0,64c0,2.3-1.5,5.2-3.3,6.7
			c-12.5,10.9-25.3,21.4-38.5,32.5c-19.4-17.8-38.7-35.5-58-53.2C403,646.8,398.8,624.5,394.7,602.2z"/>
		<path class="st11" d="M510.1,999.9c-0.8,4.7-4.4,4.6-7.7,4c-20.8-3.9-41.6-8-62.4-12c-29.4-5.6-58.7-11.7-88.2-16.5
			c-9.6-1.6-15.7-7.9-23.3-12.3c-1.4-0.8-2.9-1.3-4.4-1.9c6.8-8.8,13.6-17.6,20.4-26.4c14.6,5,29.2,10,43.9,14.9
			c0.9,0.3,2,0.4,2.9,0.3c9.2-1,18.5-2.1,27.7-3.1c22.4-2.6,44.9-5.1,67.3-7.7c8.5-1,17-2,25.5-3.1c-19.7-4.2-39.3-7.4-58.9-10.9
			c-7.8-1.4-15.5-3.2-23.2-4.8c12.6-9.1,25.1-18.3,37.7-27.4c1.2-0.8,2.5-1.4,3.8-2.1c14.2,3.7,28.5,7.3,42.7,11.2
			c3.3,0.9,5.1,0.5,6.8-2.4c6.9-11.3,14-22.5,20.9-33.9c2.7-4.5,5-9.2,7.5-13.8c0.3,2.2,1,4.5,0.7,6.7
			c-5.5,35.8-11.2,71.5-16.7,107.3c-0.4,2.9-1.7,3.7-4.2,3.4c-9.4-1.4-17.5,1.7-25.3,6.8c-2.7,1.8-4.4,3.5-4.9,6.8
			c-0.6,4.1-1.8,8.1-2.8,12.5C500.8,996.8,505.4,998.3,510.1,999.9z"/>
		<path class="st11" d="M535.1,509.2c-8.5-7.1-17.1-14.1-25.6-21.2c-9.3-7.8-18.4-15.8-27.7-23.5c-1.2-1-3.3-1.4-5-1.4
			c-15.1-0.1-30.3-0.2-45.4,0.1c-2.2,0-4.8,1.1-6.6,2.6c-15.6,12.6-31,25.5-46.4,38.2c-0.6,0.5-1.5,0.7-2.2,1.1
			c-2.7-14.4-5.4-28.8-8.1-43.2c1.5-0.6,3.1-0.9,4.5-1.7c14.2-8.4,28.2-17,42.6-25.2c3.2-1.8,7.4-2.8,11.2-2.7
			c9.3,0.2,18.6,1.2,27.9,1.8c11,0.7,21.7,2.5,32.1,6.4c13.9,5.2,28,9.5,42.1,14.2c1.5,0.5,3.1,0.9,4.6,1.3
			c-18.4-16.3-37.2-31.9-56.1-47.4c-1.3-1.1-3.7-1.3-5.6-1.4c-20-0.1-40,0-60-0.1c-3.6,0-5.9,1.2-7.9,4.1
			c-6,8.8-12.1,17.6-18.3,26.2c-5.7,8-11.5,15.8-17.3,23.8c-1.2-6-2.5-12.1-3.5-18.1c-0.2-1.3,0.3-3,1.2-4
			c19-22.9,38.2-45.8,57.3-68.6c0.2-0.2,0.5-0.4,0.8-0.6c11.7,0,23.3-0.2,35,0.2c3.3,0.1,6.9,1.1,9.6,2.9c27,18.1,54,36.3,80.7,54.8
			c2.9,2,5.1,5.5,6.8,8.7c4.1,7.8,7.6,15.8,11.4,23.7c-4.4,2-8.6,4.2-13.1,5.8c-4.6,1.6-7.1,4.3-8.4,9.2
			C542.6,486.6,538.7,497.9,535.1,509.2z"/>
		<path class="st12" d="M747.2,861c3.6-12.6,7.3-25.1,10.7-37.7c9.5-34.7,18.8-69.4,28.6-104c1.7-5.9-0.1-11-1.1-16.5
			c-1.3-7.3-2.9-14.6-4.4-21.9c6.3-20.1,12.7-40.2,19-60.2c3.9-12.3,7.9-24.6,11.9-36.8c6.1,38.2,12.4,76.4,18,114.8
			c0.9,6.3-1.2,13.1-2.4,19.6c-8.2,44.7-16.4,89.3-24.8,133.9c-0.5,2.9-2.2,5.9-4.2,8.1c-7.1,7.8-14.5,15.2-21.8,22.7
			c-0.2,0.5-0.5,0.9-0.7,1.4c0,0-0.1,0.4-0.1,0.4c-1.7,1.4-3.4,2.9-5.1,4.3c-2.7,2.3-5.4,4.7-8.1,7
			C757.6,884.5,752.4,872.7,747.2,861z"/>
		<path class="st1" d="M136.9,901.1c0-30.5,0-61,0.1-91.4c0-2.3,0.1-4.7,0.2-7c0.6,1,1.2,2,1.7,3c13.2,28.5,26.1,57.1,39.6,85.5
			c12.2,25.9,23.6,51.9,29.2,80.2c3.5,17.7,8.7,35.1,13.2,52.6c-1.3,16.4-2.7,32.7-4,49.1c-13.1-4.8-26.3-9.5-39.3-14.4
			c-1.4-0.5-3-2.3-3.4-3.9c-9.5-32.7-18.9-65.4-28.3-98.1c-1.6-5.4-2.8-11-5-16.2C135.8,927.7,137.3,914.3,136.9,901.1z"/>
		<path class="st5" d="M220.9,1024c-4.4-17.5-9.7-34.9-13.2-52.6c-5.6-28.3-17-54.4-29.2-80.2c-13.4-28.4-26.4-57-39.6-85.5
			c-0.5-1-1.1-2-1.7-3c-5.6-12.6-10.4-25.7-17.2-37.6c-6.6-11.6-6.3-22.8-3.8-35.3c8-40.1,15.2-80.4,22.7-120.6c0.2-1,0.2-2,0.3-3
			c0.6,0.8,1.6,1.5,1.9,2.3c2.7,9.9,5.3,19.8,8,29.7c3,11,6,21.9,9.1,32.8c-1.8,8.8-3.9,17.5-5.2,26.3c-0.5,3.3-0.2,7.4,1.2,10.3
			c8.4,17.5,17.3,34.9,26,52.2c1.4,11.8,2.7,23.7,4.2,35.5c2.5,20,5.1,40.1,7.7,60.1c0.8,6.4,0.7,13.2,3,19.1
			c10.2,25.2,21.1,50.2,31.8,75.2c-1,14.5-2,29-3.2,43.5C222.9,1003.6,221.8,1013.8,220.9,1024z M178,845c0.1,0.7,0.2,1.3,0.2,2
			c0.2-0.1,0.4-0.2,0.7-0.2C178.6,846.2,178.3,845.6,178,845c-0.2-1.6-0.2-3.3-0.5-4.9c-2.5-11.4-5-22.7-7.5-34.1
			c-2.5-11-4.1-22.3-9.8-32.3c-7.2-12.9-11.6-26.8-15.3-41c-2.1-7.9-4.7-15.8-7-23.7c-0.8,16.1-0.9,32.1-0.7,48
			c0,1.9,0.9,3.8,1.7,5.6c8.3,18,16.6,36,25.1,53.9C168.5,826,173.3,835.5,178,845z"/>
		<path class="st11" d="M414.2,749.9c15.1,4.5,30.4,8.3,45.3,13.6c10.1,3.6,19.1,3.8,28.9-0.9c9.1-4.4,18.9-7.1,28.4-10.6
			c2.2,16.6,4.3,33.3,6.7,51.5c1.7-5.7,3-10.1,4.3-14.5c4.8-17.3,9.7-34.6,14.4-51.9c0.8-3,2.2-4.9,5.2-6c5.1-1.9,10.1-4.1,16-6.6
			c-3.8,20.7-7.5,40.6-11.2,60.5c-1.3,1.2-2.9,2.2-4,3.6c-14.7,19.2-29.5,38.4-44,57.8c-2.1,2.8-4.2,3.6-7.5,3.6
			c-25.3-0.1-50.6,0-76,0c-0.9-12.1-1.8-24.1-2.7-36.2c-0.3-5-0.5-9.9-0.7-14.9c15.1,0.3,30.2,0.6,45.4,1.1c8,0.3,16.1,0.9,24.1,1.3
			c-0.5-1.3-1.2-1.7-2-1.9c-15.6-4.5-31.2-9-46.9-13.3c-7.2-2-14.5-3.5-21.7-5.2C415.5,770.6,414.9,760.3,414.2,749.9z"/>
		<path class="st1" d="M325,104.1c4.7-4,9.3-8,14.2-11.8c1.6-1.2,3.8-2.2,5.7-2.2c32.3-0.1,64.5-0.1,96.8,0c4.8,4.3,9.6,8.7,14.4,13
			c-1.8,0.3-3.5,0.8-5.3,0.8c-13.7,0.1-27.3-0.1-41,0.1c-2.5,0-5.3,0.9-7.4,2.1c-12.2,7.1-24.2,14.5-36.3,21.8
			c-6.6,4-13.1,8-19.6,12c16.8-3.3,33-8.1,49.4-12c10.5-2.5,20.3-7.2,31.8-6.4c19.2,1.3,38.5,0.9,57.8,1.3
			c8.2,9.9,4.9,21.3,4.1,32.3c-0.2,2.3-0.6,4.6-0.9,6.9c-1.3-0.4-2.6-0.6-3.8-1.1c-13.8-5.7-27.6-11.5-41.4-17.1
			c-2.1-0.9-4.9-1.4-7-0.8c-11.4,3.1-22.6,6.5-33.9,9.9c-35,10.4-69.9,20.8-104.9,31.1c-2.8-16.4-5.6-32.7-8.5-49.1
			c4.9-4,10-7.9,14.8-12.1C311.2,116.7,318,110.4,325,104.1z"/>
		<path class="st13" d="M658.1,376c-1.4-1.2-2.8-2.3-4.1-3.5c-21.7-21.6-43.3-43.3-65-64.9c-1.6-1.6-3.4-3.2-5.5-4.2
			c-30.7-15.3-61.4-30.4-92.1-45.6c-0.7-0.4-1.6-0.5-2.3-0.8c7.8-17.1,15.6-34.1,23.5-51.2c13.3,4.1,26.5,8.8,40,12
			c9.4,2.2,15.9,7.7,22.4,13.8c17.2,16.4,34.3,32.9,51.5,49.3c1.6,1.5,3.2,2.9,5,4.1c8.6,5.8,8.8,15.5,11,24.2
			c5.1,20.1,9.8,40.3,14.6,60.4C657.6,371.7,657.8,373.9,658.1,376z"/>
		<path class="st10" d="M567.3,460.2c-3.8-7.9-7.3-15.9-11.4-23.7c-1.7-3.2-3.9-6.7-6.8-8.7c-26.8-18.5-53.7-36.7-80.7-54.8
			c-2.7-1.8-6.3-2.8-9.6-2.9c-11.6-0.4-23.3-0.2-35-0.2c7.5-9.1,14.5-18.6,22.5-27.3c6.8-7.3,9.8-16.4,14.6-24.7
			c15.4,3.4,30.9,6.1,46,10.6c5.9,1.8,10.7,7.7,15.9,11.7c17.5,13.7,34.4,28.1,52.6,40.9c8.2,5.8,9.3,13.2,10.7,21.4
			c2.1,12.9,4.2,25.8,6.2,38.7c0.4,2.6,0.6,5.3,0.9,7.9C584.5,452.8,575.9,456.5,567.3,460.2z"/>
		<path class="st3" d="M181,549.2c-9.2-10.9-18.4-21.8-27.4-32.8c-3.6-4.4-7.3-8.6-12.7-10.6c0.5-3.6,1.1-7.2,1.6-10.8
			c2.8-20.2,10.8-39.8,7.6-60.8c-1.3-8.5-1.9-17.1-2.7-25.7c-1.2-11.9-2.3-23.7-3.3-35.6c-0.1-2,0.6-4.4,1.8-6
			c4.3-5.7,9-11.1,13.4-16.7c5.7-7.3,11.2-14.7,16.8-22.1c0.3-0.4,0.7-0.7,1-1.1l0,0c1.4-1.4,2.8-2.8,4.1-4.3c4.3-5,8.5-10,12.8-15
			c4.9,1.7,6.1,6.7,2.2,11.1c-4.9,5.6-10.1,11-15.2,16.5c-1.2,1.3-2.4,2.7-4.1,4.5c7.3,3.7,14.2,7.2,21.3,10.7
			c-2.2,8.5-4.5,16.7-6.3,24.9c-0.4,1.9,0.2,4.6,1.4,6.1c4.4,5.6,9.2,10.9,13.9,16.3c-4,17.2-8.2,34.4-12.1,51.6
			c-2.5,10.8-4.7,21.6-7,32.4l0,0c-0.3,0.3-0.6,0.7-0.9,1c-3.5,4.8-6.5,10.1-10.5,14.4c-4.1,4.5-4.3,8.8-3,14.4
			C176.6,524.2,178.6,536.7,181,549.2z"/>
		<path class="st12" d="M176,328.1c-5.6,7.4-11.1,14.8-16.8,22.1c-4.4,5.6-9.1,11-13.4,16.7c-1.2,1.6-1.9,4-1.8,6
			c0.9,11.9,2.1,23.8,3.3,35.6c0.8,8.6,1.4,17.2,2.7,25.7c3.3,21-4.8,40.6-7.6,60.8c-0.5,3.6-1.1,7.2-1.6,10.8
			c-5.5-0.9-7.3-3.9-7.1-9.6c0.5-13.5-0.1-27,0.3-40.5c0.1-3.4,1.5-7,3.1-10c2.5-4.6,5.9-8.8,8.9-13.3
			c-15.2-21.9-30.2-43.7-45.2-65.4c20.1-37.8,40.3-75.7,60.3-113.6c3.7-7,6.7-14.4,10-21.7c8,12.2,16,24.3,24.2,36.7
			c-11.7,8.2-23,16-35,24.4c8.4,3.7,16.1,7.2,23.9,10.7c-2.4,7.8-4.8,15.7-7.2,23.5c0,0,0,0,0,0C176.7,327.4,176.4,327.7,176,328.1z
			"/>
		<path class="st3" d="M297.8,184.1c35-10.4,69.9-20.8,104.9-31.1c11.3-3.3,22.5-6.8,33.9-9.9c2.1-0.6,4.9,0,7,0.8
			c13.9,5.6,27.6,11.4,41.4,17.1c1.2,0.5,2.5,0.8,3.8,1.1c0,11.9-1.9,23.4-8,34c-5.9-1.6-11.8-3.5-17.7-4.8
			c-2.1-0.5-4.7-0.5-6.7,0.2c-28,10.1-56,20.1-83.8,30.7c-9.2,3.5-17.9,8.5-26.8,12.9c-0.1-1.4-0.7-3-0.2-4.1
			c7.3-14.8,14.7-29.5,22-44.3c0.8-1.6,1.5-3.3,2.7-5.8c-24.4,3-48,6-72.1,9C298.1,187.7,298,185.9,297.8,184.1z"/>
		<path class="st14" d="M676.7,943.3c-4.5-15.4-9.1-30.7-13.6-46.1c-1.3-4.4-2.5-8.9-3.8-13.3c0.3-1.1,0.7-2.2,0.7-3.3
			c0.7-18.3,1.4-36.6,2-54.9c0.5-13.5,0.9-26.9,1.4-40.4c4.2-9.1,8.3-18.3,12.5-27.4c0.3,0.4,0.7,0.7,0.9,1.2
			c5.5,23.2,19.1,42.4,30.4,62.7c2,3.6,3.9,7.3,5.8,10.9c-2.7,19.1-5.3,38.2-8.1,57.2c-0.7,5.1-0.7,10.8-3.2,14.9
			C693.9,918,685.1,930.5,676.7,943.3z"/>
		<path class="st12" d="M268,781c-2.8-3.7-5.7-7.3-8.4-11.1c-0.8-1.2-1.4-2.7-1.6-4.1c-0.5-5.8-0.8-11.6-1.1-17.3
			c-1-22.7-2-45.3-3.1-68c-0.6-12.6-1.7-25.1-1.9-37.7c-0.3-19-3.8-37.1-11.9-54.4c-0.8-1.6-1.1-3.5-1.7-5.2
			c4.9-19.5,9.8-39,15-59.7c0.8,2.3,1.3,3.4,1.6,4.6c9.2,35.7,18.6,71.4,27.2,107.3c1.6,6.8,0.1,14.5-0.7,21.7
			c-3.4,33.6-7.1,67.2-10.7,100.7C270.1,765.6,269,773.3,268,781z"/>
		<path class="st4" d="M345.9,235c8.9-4.3,17.5-9.4,26.8-12.9c27.8-10.6,55.8-20.6,83.8-30.7c2-0.7,4.5-0.7,6.7-0.2
			c6,1.4,11.8,3.2,17.7,4.8c-6.9,17-13.9,33.9-20.8,50.9c-1.1,0.3-2.3,0.6-3.3,1c-22,8.4-43.9,16.8-65.9,25
			c-3.5,1.3-7.3,1.9-10.9,2.9c6.4-6,12.8-11.9,19.8-18.4C381.4,249.9,363.7,242.4,345.9,235z"/>
		<path class="st15" d="M741.2,918.9c0.1,0.1,0.4,0.2,0.4,0.3c1.6,10.1,5.4,18.2,18.1,17.5c-0.5,2.6-0.7,4-1.1,5.4
			c-7.2,23.2-14.5,46.4-21.8,69.5c-0.5,1.7-1.3,3.5-2.6,4.7c-15.8,15.3-31.6,30.5-47.5,45.8c-0.4,0.4-1,0.7-1.9,1.2
			c0-17.5,0-34.6,0-51.6c0.7-1.7,1.4-3.3,2.2-5c8.7-19.5,17.4-39,26-58.5c0.3-0.4,0.7-0.7,1-1.1c0,0,0,0,0,0
			c8.7-8.6,17.5-17.2,26.2-25.9C740.7,920.6,740.8,919.6,741.2,918.9z"/>
		<path class="st12" d="M420.8,850.1c25.3,0,50.6-0.1,76,0c3.3,0,5.4-0.8,7.5-3.6c14.5-19.4,29.3-38.6,44-57.8
			c1.1-1.4,2.6-2.4,4-3.6c-2.2,13-4.1,26.2-6.8,39.1c-1.7,7.9-1.8,15.3,2,22.6c0.8,1.6,1.2,3.4,1.7,5.1c-2.5,4.6-4.8,9.4-7.5,13.8
			c-6.9,11.3-14,22.5-20.9,33.9c-1.8,2.9-3.5,3.4-6.8,2.4c-14.2-4-28.5-7.5-42.7-11.2c7.6-4,7-10.9,6.8-17.9
			c-0.3-9.9-0.1-9.8-9.4-13.4c-3-1.2-5.5-1.1-8.4,0.4c-10.9,5.4-22,10.4-33,15.6c-1.5,0.7-3,1.2-5.1,2.1
			C421.6,867.9,421.2,859,420.8,850.1z"/>
		<path class="st4" d="M180.1,760c-8.7-17.4-17.6-34.7-26-52.2c-1.4-3-1.7-7-1.2-10.3c1.4-8.8,3.4-17.6,5.2-26.4
			c0.3-0.4,0.7-0.8,0.8-1.2c3.7-16.4,7.4-32.8,11.3-49.1c0.8-3.3,2.4-6.5,3.6-9.7c2.7,2.6,5.2,5.4,8.1,7.8c3.2,2.6,6.8,4.8,10.2,7.2
			c0,9.6,0.1,19.3,0,28.9c-0.2,17.1-0.1,34.2-1.2,51.2c-0.8,11.9,3.7,22.3,6.3,33.3c4.9,20.4,10.5,40.7,15.8,61.1
			c0.2,0.8,0.1,1.7,0.1,2.5c-0.7-0.7-1.4-1.3-2-2.1C200.7,787.3,190.4,773.6,180.1,760z"/>
		<path class="st2" d="M180.1,760c10.3,13.6,20.5,27.3,30.8,40.9c0.6,0.8,1.4,1.4,2,2.1c4,14.9,7.9,29.8,12,44.7
			c2.7,9.9,5.5,19.7,8.2,29.6c-1.7,20.4-3.5,40.8-5.2,61.2c-0.3,3.8-0.8,7.6-1.2,11.4c-10.7-25-21.6-50-31.8-75.2
			c-2.3-5.8-2.2-12.7-3-19.1c-2.6-20-5.2-40.1-7.7-60.1C182.9,783.6,181.5,771.8,180.1,760z"/>
		<path class="st1" d="M181,549.2c-2.4-12.5-4.5-25-7.4-37.4c-1.3-5.6-1.1-9.9,3-14.4c4-4.4,7-9.6,10.5-14.4c0.3-0.3,0.6-0.7,0.9-1
			c0,0,0,0,0,0c10.7-14.1,21.6-28.2,32.2-42.3c3.2-4.3,5.9-9,8.9-13.5c10.2,2.7,20.5,5.5,32.2,8.6c-6.9,3.8-12.4,7.5-18.3,10
			c-7.8,3.3-11.2,8.7-13.2,16.8c-8.9,35.8-18.5,71.4-27.8,107.1c-0.3,1.2-0.8,2.5-1.4,4.6C193.7,564.9,187.3,557.1,181,549.2z"/>
		<path class="st12" d="M325,104.1c-6.9,6.3-13.8,12.6-20.8,18.8c-4.8,4.2-9.8,8.1-14.8,12.1c-0.4-1.9-0.8-3.7-1.4-6.1
			c-8.5,10.8-16.6,21-24.7,31.2c-0.6,0.1-1.5,0.1-1.9,0.4c-8.8,7.9-17.6,15.9-26.4,23.8c-10.6-9.4-21.3-18.8-31.9-28.3
			c3.6-8.4,7.2-16.8,11-25.1c0.7-1.6,2.4-3.4,4-3.8c35.3-7.8,70.7-15.5,106-23.1C324.3,104,324.6,104.1,325,104.1z"/>
		<path class="st16" d="M713,948.1c-8.7,19.5-17.4,39-26,58.5c-0.7,1.7-1.5,3.3-2.2,5c-0.1-9.5-0.8-19-0.3-28.4
			c0.7-11.2-3.1-21.3-5.8-31.7c-0.7-2.7-1.3-5.5-2-8.2c8.4-12.8,17.3-25.3,25.1-38.4c2.5-4.1,2.5-9.9,3.2-14.9
			c2.8-19.1,5.4-38.1,8.1-57.2c3.4,7.1,7.5,14,10.1,21.4c3,8.6,5.4,17.6,6.5,26.6c1.2,9.7,0.6,19.5,0.8,29.3
			c-3.4,6.9-7,13.8-10.1,20.8c-2.4,5.3-4.2,10.8-6.2,16.2c0,0,0,0,0,0C713.7,947.4,713.4,947.7,713,948.1z"/>
		<path class="st11" d="M379.9,275.9c3.6-0.9,7.4-1.6,10.9-2.9c22-8.3,43.9-16.7,65.9-25c1.1-0.4,2.2-0.6,3.3-1
			c-8.7,21.3-17.4,42.7-26.1,64c-8.7-1.8-17.3-3.8-26-5.4c-2.4-0.4-5.3-0.1-7.5,0.9c-5.9,2.9-11.6,6.3-17.3,9.5
			c-9.7-5.3-19.4-10.6-29.9-16.4C362.4,291.4,371.2,283.6,379.9,275.9z"/>
		<path class="st17" d="M383.1,316c5.8-3.2,11.4-6.6,17.3-9.5c2.2-1,5.1-1.3,7.5-0.9c8.7,1.6,17.4,3.6,26,5.4
			c-0.5,1.4-0.8,3-1.7,4.1c-15,18.4-30.1,36.7-45.2,55c-1.9,0.3-4.9-0.1-5.6,0.9c-2.7,4.6-4.7,9.6-7,14.5c0,0,0,0,0,0
			c-0.5,0.6-0.9,1.2-1.4,1.7c-2,2-3.6,4.4-5.9,5.9c-11,7.3-22.2,14.1-33.1,21.5c-4.8,3.2-9.5,5.1-15.3,4.4c-3-0.3-6-0.1-10-0.1
			c2.8-4.9,5.1-9.4,7.8-13.7c0.6-0.9,2.6-1.2,4-1.2c7-0.1,13.9-0.1,21.4-0.1c0-6.4,0.2-11.9-0.1-17.3c-0.2-3.6,0.8-5.6,4.3-7.2
			c9.5-4.4,18.7-9.2,28.5-14.2c-5.3-5.3-10.2-10.1-15.5-15.3c11.1-9.6,21.8-18.8,32.8-28.3C388.8,319.6,385.9,317.8,383.1,316z"/>
		<path class="st18" d="M368,461.2c5.8-7.9,11.6-15.8,17.3-23.8c6.2-8.7,12.3-17.4,18.3-26.2c2-2.9,4.3-4.1,7.9-4.1
			c20,0.2,40,0,60,0.1c1.9,0,4.2,0.3,5.6,1.4c18.9,15.5,37.7,31.1,56.1,47.4c-1.5-0.4-3.1-0.8-4.6-1.3c-14.1-4.7-28.2-9-42.1-14.2
			c-10.4-3.9-21.1-5.7-32.1-6.4c-9.3-0.6-18.6-1.6-27.9-1.8c-3.7-0.1-7.9,0.9-11.2,2.7c-14.3,8.1-28.4,16.8-42.6,25.2
			c-1.4,0.8-3,1.2-4.5,1.7C367.9,461.7,367.9,461.5,368,461.2z"/>
		<path class="st5" d="M429.8,920.2c7.7,1.6,15.5,3.4,23.2,4.8c19.6,3.5,39.2,6.7,58.9,10.9c-8.5,1-17,2.1-25.5,3.1
			c-22.4,2.6-44.9,5.2-67.3,7.7c-9.2,1.1-18.5,2.1-27.7,3.1c-1,0.1-2,0-2.9-0.3c-14.6-4.9-29.3-9.9-43.9-14.9
			c6.2-8.2,12.4-16.5,18.7-24.7c11.3,1.9,22.6,3.7,33.9,5.6c1.3,8.6,7.4,9.3,14.4,8.6c1.1-0.1,2.4-0.2,3.5,0.1
			C420.7,926,425.5,924.3,429.8,920.2z"/>
		<path class="st2" d="M391,1047c-13.4-3.2-26.8-6.3-40.2-9.5c-27.4-6.7-54.8-13.4-82.2-20.1c-1.4-0.3-3-0.3-4.4-0.4
			c0.3-8.3,0.4-16.5,0.9-24.8c1-17,2.2-34.1,3.3-51.1c8.6,18.9,17.1,37.7,25.6,56.7c1.8,4,3.6,7.2,8.2,9.2
			c29.2,12.7,58.2,25.9,87.3,39C390,1046.1,390.5,1046.6,391,1047z"/>
		<path class="st14" d="M704.6,625.5c5.1,21.1,10.3,42.2,15.4,63.3c2.3,9.4,5.3,18.6,6.5,28.1c0.9,7.2,0.1,14.8-0.8,22.1
			c-1.7,14.5-3.9,28.9-5.9,43.4c-0.1,0.6-0.5,1.2-0.8,1.8c-3.3-13.3-6.5-26.7-10.1-40c-1.9-7.1-3-13.8,0.3-20.8
			c0.8-1.8,0.2-4.5-0.5-6.7c-6.2-21.2-12.6-42.4-18.9-63.6c-2.6-8.7,1.8-19.9,9.5-24.8C701.1,627.3,702.9,626.5,704.6,625.5z"/>
		<path class="st3" d="M485.5,122.9c-19.3-0.3-38.6,0.1-57.8-1.3c-11.5-0.8-21.3,3.9-31.8,6.4c-16.4,3.9-32.6,8.6-49.4,12
			c6.5-4,13.1-8,19.6-12c12.1-7.3,24.1-14.7,36.3-21.8c2.2-1.3,4.9-2.1,7.4-2.1c13.6-0.2,27.3-0.1,41-0.1c1.8,0,3.5-0.5,5.3-0.8
			c8.4,4.3,16.9,8.4,25,13.1C483.2,117.4,484.1,120.6,485.5,122.9z"/>
		<path class="st7" d="M475.7,285.9c8.2,1.7,16.4,3.5,24.6,5c8.3,1.5,16.6,2.7,24.9,4.2c1.4,0.2,2.9,0.9,4,1.8
			c22.9,18.3,45.7,36.7,68.5,55.1c0.6,0.5,0.8,1.3,1.2,2l0,0c-3.4-1.4-6.8-2.5-10.1-4.1c-37.9-18.6-75.9-37.2-113.8-55.8
			c-0.9-0.4-1.8-0.8-2.8-1.1C473.5,290.6,474.6,288.2,475.7,285.9z"/>
		<path class="st19" d="M177.2,182.2c-4.4,8-8.8,16.1-13.1,24.1c-0.8,1.4-1.5,2.9-2.3,4.3c-0.9,0.1-1.8,0.3-2.9,0.4
			c0.4,1.2,0.7,2,1.1,2.9c-10.9,16.1-22.2,31.9-32.6,48.3c-3.3,5.3-4.4,12.1-6.3,18.2c-3.3,11.1-6.5,22.3-9.7,33.5
			c-0.4,1.4-1,2.7-2,5.4c-0.9-11.6-1.6-21.6-2.3-31.6c-0.6-8-1.3-15.9-1.7-23.9c-0.1-1.6,0.3-3.8,1.4-5
			c22.9-25.5,45.9-50.9,68.9-76.3c0.3-0.4,0.8-0.6,1.2-0.8C176.9,181.9,177.2,182.2,177.2,182.2z"/>
		<path class="st15" d="M173.7,611c-1.2,3.2-2.8,6.4-3.6,9.7c-3.9,16.3-7.5,32.7-11.3,49.1c-0.1,0.4-0.5,0.8-0.8,1.2
			c-3-10.9-6.1-21.9-9-32.8c-2.7-9.9-5.3-19.8-8-29.7c-0.2-0.9-1.2-1.6-1.9-2.3c-1-5.6-1.8-11.3-3-16.9c-1.6-7.1-3.4-14.2-5.2-21.3
			C145.2,582.3,159.5,596.7,173.7,611z"/>
		<path class="st18" d="M621.2,915.7c-10.3,20.8-20.6,41.7-30.9,62.5c-0.3,0.6-0.6,1.3-1.2,1.6c-7.1,3.1-14.2,6.1-21.4,9.1
			c3.1-11.9,6.1-23.9,9.2-35.8c8.3-8.7,16.7-17.3,25-26c5.6-5.8,11.2-11.6,16.9-17.3C619.6,911.7,620.4,913.7,621.2,915.7z"/>
		<path class="st4" d="M229,426.1c-2.9,4.5-5.7,9.2-8.9,13.5c-10.6,14.2-21.4,28.2-32.2,42.3c2.3-10.8,4.5-21.6,7-32.4
			c3.9-17.2,8.1-34.4,12.1-51.6c5.3,7.8,10.6,15.6,16.1,23.3C224.6,423.3,227,424.6,229,426.1z"/>
		<path class="st12" d="M618.8,909.8c-5.6,5.8-11.3,11.5-16.9,17.3c-8.4,8.6-16.7,17.3-25,26c2.1-10,4.2-20,6.3-30.1
			c1.5-1.3,3-2.6,4.3-4c8.4-8.6,16.8-17.3,25.2-25.9C614.8,898.6,616.8,904.2,618.8,909.8z"/>
		<path class="st17" d="M663.4,785.3c-0.5,13.5-0.9,26.9-1.4,40.4c-0.7,18.3-1.3,36.6-2,54.9c0,1.1-0.5,2.2-0.7,3.3
			c-1.8-5.8-3.2-11.9-5.6-17.5c-4-9-4.1-17.9-2.1-27.5c3.4-15.9,5.7-32,8.5-48C661.2,789.1,662.3,787.2,663.4,785.3z"/>
		<path class="st10" d="M416.2,781c7.2,1.7,14.5,3.2,21.7,5.2c15.7,4.3,31.3,8.8,46.9,13.3c0.8,0.2,1.4,0.6,2,1.9
			c-8-0.5-16.1-1.1-24.1-1.3c-15.1-0.5-30.2-0.7-45.4-1.1C417,793,416.6,787,416.2,781z"/>
		<path class="st15" d="M525.9,117.9c12.9,13.1,25.9,26.2,38.8,39.4c1.3,1.4,2.3,3.1,3.4,4.7l0,0c-10.8-5.7-21.7-11.3-32.5-17
			c-7-3.7-14.1-7.4-21.1-11.1C516.5,127.4,518.9,121,525.9,117.9z"/>
		<path class="st16" d="M397.1,915.5c-11.3-1.9-22.6-3.7-33.9-5.6c7.9-10.5,15.9-21,24.5-32.5C391.1,890.9,394.1,903.2,397.1,915.5z
			"/>
		<path class="st16" d="M291.8,935c-5.9-4.2-11.8-8.4-17.7-12.5c-1.3-0.9-2.8-1.6-4.2-2.4c0.8-14.1,1.6-28.2,2.4-42.3
			c0-0.2,0.4-0.4,1.4-1.2C279.8,896.3,285.8,915.7,291.8,935z"/>
		<path class="st16" d="M612.7,893.1c-8.4,8.6-16.8,17.3-25.2,25.9c-1.4,1.4-2.9,2.7-4.3,4c1.9-11.2,3.8-22.4,5.7-33.9
			c6.9,0,13.4-0.2,19.8,0.2C610.1,889.4,611.4,891.7,612.7,893.1z"/>
		<path class="st16" d="M462.3,90.1c14.2,0,28.4,0,42.6,0c-3.9,10.8-3.9,10.2-15.1,10.6C478.8,101.2,471,94.9,462.3,90.1z"/>
		<path class="st16" d="M663.4,785.3c-1.1,1.9-2.2,3.8-3.3,5.7c2.8-17.7,5.7-35.3,8.5-53c0.4,0,0.8-0.1,1.2-0.1
			c2,6.7,4.1,13.3,6.1,20C671.8,767,667.6,776.2,663.4,785.3z"/>
		<path class="st6" d="M714,947c2.1-5.4,3.9-10.9,6.2-16.2c3.2-7,6.7-13.9,10.1-20.8c1.2,3.7,2.4,7.4,3.6,11.1
			c3.2-1,5.2-1.7,7.2-2.3c-0.3,0.8-0.5,1.7-1,2.2C731.5,929.8,722.7,938.4,714,947z"/>
		<path class="st19" d="M179.7,212.2c5.3-12.3,10.5-24.5,15.8-36.8c-0.9,12.6-1.8,25.3-2.7,38.5
			C188.1,213.3,183.9,212.7,179.7,212.2z"/>
		<path class="st16" d="M234.9,184.3c8.8-7.9,17.6-15.9,26.4-23.8c0.4-0.4,1.2-0.3,1.9-0.4c-7.3,9.8-14.7,19.5-22.4,29.9
			C238.6,187.8,236.7,186.1,234.9,184.3z"/>
		<path class="st18" d="M385.1,552c4.6-6.9,9.2-13.7,13.7-20.6c1.1-1.6,2.2-3.2,3.3-4.8c0.4,0.2,0.7,0.3,1.1,0.5
			c-5.2,12.7-10.3,25.4-15.5,38.1C386.9,560.8,386,556.4,385.1,552z"/>
		<path class="st16" d="M570.2,632.9c-1.4-7-2.8-14.1-4.1-21.1c1,0.1,2.1-0.1,2.9,0.2c2.4,0.9,6,1.5,6.7,3.2
			c1.6,3.6,3.8,7.9-0.4,11.7C573.3,628.7,571.9,630.9,570.2,632.9z"/>
		<path class="st15" d="M87.2,309.1c0.3,0.6,0.8,1.2,0.7,1.7c-1.2,10.7-2.5,21.4-3.8,32.1c-5.3-4.9-6.8-10.2-3.2-17.1
			C83.6,320.6,85.1,314.7,87.2,309.1z"/>
		<path class="st16" d="M177,327c2.4-7.8,4.8-15.7,7.2-23.5c3.2,1.4,6.5,2.9,9.7,4.3c-4.3,5-8.5,10-12.8,15
			C179.8,324.3,178.4,325.6,177,327z"/>
		<path class="st15" d="M762.8,896.2c2.7-2.3,5.4-4.7,8.1-7c1.7-1.5,3.4-2.9,5.1-4.3c-2.3,7.9-4.6,15.8-7.3,25
			C766.4,904.4,764.6,900.3,762.8,896.2z"/>
		<path class="st16" d="M374.5,385.4c2.3-4.9,4.3-9.9,7-14.5c0.6-1,3.6-0.6,5.6-0.9C382.9,375.1,378.7,380.3,374.5,385.4z"/>
		<path class="st18" d="M260.4,815.1c-1.9-4.7-3.7-9.3-5.6-14c0.2-0.1,0.5-0.2,0.7-0.4c2.5,2.9,5,5.7,7.5,8.6
			C262.1,811.2,261.3,813.1,260.4,815.1z"/>
		<path class="st16" d="M373,387.1c0.5-0.6,0.9-1.2,1.4-1.7C374,386,373.5,386.5,373,387.1z"/>
		<path class="st15" d="M776.2,884.5c0.2-0.5,0.5-0.9,0.7-1.4C776.6,883.6,776.4,884,776.2,884.5z"/>
		<path class="st6" d="M647,113c-0.3-0.4-0.7-0.7-1-1.1C646.3,112.3,646.7,112.7,647,113z"/>
		<path class="st19" d="M781.8,384.1c3.7,16,7.3,32,11,48c5.2,22.9,10.4,45.7,15.5,68.6c0.3,1.5,0.5,3.4,0,4.8
			c-11.1,33.5-22.3,66.9-34.2,100.2c1.1-7.5,2.1-15.1,3.2-22.6c3.5-23.3,7.1-46.7,10.4-70c0.4-2.6-0.3-5.3-0.5-7.9
			c-1-19.4-2-38.9-3.1-58.3c-1-18.6-2-37.2-2.9-55.8c-0.1-2.2,0-4.5,0-6.8C781.4,384.1,781.6,384.1,781.8,384.1z"/>
		<path class="st19" d="M176.9,181.9c0.2-0.2,0.4-0.4,0.5-0.7c-0.1,0.3-0.2,0.6-0.2,1C177.2,182.2,176.9,181.9,176.9,181.9z"/>
		<path class="st18" d="M735,812c2.4-12.5,4.8-25.1,7.3-37.6c3.4-16.4,7.5-32.8,10.2-49.3c1.2-7.2-0.2-14.9-0.8-22.3
			c-1-12.6-2.4-25.1-2.9-38c3.3,7,6.6,14,9.9,21.1c4.5,9.7,8.9,19.3,13.1,29.1c0.8,1.8,0.9,4.3,0.2,6.1
			c-11.8,29.7-23.8,59.3-35.8,88.9C736,810.7,735.4,811.3,735,812C735,812,735,812,735,812z"/>
		<path class="st18" d="M735,812c-0.1,0.1-0.1,0.2-0.2,0.3C734.9,812.2,735,812.1,735,812C735,812,735,812,735,812z"/>
		<path class="st15" d="M568,162c0.1,0.1,0.3,0.3,0.4,0.4c-0.1,0-0.2,0-0.3-0.1C568.1,162.3,568,162.1,568,162
			C568,162,568,162,568,162z"/>
		<path class="st20" d="M145,1018c-5.7-7.9-11.5-15.8-17.1-23.8c-7.3-10.4-14.4-20.8-21.5-31.3c-1.1-1.7-2.2-3.9-2.2-5.9
			c-0.2-22.9-0.1-45.9,0.5-68.9c0.4,1.2,0.9,2.3,1.2,3.5c4.1,16.4,7.5,33.1,12.5,49.2c6.5,20.8,14.4,41.1,21.6,61.6
			C141.9,1007.6,143.4,1012.8,145,1018L145,1018z"/>
		<path class="st20" d="M145,1018c0.3,0.3,0.5,0.6,0.8,0.9c0,0-0.2,0.2-0.3,0.3C145.3,1018.8,145.2,1018.4,145,1018
			C145,1018,145,1018,145,1018z"/>
		<path class="st8" d="M528.1,661.1c-1-10.2-2.1-20.4-3.1-30.5c-1.3-13.5-2-27.2-4.4-40.5c-0.9-4.8-5.8-9-9.3-13.2
			c-20.6-24.8-42.1-48.8-59.1-76.4c-0.9-1.5-2-3-3.6-5.3c1.9,0.5,2.9,0.6,3.8,0.9c12.9,5,25.8,9.9,38.6,15c2.2,0.9,4.5,2.6,5.7,4.5
			c17.1,28.1,34.1,56.3,51,84.5c0.9,1.5,1.5,4,1,5.6c-6.4,18.3-13.1,36.6-19.8,54.9C528.9,660.9,528.7,660.9,528.1,661.1z"/>
		<path class="st7" d="M345.4,999.1c47.2,18.3,97.5,19.6,146.6,27.8c-9.3,1-18.6,2-28,3c-11.7,1.3-23.3,2.8-35.1,3.7
			c-4.6,0.3-9.8,0.1-14-1.7c-23.5-10-46.8-20.6-70.1-31C345,1000.3,345.2,999.7,345.4,999.1z"/>
		<path class="st7" d="M599,354c0.4,0.1,0.9,0.3,1.3,0.4c-0.1,0.1-0.2,0.3-0.3,0.4C599.7,354.5,599.3,354.3,599,354
			C599,354,599,354,599,354z"/>
		<path class="st19" d="M178,845c-4.7-9.5-9.6-18.9-14.1-28.5c-8.5-17.9-16.8-35.9-25.1-53.9c-0.8-1.8-1.7-3.7-1.7-5.6
			c-0.1-15.9-0.1-31.9,0.7-48c2.4,7.9,4.9,15.7,7,23.7c3.8,14.2,8.1,28.2,15.3,41c5.7,10.1,7.2,21.3,9.8,32.3
			c2.6,11.3,5.1,22.7,7.5,34.1C177.9,841.7,177.8,843.4,178,845L178,845z"/>
		<path class="st19" d="M178,845c0.3,0.6,0.6,1.1,0.9,1.7c-0.2,0.1-0.4,0.2-0.7,0.2C178.2,846.3,178.1,845.6,178,845
			C178,845,178,845,178,845z"/>
		<path class="st4" d="M188,482c-0.3,0.3-0.6,0.7-0.9,1C187.4,482.6,187.7,482.3,188,482z"/>
		<path class="st16" d="M176,328.1c0.3-0.4,0.7-0.7,1-1.1C176.7,327.4,176.4,327.7,176,328.1z"/>
		<path class="st6" d="M713,948.1c0.3-0.4,0.7-0.7,1-1.1C713.7,947.4,713.4,947.7,713,948.1z"/>
	</g>
</g>
</svg>
