<?xml version="1.0" encoding="utf-8"?>
<!-- Generator: Adobe Illustrator 27.0.0, SVG Export Plug-In . SVG Version: 6.00 Build 0)  -->
<svg version="1.1" id="Шар_1" xmlns="http://www.w3.org/2000/svg" xmlns:xlink="http://www.w3.org/1999/xlink" x="0px" y="0px"
	 viewBox="0 0 1191 1186" style="enable-background:new 0 0 1191 1186;" xml:space="preserve">
<style type="text/css">
	.st0{fill:#8CC83D;}
	.st1{fill:#8CC93D;}
	.st2{fill:#018942;}
	.st3{fill:#038F42;}
	.st4{fill:#028E42;}
	.st5{fill:#239A42;}
	.st6{fill:#77BF3E;}
	.st7{fill:#8DC93E;}
	.st8{fill:#3FA540;}
	.st9{fill:#58B040;}
	.st10{fill:#5FB43F;}
	.st11{fill:#309F41;}
	.st12{fill:#8DC93F;}
	.st13{fill:#73BD3F;}
	.st14{fill:#139442;}
	.st15{fill:#0E9341;}
	.st16{fill:#189642;}
	.st17{fill:#3DA440;}
	.st18{fill:#099241;}
	.st19{fill:#67B83E;}
	.st20{fill:#37A241;}
	.st21{fill:#69B940;}
	.st22{fill:#7FC23E;}
	.st23{fill:#4AAA41;}
	.st24{fill:#7AC03F;}
	.st25{fill:#4EAC42;}
	.st26{fill:#52AD40;}
</style>
<g>
	<path class="st0" d="M610,1186c-5.5-1-11.2-1.6-16.5-3.3c-13.2-4.2-26.8-1.9-40.1-3.7c-3.4-0.5-6.9-1.1-10.2-2
		c-4.5-1.2-7-4-7.3-8.9c-0.1-1.4-2.4-3.5-3.9-3.7c-3.9-0.6-8-0.5-12-0.5c-4.5,0-9,0.1-13.5,0.2c-10.9,0.1-20-3.2-26-12.9
		c-4.8-7.7-10.9-10.9-20.5-9.6c-8.1,1.1-17,1.3-24.7-1c-6.3-1.9-11.9-7.5-16.7-12.5c-4.2-4.3-3.2-10.5-0.7-15.6
		c3.2-6.3,2.1-11.2-2.4-16.3c-4.9-5.4-10.1-7.2-17.4-5.2c-12.3,3.4-26-2-33-12.8c-3.5-5.3-7.8-9.1-13.3-12.4c-3.4-2-6.3-5.9-8.1-9.6
		c-3.4-7.1-7.4-13.2-15-16.6c-2.9-1.3-5.2-4.1-7.6-6.4c-4.4-4.2-9.2-5.8-15.5-4.3c-3.3,0.8-7.4,0.3-10.6-0.9
		c-7-2.7-13.6-6.2-20.4-9.4c-3.1-1.5-6.3-2.8-9.1,0.4c-2.8,3.1-3.1,6.9-0.6,10.1c2.4,3.1,5.5,5.7,8.5,8.2
		c6.6,5.6,13.4,10.9,19.8,16.7c1.3,1.2,2.2,4.2,1.6,5.6c-0.7,1.5-3.3,2.4-5.2,2.8c-1.7,0.4-3.8,0.3-5.4-0.4
		c-15.8-6.3-33.1-9.9-43.8-25.2c-1.1-1.5-3.9-2.4-6-2.5c-2.9-0.2-6,0.3-8.9,1c-6.5,1.7-11.8-0.8-16.7-4.5c-5.8-4.3-12-6.9-19.4-6.8
		c-6.7,0.1-11.5-3.5-15.5-8.7c-3.8-5-7.9-9.8-12.1-14.5c-3-3.4-4.6-6.7-3-11.3c2.1-6.3-0.1-11.6-5.4-15.3c-4.7-3.3-9.7-6.2-14.6-9.3
		c-3.5,3.9-3.7,7.4-1.4,11c2.2,3.3,4.6,6.5,7,9.7c4.5,6.1,5.4,10.5,2.6,12.9c-2.9,2.6-7,1.3-12.8-3.4c-8.5-6.9-14.1-15.9-18.7-25.6
		c-3.2-6.7-7.1-11.4-14.7-14.8c-10.7-4.8-19.7-13.2-22.7-25.7c-2.1-8.5-6.3-15.2-13-21.2c-12.2-10.8-17.9-24.4-12.1-40.8
		c3.6-10.1,1.5-19.2-4.2-27.5c-6.4-9.3-9.4-19.6-11.3-30.6c-0.9-5-0.1-9,3.4-12.3c3.5-3.2,3.6-6.5,1.5-10.3
		c-3.7-6.8-7.4-13.7-11.2-20.5c-2-3.6-4.4-7.1-6.4-10.7c-4.5-8.4-5.7-16.9-1.1-25.8c2.8-5.5,2.9-11.5,3.6-17.6
		c1.3-12.2,5.3-24.2,8.2-36.2c0.1-0.3,0.2-0.7,0.5-0.9c1.7-1.2,3.4-2.3,5.1-3.4c0.9,1.7,2.5,3.4,2.5,5c0,7.8,0.4,15.6-0.9,23.2
		c-1.1,6.7-1,12.7,1.3,19c1.1,3.1,1.4,6.8,0.8,10.1c-1.8,10.4,0.2,18.5,7.9,26.7c6.9,7.2,13.2,15.7,15.5,26.5
		c1.6,7.3,5.3,14.2,8.8,21c2.5,4.8,6.1,5.3,12.1,3.7c5-1.3,7.3-4.4,7.4-9.3c0-2.5-0.7-4.9-0.8-7.4c-0.2-3.6,0.2-7.3-0.2-10.8
		c-0.4-3.8-1.4-7.6-2.3-11.4c-1.3-5.4-3.6-10.7-4.2-16.2c-1-9.9-4.5-17.3-13.9-21.9c-8.2-4-12-12.6-13.9-20.5
		c-2.4-10-2.1-20.7-2.3-31.1c-0.1-3.5,1.4-7.2,3-10.4c3.4-6.9,3.3-13.8-0.5-20.1c-6-10-4.9-19,1-28.6c2-3.3,2.6-8.4,1.9-12.4
		c-2.2-13.7,2-25,11.1-34.8c1.6-1.8,5.2-3.9,6.5-3.3c2,1,3.9,4.5,3.7,6.7c-0.5,6.6-2.3,13.1-3,19.6c-0.3,2.9-0.2,6.8,1.5,8.8
		c7.3,8.7,8.3,18,5.4,28.5c-0.5,1.6,0.8,4.4,2.2,5.8c2.1,2,4.2,1.4,6.2-1.2c6-7.9,5.1-16.6,3.7-25.4c-1.5-9.4-2.5-18.7,0.1-28.2
		c2.4-8.7-1.6-15.8-8.3-21c-2.3-1.8-6.2-2.4-9.3-2.2c-14,0.9-18.4-2.3-21.4-16.2c-2.3-10.4-2.7-20.8,0-31.2
		c2.8-10.5,8.1-18.9,19.5-22c1-0.3,2.1-1.1,2.8-1.9c4.5-5.5,3.6-20.5-1.9-25c-3.8-3.2-4.3-7-4.5-11.5c-0.2-3.6-1.3-7.5-3.1-10.6
		c-2-3.5-5.7-3.6-8.4-0.4c-2.8,3.4-5.1,7.3-7.4,11.1c-1.2,2-1.7,4.4-3,6.3c-2.4,3.5-6.2,3.5-8.8,0.3c-6.2-7.9-6.7-19.3-2.1-28
		c1.5-2.8,1.9-6.7,1.5-9.9c-2.5-19.2,3.1-35,18.3-47.4c2.2-1.8,3.7-5.6,3.9-8.7c0.8-9.7,7-15.3,14.3-19.7c1.5-0.9,5.5,0.2,6.9,1.7
		c3.2,3.5,5.7,7.7,8,11.9c2.9,5.3,5.2,5.9,9.4,1.6c1.6-1.6,2.5-3.8,3.7-5.8c0.9-1.4,1.3-3.7,2.5-4.1c7.1-2.5,6.8-8.1,5.8-13.5
		c-1.6-8.3,1.2-15.1,7.1-20.2c3.3-2.8,8.2-3.8,12.4-5.4c2.6-1,5.8-0.9,7.8-2.6c8-6.7,16.1-13.4,23.2-21c4.8-5.1,9.4-8,16.4-6.3
		c7,1.8,12.9-1.6,19-4.4c6.6-3,13.6-5.1,20.3-7.9c2.5-1,5.2-2.4,7.1-4.3c9.4-9.9,22.3-11.3,34.4-14.3c1.3-0.3,3.7,0.7,4.2,1.7
		c0.7,1.3,0.5,3.7-0.3,5c-1.3,2.1-3.2,3.9-5.2,5.3c-3.5,2.5-7.3,4.6-11.1,6.7c-8.3,4.6-15.8,10.1-22.7,16.9
		c-6,5.8-13.2,10.5-20.4,15c-7.5,4.7-14.9,9-19.9,16.9c-2.5,3.9-7.1,7-11.4,9.2c-7.1,3.7-11.9,8.5-13.9,16.5
		c-1.4,5.6-4,10.9-5.9,16.4c-2.7,7.6,1.5,14.6,8.7,14.2c2-0.1,4.1-1.2,5.7-2.5c2.3-1.9,4.2-4.3,6.3-6.5c3-3.1,6.3-4.6,10.8-3.3
		c6.1,1.8,10.8-0.6,14.1-5.7c2.4-3.8,4.8-7.6,6.8-11.6c3.2-6.3,8.2-9.5,15.2-9.5c8.7-0.1,15.7-2.3,20.5-10.5
		c3.9-6.6,18.7-9.8,26-6.6c4.2,1.8,4.2,5.6,4.2,9.3c0,7.9,2.4,9.4,9.4,5.6c5.6-3,10-7.1,11.8-13.5c0.8-2.9,1.9-5.7,3.1-8.4
		c2.9-6.6,3-9.4,11.4-8.1c1.6,0.3,4.6-2.3,5.6-4.2c2.1-4.3,3.3-9,5-13.6c1.9-5.2,5.5-8.8,10.4-11.6c3.6-2.1,6.9-5.2,9.4-8.6
		c6.3-8.5,16.1-11.3,25.5-6.5c12.6,6.5,18.8,5.7,29.7-3.4c6.1-5.1,11.3-10.6,13.6-18.6c2.3-7.8,8.4-11.6,16-12.2
		c10.7-0.8,18.8-5.3,25.1-14c6.4-8.8,15-13.5,26.6-12.5c10.6,0.9,21.3,0.7,32,0.4c9.8-0.3,16.6,3.9,21,12.4c1.3,2.5,2.5,5.1,3.7,7.6
		c-3.3,0.4-6.6,0.6-9.8,1.2c-39.3,7.6-76.8,20.2-112.2,39.2c-27.5,14.7-52.8,32.4-75.9,53.2c-21.7,19.6-41,41.5-57.7,65.7
		c-0.8,1.2-1,2.8-1.4,4.2c-1.3,0.1-2.7,0.6-3.9,0.4c-8.4-1.7-16,1.2-23.8,3.7c-5,1.6-10.9,1.8-16.2,1.2c-10.4-1.2-17.7,3.3-23.5,11
		c-2.3,3-3.7,6.7-5.6,10c-5.5,9.6-13.8,14.6-24.8,15.2c-15,0.8-28.1,15.2-29.3,30c-0.9,10.7-3.8,21.2-6.5,31.6
		c-0.8,3-3.7,5.9-6.4,7.8c-7.8,5.7-9.9,11.1-6.9,20.1c3.3,10.2-0.3,19.2-6.7,26.6c-4,4.6-5.4,8.8-3.9,14.4c2.1,7.9,3,15.7,1.9,24.1
		c-0.7,5.5,1.7,11.4,2.8,17.1c2.4,13-0.1,24.3-8.7,35c-4.8,5.9-9.1,13.3-7.9,22.2c0.4,2.5-0.8,5.6-2.1,8c-2.6,5-5.5,9.9-8.7,14.6
		c-3.1,4.6-3.9,9.3-0.8,14c5.7,8.3,7.6,17.2,5.1,27c-0.4,1.5,0,3.4,0.5,4.9c2.4,6.8,4.9,13.7,7.4,20.4c0.7,1.8,1.7,3.4,2.6,5.1
		c0.5,0,1.1,0,1.6-0.1c0.6-3.1,1.4-6.2,1.6-9.3c0.6-7.3,0.8-14.3,6.9-20.2c2.4-2.3,2-7.5,3.2-11.2c1.8-6,3.6-12,6-17.8
		c0.7-1.8,3.5-3.8,5.2-3.7c1.6,0.2,3.4,2.8,4.2,4.8c2.9,7.4,2.3,15.1,0.5,22.6c-2.6,10.4-3.3,20.5,1.6,30.6c2.8,5.6,1.3,11.3-3,15.6
		c-4.2,4.2-4.5,8.5-3,14c1.6,5.5,1.3,11.6,2.8,17.1c1.7,6,4.4,11.8,7.1,17.4c0.6,1.2,3.5,1.9,5.2,1.6c6.5-0.9,10.6,2.2,15.3,6.3
		c14,12.5,14.3,27.6,10.9,44.4c-2,9.8-4.8,19.7-2.1,30c1.4,5.4,3.6,9.6,8.6,12.1c7.2,3.6,11.9,8.8,12.1,17.4
		c0.1,1.9,2.1,4.2,3.7,5.6c8,6.8,12.1,15.3,11.8,25.8c-0.2,6.2,2.9,10.2,7.9,13.5c4.9,3.3,9.3,7.4,14.3,10.7
		c1.7,1.2,4.4,0.9,6.7,1.3c0.2-2.1,0.9-4.4,0.4-6.3c-0.6-2.2-2.1-4.1-3.5-6c-2.8-4-4.3-8.3-3.5-13.2c0.7-4.3-1-7.7-3.9-10.8
		c-3.9-4.1-7.8-8.2-11-12.9c-1.4-2.1-1-5.4-1.4-8.2c2.7-0.2,5.8-1.4,8-0.5c13,5.3,22.8,14.5,28.3,27.4c3.5,8.4,8.6,15.3,15.1,21.4
		c3.9,3.6,8.5,5.6,14,5.6c6.8,0,12.5,3.2,16.2,8.6c7.6,11.1,18.7,18.1,28.8,26.3c5.5,4.4,11.4,7.7,19.1,7.5c2.6-0.1,5.3,2.7,7.9,4.3
		c3,1.8,5.8,4.2,9,5.7c10.5,4.8,21.3,9.2,31.8,14.2c1.7,0.8,3.8,3.6,3.6,5.2c-0.2,1.7-2.7,4.2-4.5,4.6c-4.1,0.9-8.4,0.9-12.7,0.9
		c-3.6,0-7.3-0.6-10.9-1c-0.2,0.6-0.4,1.2-0.7,1.9c1.2,1.2,2.3,2.5,3.7,3.4c7.4,5.1,15,9.9,22.2,15.3c7.6,5.8,16.2,5.6,24.8,4.6
		c15.4-1.7,33.5,7.6,41.6,20.6c2.2,3.5,7.1,6,11.3,7.2c8.6,2.3,12.7,6.8,12.3,15.9c-0.1,2.5,1.8,6,3.9,7.7
		c5.1,3.9,10.7,7.1,16.3,10.4c3,1.8,6.4,2.9,9.2,4.9c4.1,3,8.5,3.6,13.2,3.3c10.9-0.8,18.7,3.8,23.8,13.3c1.2,2.3,4.1,4.3,6.6,5.2
		c3.7,1.3,7.8,1.6,11.8,2.1c8.1,0.9,16.2,1.6,23.1,6.8c2.3,1.7,5.7,1.8,8.3,3.2c3.6,1.9,7.1,4.2,10.3,6.7c2.3,1.8,2.4,4.3-0.2,6.3
		C615.3,1186,612.7,1186,610,1186z M114.1,495.7c0.8-0.1,1.6-0.1,2.4-0.2c1.2-3.9,2.4-7.7,3.4-11.6c1.8-6.9,3-14,5.4-20.7
		c2.1-5.6,3.3-10.9,2.5-17c-0.4-3.3,0-7,1.2-10.1c2.2-5.4,2.2-10.1-0.8-15.2c-2.7-4.5-1.9-8.5,1.5-12.8c2.6-3.4,5.7-8.1,5.2-11.8
		c-1.3-9.8,1.4-18.7,3.4-27.9c0.1-0.6,0.4-1.4,0.2-2c-0.8-2.2-1.7-4.4-2.6-6.6c-1.9,0.8-4,1.3-5.6,2.6c-1.9,1.5-3.3,3.7-5.1,5.4
		c-3.9,3.8-7.9,7.6-11.8,11.4c-2.3,2.2-4.7,4.4-6.7,6.9c-1.4,1.8-2.1,4.1-3.4,6.1c-1.7,2.6-4.3,3.9-6.8,1.8
		c-5.2-4.1-7.7-0.5-10.3,3.1c-5.4,7.3-3.6,15.7-3.1,23.7c0.5,6.8,3,8.8,9.8,9.6c7.4,0.8,7.2,0.8,8.1,8.1c0.3,2,1.9,5.2,3.3,5.4
		c4.7,0.6,5.5,3.1,5.5,7.2c0.1,11.6,0.2,23.2,0.8,34.8C111.1,489.3,113,492.5,114.1,495.7z M210.2,981.1c-0.9-6.6-4-11.2-8.3-15.5
		c-3.8-3.9-8-7.9-10.2-12.6c-2.2-4.8-4.7-8.8-9-11.4c-5.3-3.2-7.5-8.1-7.6-13.8c-0.2-7.1-3.4-12.7-7.4-18.2
		c-3.3-4.6-6.3-9.4-9.8-13.7c-2.6-3.1-5.7-5.8-9-8.2c-4.4-3.2-9.2-6-13.9-8.8c-3-1.8-5.9-3.9-9.2-4.9c-7.1-2.1-12,2.2-10.2,9.3
		c1.6,6.5,4.8,12.6,7.1,19c1.8,5.2,5,8.8,10.3,10.7c6.3,2.3,9.9,7.1,10.9,13.7c0.4,2.6,0.9,5.3,1,7.9c0.4,7,3.5,12.3,9.5,16
		c4.4,2.7,8.7,5.5,12.7,8.8c3.3,2.7,6.6,4.4,10.9,3.5c7.8-1.8,12.3,2,16.3,8.3c2.8,4.4,7.3,7.9,11.3,11.5c0.8,0.7,2.5,1.1,3.5,0.8
		C209.8,983.5,210,981.8,210.2,981.1z"/>
	<path class="st1" d="M1191,614c-2,8.7-4.2,17.4-6,26.1c-1.8,8.6-4.2,16.7-11.9,22.3c-4.6,3.4-6.8,3.4-11.5-0.1
		c-2-1.5-4.6-2.1-6.9-3.1c-0.9,2.5-2.7,5.1-2.6,7.6c0.1,3.6,1.7,7,2.3,10.6c1,5.5,2.4,11.1,2.4,16.6c-0.1,7.4-3.1,13.5-10.8,16.4
		c-5,1.9-7.5,5.9-9.1,11.1c-1.6,5.5-4.2,10.8-6.9,15.8c-1.5,2.9-2.6,5.3-0.8,8.3c6.9,11.8,4.9,23.7,0.4,35.6
		c-2.8,7.5-5.6,14.9-8.3,22.4c-2.6,7.3-4.2,8.2-11.4,6.2c-13-3.5-20.7,2.5-20.7,16c0,4.6-0.5,9.3-0.9,13.9c-0.5,6.9,3.3,10.6,10,9.7
		c4.7-0.6,8.4,1.1,10.6,5c5.2,9.3,7.8,19.5,7.5,30.1c-0.2,7.7-4.9,13.4-10.8,17.7c-7.9,5.8-9.9,13.6-9,22.8
		c1,10.1-0.6,18.9-10.9,24.7c-4.2,2.4-7.1,7.6-9.8,12.1c-2.7,4.6-5.1,8.5-11.2,9.5c-2.5,0.4-5.7,3.8-6.5,6.5
		c-2.3,7.9-7.3,13-13.9,17.5c-7.7,5.2-14.5,11.7-22.2,16.9c-4.4,3-9.7,4.7-14.8,6.5c-5.7,2.1-11.9,3.3-17.4,5.8
		c-5.7,2.7-6.9,7.2-4.1,12.9c1.2,2.5,3.2,4.6,4.8,6.9c1.8,2.4,4,4.5,5.4,7.1c3.1,5.8,1.5,10.7-4.3,13.9c-1.9,1-4.2,1.3-5.9,2.5
		c-2.4,1.7-4.8,3.7-6.5,6.1c-1.5,2.1-2,4.9-3.2,7.3c-3.2,6.4-8.6,9.6-15.7,9.5c-4-0.1-8-0.3-11.9-1.1c-7.2-1.4-13.8,0.6-20.5,2.9
		c-4.4,1.5-6.3,4.1-4.6,8.7c0.5,1.4,0.8,2.9,1.1,4.3c1.8,8.6-0.1,12.7-7.7,16.8c-8.1,4.4-16.4,7.3-25.8,3.7c-3.2-1.2-6.9-1-10.3-1.5
		c-3.2-0.4-5.6,0.6-7.8,3.3c-1.4,1.7-4,2.8-6.3,3.5c-4.2,1.3-7.1,3-7,8.2c0.1,4.4-3,7.5-7,7.8c-6.2,0.5-12.6,0.4-18.7-0.6
		c-5.8-0.9-11.2-1.4-16.1,2.4c-10.7,8.4-22.2,8.4-34.3,3.1c-5.6-2.5-10.7-3.1-16.8,0.8c-3.9,2.5-10.5,3.1-15.2,1.9
		c-12.4-3-24.7-4.7-37.5-4.7c-6.3,0-12.7-2.3-18.8-4.2c-1.9-0.6-4.3-3.4-4.3-5.2c0-1.6,2.7-4,4.7-4.7c11.9-4.1,24.1-4.2,36.4-1.4
		c1,0.2,2,0.7,2.9,0.6c11.7-2.4,23.8-0.5,35.5-3.4c4-1,8.6,0.1,12.9-0.1c5.1-0.2,10.4,0,15.2-1.5c8.2-2.6,16.3-5.9,24-9.8
		c3.4-1.7,6.5-5.2,8.2-8.7c4.8-10.3,13.2-15.4,24.3-13.5c2.9,0.5,5.3,0,6.7-2.9c3-6.3,8.5-8.4,15-9.1c4.6-0.5,9.2-1.5,13.8-2.2
		c3.5-0.5,5.4-2.5,5.1-6.1c-0.4-5.4,2.5-8.7,6.9-11.1c2.8-1.5,5.4-3.2,8.2-4.7c6.7-3.6,8.7-9.7,9-16.7c0.2-4.6-2.5-7.4-6.7-8.8
		c-4.1-1.4-6.1,1.6-7.9,4.5c-2.8,4.4-5.3,8.9-8.4,13c-4.6,6.1-9.1,6.7-16.2,4.4c-5.6-1.8-11.6-2.4-17.5-3.2
		c-1.6-0.2-3.8,0.4-5.1,1.5c-5,4.2-10.4,3.6-16.1,2.3c-2.1-0.5-4.5-0.3-6.7,0.1c-8.5,1.4-17,3.2-25.5,4.5c-1.6,0.2-3.6-0.5-5.1-1.5
		c-3.9-2.5-4-5.6,0.3-7.4c6.8-2.9,13.9-5.4,21-7.3c5.5-1.4,10.1-2.8,13.8-7.8c1.9-2.6,6.5-3.7,10-4.3c6-1.1,12.2-1.2,18.4-1.8
		c3.2-0.3,5.2-1.9,5.8-5.2c0.8-4.2,3.4-6.7,7.6-7.5c2.1-0.4,4.2-1.2,6.3-1.7c6.9-1.6,11.7-5.4,15-12c2.8-5.5,6.9-10.5,10.9-15.3
		c4.7-5.7,7.8-11.6,5.2-19.2c-2.3-6.8-6.7-8-12-3.2c-0.4,0.3-0.8,0.7-1,1.1c-4.6,6.6-11.3,9-18.9,9.6c-4.9,0.4-8.5,2.6-10.8,6.9
		c-3.8,7.2-9,13-16.6,16.6c-12.5,6-22,17.5-36.1,20.7c-4.5,1-9.4,0.7-14,0.9c-3.2,0.1-6.5,0.2-9.8,0.2c-5.8,0-11.7,0.8-17.3-0.3
		c-9.8-2-12.4-12.9-6-20.5c1.3-1.5,0.8-5.3,0-7.7c-0.4-1.2-3.2-2.1-5.1-2.3c-4.1-0.4-8.3,0.1-12.4-0.4c-9.1-1.1-14.5,3.8-18.1,11.2
		c-7.7,15.4-11.3,17-27.7,11c-4.9-1.8-8.7,0.1-11.8,3.2c-4.5,4.5-9.3,4.6-14,1.4c-6.6-4.4-14.2-4.3-21.5-5.7c-1-0.2-2.3-0.4-2.9,0
		c-5.2,4.1-10,1.5-14.3-1.2c-6.7-4.2-14.2-4.1-21.6-4.9c-7.7-0.8-15.2-2.7-21.1-8c-1.9-1.7-2.7-4.5-4.1-6.8c2.4-1.1,4.9-3.1,7.3-3
		c5.1,0.2,10.1,1.7,15.2,2.2c6.4,0.6,12.8,0.4,19.2,0.9c5.2,0.5,10.8,0.5,15.4,2.6c10.2,4.5,19.8,3.8,28.5-2.1
		c6.2-4.2,12.2-5.4,18.8-3.2c7.8,2.5,13.2-0.4,18.6-5.7c4-3.9,8.9-6.8,14.1-10.6c-4.3-0.8-8.2-1.4-11.9-2.3c-5.7-1.4-7-3.9-4.2-9
		c1.5-2.6,4.1-4.6,6.3-6.8c0.1-0.1,0.3-0.1,0.4-0.2c9.7-7.2,19.6-10.4,31.4-4.2c4.2,2.2,9.5,0.9,13.7-2.3c1.7-1.3,3.8-2.1,5.4-3.5
		c6.8-6.1,13.7-4.9,21.1-1c9.9,5.2,13.5,4.5,21.3-3.2c1.4-1.3,2.6-3.2,3-5c2-10.2,9.2-15,18.4-16.5c9.9-1.6,18.9-4.1,27-10.5
		c3.5-2.8,8.8-3.4,13.5-4.5c8.7-2.1,17.5-3.8,26.2-5.9c7.5-1.9,12.6-6.3,14.5-14.2c1.5-6.1,5.1-10.5,10.4-14.1
		c3.7-2.5,6.9-5.8,9.7-9.2c0.9-1.2,0.6-4.5-0.4-5.9c-4.1-5.4-4.1-9,1.4-13c2.9-2.1,6.4-3.6,9.8-4.7c7.1-2.3,12.9-5.8,16-13.1
		c2.6-6.1,8-9.6,13.8-12.5c5.4-2.7,9.1-6.3,10.4-12.9c1.7-8.7,7-15,15.8-18.5c9.3-3.7,15-11.7,18.6-20.4c3.6-8.8,7.8-16.4,15.6-22
		c6.3-4.5,10.2-10.7,13-17.9c3.2-8.2,7-16.2,10.7-24.2c0.8-1.6,2.8-3.9,4-3.8c1.7,0.2,3.6,2.1,4.6,3.7c1.2,1.9,1.9,4.3,2.1,6.6
		c0.7,6.6,0.9,13.3,1.5,19.9c0.7,8.9-5.3,15.5-7.7,23.4c-1.1,3.6-2.9,7.1-3.7,10.8c-1.1,5.2,2.2,8,7.3,6.4c4.5-1.5,7.6-4.7,7.6-9.5
		c-0.1-10.8,3.3-19.8,11.7-26.9c2-1.7,3.4-5.4,3.2-8c-0.7-11.1,2.4-21.4,4.6-32c1.1-5.4,1.7-10.8-1.1-16.1c-3.6-6.8-1.2-13,3.3-18.4
		c4.5-5.5,10.6-7.5,17.4-6.4c7.7,1.3,17.6-4.8,20.2-12.3c1.3-3.7,3.6-7.4,6.3-10.3c5.9-6.3,8.8-13,5-21.3
		c-4.5-9.7-1.4-19.7-1.2-29.6c0.1-4,1.5-8,1.1-11.9c-0.5-3.7-1.8-7.9-4.2-10.7c-4.6-5.4-6.6-11.1-6.5-18.2
		c0.2-7.3-0.8-14.6-1.6-21.8c-1.2-10.3,2.8-19.2,6.9-28.2c0.5-1,2.6-2.1,3.5-1.8c1,0.3,2.1,2.1,2.3,3.3c2.7,14,5,28.1,8,42.1
		c1.1,5.1,2.9,10.4,5.9,14.6c6.9,10,9.8,21.1,10.1,32.9c0.2,5.7,1.7,10.6,4.6,15.5c2.4,4.1,3.7,8.8,5.4,13.2
		C1191,607.3,1191,610.7,1191,614z M1005.3,858.4c-8.1,0.6-8,0.6-13.3,6.7c-1.5,1.7-3.2,3.4-5.1,4.7c-4.6,3.2-7.3,7.4-8.2,13.1
		c-1.6,9.8-7,16.8-15.4,22.1c-16,10-19.8,26.4-20.8,43.5c-0.5,8.3,3,9.1,10.4,5.3c5-2.6,10.7-4.2,16.3-5.4c2.1-0.4,6,0.9,6.7,2.5
		c1.1,2.3,0.5,5.7-0.2,8.4c-0.5,1.9-2.8,3.3-3.9,5.1c-1.1,1.8-2.5,3.7-2.7,5.7c-0.9,9.1-4.5,17-9.8,24.2c-2.9,4-6.4,7.7-9.5,11.6
		c-2.1,2.6-4.8,5.9-1.7,8.7c1.4,1.2,5.9,0.7,7.8-0.7c7.9-5.4,15.7-11.2,22.9-17.4c5.6-4.8,11.2-9,18.4-11.5
		c5.8-2.1,12.9-4.9,15.8-9.6c5.4-8.9,11.1-17.2,18.7-24.2c0.7-0.7,1.2-1.6,1.6-2.5c3.3-7.2,6.3-14.6,9.8-21.7
		c1.8-3.6,4.5-6.6,6.9-9.9c2-2.8,4.8-5.2,5.9-8.3c2.2-6.3,3.5-12.8,5-19.3c0.8-3.3,0.7-6.6-2.7-8.9c-6.3-4.2-6.9-10.2-4.5-16.8
		c1.7-4.7,3.8-9.2,5.5-13.9c2.7-7.6,0-11.4-8.1-11.9c-8.6-0.5-16.1,1.5-21.5,8.9c-5.8,8-12.5,14.3-23.7,11.6
		C1005.7,858.3,1005.5,858.4,1005.3,858.4z"/>
	<path class="st1" d="M1045.8,247.8c1.2,1.3,2.3,2.8,3.8,3.8c5.3,3.9,6,6.6,1.7,11.4c-3.3,3.7-2.5,6.3,1.1,8.5
		c2.7,1.5,5.7,2.9,8.7,3.3c7.3,1.1,11.8,4.9,13.3,12.2c0.3,1.7,1.3,3.4,2.5,4.6c5.7,5.5,6.5,12,4.9,19.3c-0.5,2.5-0.6,5.2,0,7.7
		c3.7,16.2,6,32.6,4.9,49.3c-0.1,1.7-2.2,3.3-3.3,4.9c-1.6-1.2-4-2.2-4.5-3.8c-1.6-4.5-2.5-9.3-3.6-14c-2.1-9.5-5.8-18.2-11.8-26.1
		c-3.3-4.3-4.7-10.2-6.6-15.5c-1.6-4.5-3.4-8.1-9-8.5c-2.2-0.2-4.6-2-6.1-3.8c-1.9-2.2-3.7-5-4.3-7.8c-1.3-5.7-4-9.5-10-10.6
		c-0.9-0.2-1.9-0.8-2.6-1.5c-7-6.6-14.2-13-20.7-20c-4.7-5-4.3-9.2-0.5-13.3c3.1-3.4,6.6-4.2,10.7-1.5c2.8,1.8,5.9,3.3,9.2,5.2
		c-1.1-4.9-1.7-9-3.1-12.8c-0.6-1.7-2.8-3-4.3-4.3c-3.5-2.9-7.5-5.4-10.6-8.6c-3-3.1-6.1-4.9-10.3-6.3c-4.8-1.6-8.7-5.6-13.1-8.5
		c-1.9-1.3-4-2.4-6.2-3.2c-2.6-1-5.4-1.4-8.1-2.3c-2.2-0.7-4.2-2.3-6.5-2.5c-2.3-0.2-4.6,0.8-6.9,1.2c0.7,2.5,1.5,5.1,2.2,7.6
		c0,0.1,0.2,0.3,0.3,0.3c7.2,4.1,8.9,10.3,8.2,18.2c-0.2,2.7,1.8,6,3.6,8.3c5.9,7.7,6.6,16.8,7.1,25.9c0.2,3.6-3,5.2-6,3.4
		c-4-2.5-7.6-5.8-11.2-9c-1.9-1.6-3.1-4.3-5.1-5.4c-6.3-3.3-10.1-8.3-13.7-14.5c-3.6-6.1-9.7-10.7-15.1-15.5
		c-1.8-1.6-4.7-2.5-7.3-2.9c-5.8-0.8-10-3.6-12.4-8.8c-1.7-3.6-4-5-8.1-5.2c-6.8-0.3-13-2.6-18-7.6c-4.8-4.8-10.4-8.1-17.4-9.1
		c-2.8-0.4-5.5-1.5-8-2.6c-3.7-1.6-6.8-4-5.5-8.7c1-3.7,6.4-6.5,10.6-5.6c1.8,0.3,3.5,1,5.3,1.4c1.7,0.4,3.5,0.7,6.9,1.4
		c-1.5-2.7-2.2-4.1-3.1-5.4c-0.3-0.5-1.2-0.5-1.7-0.9c-6.8-5-11.7-12.5-20.8-14.7c-2-0.5-3.1-4.9-4.6-7.4c-3.6-6.1-7.4-7.5-13.7-4.3
		c-4.9,2.5-9.2,1.9-13.6-1.2c-1.5-1.1-3-2.1-4.7-2.7c-5-1.8-7-0.1-6.7,5.1c0.5,7.1-2.2,11.2-9.1,13.6c-5.5,1.9-9.9,0.5-13.5-5.4
		c-4.6-7.6-11.6-9.6-19.7-11c-4.6-0.8-9.8-2.3-13-5.4c-10.6-10.2-23-9-35.6-7.2c-4.8,0.7-8.8,0.2-12.7-2.6
		c-5.2-3.9-10.4-7.8-15.6-11.6c-6.5-4.7-13.8-4.9-21.5-3.5c-7.3,1.3-14.8,2-22.2,2.4c-1.7,0.1-4-1.6-5.1-3.2
		c-3.6-5-7.9-7.2-14.4-7.1c-11.7,0.2-23.1-1.2-33-8.9c-5.9-4.6-12.9-5.1-19.6-0.9c-3.6,2.3-7.2,2.3-10.8,0
		c-6.6-4.3-13.8-5.5-21.5-5.2c-3.9,0.1-8.1-0.2-11.8-1.3c-1.9-0.6-3.8-3.2-4.3-5.3c-0.3-1.1,2.1-3.5,3.8-4.4
		c6.1-3,12.2-5.9,18.6-8.2c2.7-1,6.1-0.2,9.1-0.2c0.1-0.6,0.2-1.2,0.2-1.8c-3-0.6-6.1-1.2-9.1-1.8c-5.5-1-11.1-1.7-16.5-3.2
		c-5.5-1.5-10.5-1.7-16,0.5c-8.2,3.4-16.3,1.7-23.8-2.9c-3.1-1.9-6.4-4-9.8-4.6c-2.7-0.5-6.8,0.2-8.6,2c-5.4,5.4-12,7.1-19,7.9
		c-7.3,0.9-13.4,2.8-18.6,9c-5.2,6.2-13.4,7.3-21.2,5.2c-5.4-1.5-10-1.6-14.1,3c-1.2,1.3-3.5,1.8-5.4,2.2
		c-13.8,2.5-23.3,9.9-27.3,23.7c-0.6,2.2-2.8,4.1-4.6,5.6c-5.9,4.7-11.6,9.6-18,13.3c-4.4,2.6-9.7,4.2-14.9,4.9
		c-7,1.1-13,2.9-18,8.5c-4.9,5.6-11.2,9.2-19,9.9c-14.1,1.2-23.1,8.4-25.8,22.7c-0.4,2.3-0.9,4.9-2.4,6.5c-2.4,2.6-5.2,5.4-8.4,6.2
		c-4.1,1.1-6.9,2.9-8.7,6.6c-5.3,10.9-14.8,17.8-24.2,24.7c-2,1.5-7,1.9-8.4,0.6c-1.8-1.8-2-5.9-1.7-8.9c0.2-2,2.4-3.8,3.5-5.8
		c1.5-2.9,2.9-5.9,4.3-8.8c-0.5-0.5-1-1.1-1.6-1.6c-2.4,0.7-4.9,1.1-7.1,2.2c-7.5,4-13.6,9.7-17.9,17c-5.1,8.7-12.1,15.7-19.6,22.5
		c-4.8,4.4-8.4,10.2-12.4,15.5c-5.9,7.8-11.9,15.6-17.6,23.6c-8.5,11.9-16.7,23.9-25,35.9c-2.2,3.1-4,6.6-6.5,9.4
		c-1.7,1.9-4,3.5-6.4,4.5c-1.6,0.7-4.6,0.8-5.4-0.2c-1.1-1.3-1.3-4.1-0.7-5.8c3-8.1,6.5-16,9.7-24.1c5.5-13.8,15-25.1,23.8-36.8
		c1-1.3,2.8-1.9,3.8-3.2c1.6-2.2,3.7-4.4,4.2-6.9c1.4-6.7,4.4-12.2,10.2-16c5.5-3.6,9.3-8.5,11.3-14.8c2.4-7.7,7.7-13,13.9-17.8
		c7.3-5.6,14.6-11.1,21.4-17.1c2.6-2.3,4.5-5.7,6.1-9c2.6-5.3,6-9.5,11.5-11.9c7.1-3,9.9-3.3,14.4,2.5c1,1.3,4.6,2.1,6,1.2
		c5.6-3.4,11.2-7.1,16.1-11.4c8.5-7.4,16.5-15.5,25-22.9c4-3.5,7.1-7.1,9.1-12.1c1.8-4.5,4.8-8.7,7.7-12.6c3.9-5.3,8.7-7.6,15.6-4.6
		c4.9,2.2,11.3-1.6,12.4-7.5c1.6-8.5,5.3-14.9,13.7-18.1c1-0.4,2-1.4,2.5-2.3c3.8-6.8,10.3-10,17-13.2c6.2-3,12.2-6.9,17.6-11.2
		c7.9-6.4,16.9-9.2,26.7-10c2.3-0.2,5.8,1,6.8,2.7c0.9,1.6-0.1,5.1-1.3,7.1c-1.5,2.5-4.2,4.2-6.1,6.6c-0.9,1.2-2,3.3-1.5,4.3
		c0.7,1.3,2.8,2.7,4.2,2.6c2.7-0.2,5.6-0.8,7.9-2.2c2.9-1.9,5.2-4.6,7.7-7.1c3.8-3.8,8.3-5.5,13.6-4.7c4.4,0.6,7.9-0.7,11.4-3.7
		c7.5-6.6,14.6-14.1,23.2-18.8c9.2-5.1,16.4-14,27.5-15.2c4.1-0.4,8.7,0.1,12.6,1.5c9.7,3.4,18.6,4.6,29,1.2
		c9.7-3.1,20.5-2.9,30.9-3.5c2.4-0.1,5.9,1.5,7.4,3.5c4.3,5.5,10.2,7.4,16.5,8.3c5.2,0.7,8.4,3,10.5,7.8c3,6.8,8.5,11.4,14.8,15.1
		c4.3,2.5,5.9,1.8,7.9-2.9c0.1-0.2,0.1-0.3,0.2-0.5c6-14.4,5.9-14.3-6.3-24.2c-2-1.6-4.4-5.6-3.7-7.2c1.2-2.7,4.5-5.9,7.3-6.3
		c6.7-0.9,13.9-1.6,20.3,0c8.7,2,17.2,1.3,25.8,1.1c1.8,0,4.1-0.5,5.4,0.3c8.5,5.4,18.2,2.8,27.2,4.8c9.4,2,18.6,4.9,27.8,7.4
		c4,1.1,7.8,3,11.8,3.5c7.7,1,14.4,4.2,20.2,9.1c1.5,1.2,2.9,4.2,2.4,5.7c-0.5,1.6-3.6,3.4-5.3,3.2c-7.7-1.1-15.3-3.2-23-4.3
		c-4.9-0.7-10.1-0.3-15.1-0.1c-0.8,0-2.1,1.5-2.1,2.3c0,0.8,1.1,2.1,2,2.4c8.8,2.8,17.2,7.4,27,4.6c6.6-1.9,11.5,0.5,15.2,6.5
		c1.2,2.1,3.9,3.3,6,4.7c4.4,2.9,9.4,5.1,13.3,8.5c2,1.7,2.2,5.4,3.3,8.2c-2.3,0.8-4.7,1.6-7,2.4c-0.5,0.2-1,0.2-1.5,0.3
		c-0.1,0.5-0.5,1.2-0.3,1.3c5,4.7,9.3,11.2,15.2,13.6c5.7,2.3,12.3,2.1,15.4,8.5c8.5-5.4,11.9-5.2,19.4,0.9c3.1,2.5,5.8,5.7,9.2,7.7
		c4.2,2.4,8.7,4.9,13.4,5.6c12.6,2.1,18.2,6.6,21,19.2c1,4.4,3,6.8,7.6,7c4.2,0.2,7.2,2.5,9,6.2c3.4,6.7,8.9,10.9,15.8,13.8
		c3.5,1.4,6.6,3.8,9.7,6c4,2.8,7.9,5.6,13.2,5c3.5-0.4,6.7-1.2,7.3-5.4c0.6-4.2,0.8-8.1-3.3-11.2c-3.4-2.6-6.2-6.2-9.5-9.1
		c-3.3-2.8-7-5.2-10.6-7.8c-1.7-1.2-3.7-2.1-5.3-3.5c-5.2-4.4-10.2-9-15.3-13.5c-0.4-0.3-0.9-0.5-1.1-1c-1.2-2.2-3.5-4.9-3-6.7
		c0.5-1.8,3.8-3.6,6.1-3.9c8.6-1,17.1,0,24.6,4.5c6.1,3.7,12.3,4.9,19.6,5.6c8.1,0.7,16.1,4.9,23.8,8.3c5.7,2.5,11,6.1,16.4,9.3
		c2.8,1.7,6.2,3.1,8.1,5.6c4.2,5.3,9.6,7.6,15.8,9.6c8.6,2.7,14.5,8,14.2,18.1c0,1.1,0.2,2.4,0.6,3.4c4,10.8,12,18.7,21.2,24.5
		c4.5,2.8,10.3,3.6,13.6,8.7c6.5,9.8,13.4,19.5,19.5,29.6c2.1,3.5,3.1,8.1,3.6,12.3c0.6,5.2-2.1,6.9-7.2,5c-3.1-1.2-6.1-2.7-9.2-4.1
		C1046.5,246.9,1046.2,247.3,1045.8,247.8z"/>
	<path class="st0" d="M829,284.9c4.7,0.5,9.4,0.8,14,1.7c2.9,0.6,5.5,2.5,8.3,3.2c5,1.3,7.3-1.1,5.1-5.9c-1.6-3.4-4.4-6.5-7.2-9.1
		c-2.1-2-5.1-3.1-7.8-4.5c-7.4-3.9-12.7-9.7-14.7-18c-1-4.2-2.9-6.3-7.7-6.6c-7.6-0.5-14.4-4-18.8-10.2c-5-6.9-11.7-9.6-19.5-10.2
		c-10.1-0.8-18.5-5.2-27.2-10.2c-5.9-3.4-13.7-3.4-20.6-5.1c-5.2-1.2-10.4-2.3-15.3-4.3c-2-0.8-4.2-3.8-4.2-5.8
		c0-1.6,2.9-4.2,4.9-4.6c9.2-2.3,18.6-2.3,27.5,0.9c7.5,2.6,14.8,5.6,21.2,10.8c2.6,2.1,7.5,1.7,11.3,1.5c2.9-0.1,5.7-1.7,8.6-2.6
		c7.4-2.4,13.8-0.3,17.6,6.3c2.1,3.8,4.8,5.9,9.1,6.8c2.8,0.6,6.2,1.8,7.9,3.9c8.2,9.9,19.4,12.4,31.1,13.8c5.6,0.7,10,2.8,14,6.9
		c2.3,2.3,5.4,3.8,8.2,5.5c5.5,3.4,11.2,6.5,16.7,10c10.8,6.9,12.8,27.8-2.4,34.8c-8.9,4.1-8.6,4.7-6.9,14.3
		c0.2,1.3,0.6,2.6,0.8,3.9c1.4,9.3,6.1,14.1,15.3,15.5c3,0.5,4.6-0.3,3.9-3.7c-0.3-1.3-0.7-2.6-1-3.9c-1.1-5.7,1.5-10.3,7.2-10.1
		c11.4,0.4,23.2,1.1,31.3,10.9c4.4,5.3,10.3,9.7,10.9,17.5c0.1,1.1,2.1,2.4,3.4,3.1c13.9,6.4,17.5,14.1,13,28.9
		c-1.2,4-2.7,7.9-4.2,11.8c-4.3,11.7,1.6,25.9,13.2,30.7c5,2.1,8.2,5.3,10,10.3c2.5,6.9,5.4,13.6,7.9,20.5c2.5,6.7,7.1,11,14.2,11.6
		c5.7,0.4,11.6,0.5,17.3-0.3c4.9-0.7,7.9-4.7,7.5-9.7c-0.5-7.3-1.5-14.5-2.9-21.7c-0.5-2.5-2.5-5.1-4.5-6.9
		c-4.4-3.9-7.1-8.1-7.2-14.1c-0.1-4.6-1.1-9.3-1.4-13.9c-0.5-7-2-13.2-7.9-18.1c-2.8-2.4-4.8-6.5-5.7-10.2
		c-2.9-11.5-8-21.1-19.3-26.3c-5.5-2.6-8.4-7.4-10.2-13c-3.5-11.2-12.1-16-22.8-18.2c-2-0.4-4-1.5-5.8-2.7
		c-8.6-5.7-17-11.5-25.5-17.3c-0.7-0.5-1.4-0.9-2.1-1.3c-2.9-2-6.3-4.1-4.4-8.3c2-4.2,6-4.8,9.8-3.1c4.1,1.7,7.8,4.3,11.7,6.4
		c2.4,1.3,5,3.9,7.3,3.7c8.1-0.7,14.3,3.3,20,7.8c8.3,6.5,17.5,10.9,27.2,14.3c5.5,1.9,7.5,6.6,9.9,11.2c1.3,2.4,3.5,5.1,5.9,5.8
		c8.9,2.8,15.4,8.4,20.3,16.1c3.2,5,6.9,9.1,13.2,10.7c4.7,1.2,6.1,5.6,6.3,9.8c0.2,5.6-0.2,11.3-0.6,16.9
		c-0.3,4.4-0.8,8.2,3.3,11.7c1.8,1.5,2.4,5.5,2,8.2c-0.7,4.1,0.6,6.6,3.5,9.1c5.7,4.8,11.6,9.5,16.9,14.8c8.3,8.4,9.3,14.6,4.1,23.7
		c-1.1,1.9-2.1,4.6-1.6,6.6c1.3,5.5-0.7,10.1-2.8,14.9c-1.6,3.5-3,7.1-4.8,10.4c-4.3,8-4.8,16.4-3.3,25.2c0.6,3.4-0.7,7.1-0.9,10.7
		c-0.3,4.2-1.4,8.7-0.1,12.5c2.3,6.9,2.7,13.5,1.5,20.6c-0.4,2.7,0,5.9,1.3,8.3c2,3.9,4.7,7.7,7.7,11c4.5,4.9,11,4.3,14.2-1.5
		c4.6-8.4,6.8-17.2,3.8-26.9c-0.7-2.4-0.6-5.7,0.6-7.9c2.9-5.3,2.9-10.2,1.2-15.8c-1.8-6.2-3.5-12.6-3.7-18.9
		c-0.1-3.9,2.2-8.1,4.1-11.8c1.4-2.7,4-4.9,6-7.3c4.5-5.4,6.2-11.4,4-18.2c-2-6.2-0.5-11.9,2-17.4c2.7-6,4.2-11.9,0-17.9
		c-0.6-0.8-1-1.9-0.9-2.8c1-8.4-3.4-15.6-5.1-23.3c-2.2-9.7-1.6-20.1-1.7-30.2c0-1.8,2.7-3.7,4.1-5.5c1.6,1.6,3.9,3,4.5,5
		c2.7,8.8,4.9,17.9,7.4,26.8c0.4,1.5,1.6,2.9,2.4,4.3c3,5.1,7,9.8,8.9,15.3c3.2,8.9,5.3,18.2,7.6,27.4c1.6,6,1,12-2.2,17.4
		c-8.9,14.8-6,29.8-2.3,45.4c2.8,12,7.6,24,5.2,36.6c-0.9,4.8-2.7,9.7-5.4,13.7c-6.4,9.7-9.5,19.6-5.6,31.1
		c3.2,9.4,1.9,18.3-3.1,26.9c-1.3,2.2-1.3,5.1-2.1,7.6c-2.1,6.1-4,12.3-6.8,18.2c-1.2,2.5-4.7,5.9-6.5,5.5c-2.5-0.5-5-3.9-6.3-6.6
		c-1.9-4-2.9-8.5-4.2-12.8c-1.8-5.8-3.3-6.6-9.1-4.7c-8.3,2.7-12,8.4-11.4,19.3c0.3,5.3-1,9.1-5.3,12c-3.1,2.2-3.6,4.5-1.5,8
		c9.5,15.6,6.8,31.5-7.4,43.6c-1.5,1.3-3.6,2.1-4.7,3.7c-1.5,2.1-2.8,4.6-3.5,7.1c-0.5,1.8,0,4-0.1,6c-0.4,5.7-3.1,9.4-8.7,9.8
		c-6.4,0.5-9.9,4.2-12.8,9c-3.8,6.3-7.1,12.7-15,15.3c-2.3,0.7-4.2,4.3-5.1,7c-4.6,12.5-15.5,16.7-26.4,20.9
		c-1.4,0.6-4.1-0.2-5.2-1.3c-0.7-0.7-0.3-3.6,0.6-4.9c2.3-3.2,4.9-6.3,7.8-9.1c8.1-7.6,11.9-17.2,14.9-27.7
		c3.6-13,8.7-25.7,13.1-38.5c0.9-2.6,1.1-5.5,1.8-8.2c1.3-4.6,1.7-9.8,4.3-13.6c9.7-14.1,11.2-29.9,8.3-45.6
		c-4.4-23.7-1.3-46.3,5.9-68.7c1.6-5,1.4-8.9-2.3-12.7c-4.2-4.4-6-9.5-6.2-15.8c-0.2-8-2.4-15.8-7.6-22.3
		c-4.9-6.1-10.2-5.3-13.3,1.8c-2.3,5.2-0.7,9.9,1.4,14.9c2.3,5.4,6,11.3,5.5,16.7c-0.8,10,0.8,19.4,2.1,29.1
		c0.5,3.9-1.7,8.2-2.5,12.3c-0.9,4.5-1.1,9.2-2.4,13.6c-1.4,5-3.6,9.8-5.6,14.6c-1.2,2.9-2.6,5.7-4.3,8.4c-1,1.7-3.3,4.5-3.8,4.2
		c-2.3-1.2-5.3-2.8-6-5c-1-3.2-0.5-6.9-0.4-10.4c0.5-9,1.2-17.9,1.6-26.9c0.1-1.8-1-3.9-2.1-5.4c-4.8-6.4-5.8-13.5-3.9-20.9
		c2.3-8.8,1.4-16.3-4.8-23.7c-2.9-3.5-3.2-9.2-4.7-13.9c-2.1-6.4-4.6-12.8-6.3-19.3c-1.9-7.3-3.4-14.8-4.6-22.3
		c-0.9-5.9-2.3-11.4-6.6-15.8c0.1-1.4,0.6-3.1,0.1-4.3c-7.4-19.5-16.8-38-27.3-55.9c-16.4-27.7-36.2-52.8-58.9-75.6
		c-9.7-9.7-20.7-18.1-30.9-27.3C834.5,291.3,831.9,288,829,284.9z"/>
	<path class="st2" d="M736.6,658.3c-8.4,5.5-15.3,12.4-21.3,20.5c-2.5,3.3-7.2,5.1-10.9,7.5c-2.2,1.5-4.8,2.5-6.5,4.4
		c-5.7,5.9-12.2,9.9-20.3,11.9c-4.4,1.1-8.2,4.6-12.3,6.9c-3.9,2.2-8,4.3-12,6.4c-4.1,2.2-8.3,4.1-12.2,6.6
		c-5.8,3.6-11.9,5.9-18.8,5.8c-3.2,0-7.2,0.2-7.7-3.7c-0.3-2.2,1.8-5.7,3.8-7.1c6.9-4.9,14.4-8.9,21.3-13.7
		c3.9-2.7,7.1-6.2,10.7-9.3c3.7-3.1,7.2-6.5,11.2-9c5.7-3.6,9.7-8.2,12.6-14.3c2.4-4.8,6.5-8.8,9.4-13.4c1-1.6,0.9-4,1.3-6
		c-2.3,0.3-4.6,0.5-6.8,1c-0.7,0.2-1.4,0.9-1.9,1.6c-5.2,7.6-12.6,10.8-21.5,11.8c-2.2,0.2-5.2,2.7-6.1,4.8
		c-3.9,9.9-10.7,14.6-21.4,13c-4.2-0.6-6.7,1.1-9,4.5c-2.8,4-6,8.2-10,11c-6.8,4.9-14.5,6.6-22.3,1.5c-5.5-3.6-10.1-3.2-16,0.5
		c-18.7,11.7-36.2,8.2-49.5-9.2c-2.9-3.8-3.2-7.5-0.4-11.4c1.1-1.5,2.1-3,3.1-4.5c-6.5-6.6-6.5-6.6-6.4-16.6c0.1-8.1-6-14.5-14-14.6
		c-8.6-0.2-17-1.1-24.2-6.3c-3.8-2.7-6.6-6-7.1-10.9c-0.4-3.8,0.7-7.3,4.3-8.8c4-1.7,5.4-4.8,6-8.5c1.2-7.2,2.9-13.8,10.4-17.5
		c3.9-1.9,4.5-7.8,1.4-11c-3.2-3.3-7.3-6.2-11.5-8.1c-5.7-2.5-12-3.9-18-5.4c-2.2-0.6-4.6-0.1-6.9-0.2c0-0.8-0.2-1.7,0-2.5
		c3.8-16.3,8.6-32.2,18-46.2c6.9-10.1,14.1-20.2,22.7-28.9c10.8-11,23.9-19.4,37.7-26.5c1.1-0.6,1.6-2.1,2.4-3.3
		c9.8-0.2,11.5,0.9,15.1,10c0.8,2.1,1.4,3.8,4.6,3.1c1.6-0.4,4.1,1.1,5.6,2.4c3.6,3.1,6.7,3,10.1-0.2c2.6-2.5,5.2-5.1,8.1-7.3
		c1.5-1.2,3.4-2.1,5.3-2.3c7-0.9,13.8-1.2,20.1,3.4c2,1.5,5.8,1.4,8.6,0.9c6-1.1,11.2-0.1,15.8,4c2.4,2.1,4.8,4.2,7.5,5.8
		c2.3,1.4,5,2.4,7.7,2.8c5.9,1,10.5,3.1,12.9,9.3c1.3,3.4,4.1,6.4,6.7,9.1c2.9,3,6.7,5.1,9.4,8.2c2.1,2.4,3.8,5.5,4.5,8.6
		c0.8,3.5-1.7,5.1-4.8,3.2c-6.6-4-13.3-8.1-19.4-12.8c-4.2-3.2-8.4-5.4-13.7-4.5c-4.7,0.8-8.4-0.9-11.7-4.2
		c-1.9-1.9-3.9-3.9-6.2-4.9c-2-0.9-5.3-1.5-6.9-0.5c-6.1,3.7-12.4,3.2-18.9,1.9c-7.1-1.4-13.4-0.7-19.1,4.4c-1.9,1.7-5.2,1.9-7.8,3
		c-1.5,0.6-3.9,1.6-4,2.6c-0.2,1.8,0.6,5.1,1.8,5.5c3.2,1.2,7,2.1,10.2,1.5c5.5-1,10.7-3.8,16.2-4.7c4.6-0.8,9.6-0.7,14.2,0.2
		c6.3,1.3,12.5,3.4,18.6,5.7c3.7,1.4,7.5,3.1,10.5,5.6c6,4.9,5.7,11.7-0.3,16.6c-2.1,1.7-4.3,3.1-6.4,4.8c-5.9,4.7-5,10.4,1.6,14.2
		c5.9,3.4,11.6,7.1,16.9,11.3c5.5,4.3,7.1,12.4,4.1,18.6c-0.7,1.4-2.6,2.4-4.1,3.3c-4.2,2.5-9,4.3-12.7,7.4
		c-7.5,6-14.8,8.9-24.2,3.9c-3.6-1.9-8.5-1.2-12.6-2.3c-4.2-1.2-8.4-2.8-12.3-4.9c-4-2.2-7.6-5.4-11.4-8c-8.5-5.8-8.3-16.4,0.8-20.9
		c4.5-2.2,9.8-2.7,14.7-4c2.3-0.6,6.3-1.2,6.4-2.2c0.4-3.1,0.3-7.3-1.6-9.2c-4-4.1-8.8-7.8-14-10.2c-2.8-1.3-7.3-0.5-10.5,0.8
		c-6.6,2.6-12.9,5.2-20.2,3.5c-1.6-0.4-4.1,0.7-5.3,1.9c-2.9,2.7-5.4,5.9-7.8,9c-2,2.6-2.2,4.9,1.5,6.7c1.5,0.8,3.4,3.1,3.3,4.6
		c-0.4,4.8,2.8,6.1,6.1,7.8c3.4,1.8,6.8,3.7,9.6,6.2c5.5,4.7,5.4,12.1,0.3,17.1c-2.1,2.1-4.4,4.1-6.4,6.3c-3.3,3.8-3.2,10.4,0,13.7
		c5.2,5.3,8.9,5.7,14.2,1.4c1.4-1.1,2.8-2.4,4.4-3.3c7.9-4.6,12.2-3.3,16.7,4.6c1.2,2.1,2.7,4.2,4.6,5.6c2.9,2.1,5.8,1.8,8.5-1
		c2.7-2.9,5.5-5.9,8.5-8.4c12.2-10.1,27.1-5,30.6,10.4c2,8.7,3.1,9.2,11.8,8.8c6.3-0.3,10.9-2,14.4-7.8c1.4-2.4,5.8-4,8.9-4.1
		c15.5-0.6,23.1-13.5,16.4-27.6c-2.2-4.5-3.2-9.8-3.6-14.9c-0.5-5.8,8.2-12,14.5-10.3c6.2,1.6,10.3-0.5,13.7-5.3
		c2.8-3.9,5.7-7.8,8.1-11.9c2.1-3.6,2-7.5-1.3-10.5c-4.7-4.4-5.7-9.7-6-16.1c-0.4-7.1-2.9-14.2-5.3-21.1c-0.9-2.4-3.9-5.2-6.4-5.8
		c-10.9-2.5-14.8-9.7-14.9-20c0-0.8-0.2-1.7-0.3-2.5c1.2,0.1,2.8-0.1,3.4,0.5c6.7,6.8,13.9,13.3,19.8,20.8
		c23.8,30.1,35.3,64.2,33.1,102.9c-1,18-5.6,34.9-12.1,51.5C735.5,654.6,736.4,656.6,736.6,658.3z"/>
	<path class="st1" d="M578.4,1059c-0.5,3.9,2.2,5.5,5.1,6.9c2.1,1,4.8,1.3,6.3,2.9c4.6,4.8,9.4,4.6,14.9,2.1
		c7.1-3.2,13.8-3.3,20.8,1.3c2.7,1.8,7,1.9,10.6,1.7c7.8-0.4,14.8,1,21.2,5.7c1.4,1.1,4.3,1.4,6,0.7c11.5-4.4,23.2-5.1,35.4-3.4
		c7,1,14-0.1,20.2-3.9c4.2-2.6,8.6-2.3,12.9-0.6c4.5,1.8,8.6,1.7,13-0.3c10.8-5.1,22.4-6.2,34-6.8c1.4-0.1,4,0.9,4.1,1.5
		c0.2,1.6-0.4,3.9-1.5,4.8c-9.9,8-20.3,14.9-33.2,17.4c-5.7,1.1-11.6,3.2-16.4,6.4c-6.8,4.5-14.4,4.7-21.8,6.4
		c-4.8,1.1-9.5,3-14.3,3.9c-4.3,0.8-8.8,1.5-13,1.1c-4.6-0.5-9-2.4-13.4-3.7c-4.3-1.3-8.1-0.9-12.5,0.5c-3.9,1.3-8.8,0.6-13-0.4
		c-5.1-1.3-9.5-1.5-14.3,1.4c-2.7,1.6-6.3,1.8-9.6,2.1c-4.2,0.4-9.1-0.7-10.7,4.9c-1.4,5,2.3,12.7,7.3,14.5c5,1.8,10.2,3,15.4,3.6
		c4.9,0.6,8.5,2,10.6,6.8c2.3,5.2,6.7,8,12.5,7.3c7.6-0.9,13.4,2.3,19.1,6.8c2.5,1.9,6.3,3,9.6,3c5.5,0,10.4,1.2,15.3,3.4
		c4.9,2.2,10.4,3.2,15.6,4.9c2.5,0.8,5.2,1.6,7.3,3c1.6,1.1,2.4,3.2,3.5,4.9c-1.7,1-3.5,2.8-5.2,2.8c-7.5-0.1-15-0.7-22.4-1.1
		c-3-0.2-6.1-0.8-8.9-0.3c-10.8,2-21.1,0.5-31.6-2.3c-7-1.9-14.5-2.1-21.6-4c-5.1-1.4-10.7-3.4-14.5-6.8
		c-7.8-7.1-16.3-12.6-26.5-15.3c-0.8-0.2-1.7-0.4-2.3-0.9c-7.7-7.1-17.3-5.9-26.5-6c-5.6,0-10.1-1.6-12.6-7.1
		c-0.7-1.4-2.2-2.5-3.1-3.8c-1.1-1.7-2.8-3.5-2.9-5.4c-0.5-6.4-0.5-12.8,2.8-18.9c3.8-6.9,2.7-10.4-5.1-12
		c-9.2-1.9-12.1-10.3-18.2-15.2c-1.4-1.1-1.1-5.8,0-8.1c1.2-2.6,3.3-4.7,0.8-7.5c-2.8-3.1-5.4-6.8-10.4-5.4
		c-2.9,0.8-5.7,1.9-8.3,3.2c-9.2,4.9-18.1,4.8-26.9-0.9c-7.8-5-15.2-10.8-23.6-14.6c-9.6-4.3-19.1-7.7-24.7-17.7
		c-1.5-2.7-6.1-3.9-9.3-5.6c-6.6-3.6-12.3-8.1-15.5-15c-0.9-2-0.6-4.6-0.9-7c2.3,0,5-0.8,7,0c4.4,1.9,8.3,4.8,12.7,6.8
		c4.4,2.1,9.1,3.6,13.7,5.3c6.5,2.4,13.3,4.1,19.5,7.1c7.3,3.6,14.1,6.2,22.3,3.2c5.6-2,11.5-1.6,16.9,1.4c1.8,0.9,3.8,1.4,5.5,2.4
		c7.1,4.2,14,5.4,21.5,0.7c1.5-1,4.5-1,6.1-0.2c5,2.5,10.1,2.3,15.1,0.8c5.4-1.6,10.3-1,14.8,2.1c4.8,3.4,9.7,3,15.2,2.1
		c6.4-1,13.2-1.5,19.6-0.6c7.5,1.1,8.8,6.9,3.4,12.3c-1.9,1.9-4.4,3.1-6.3,4.9c-2.4,2.2-5,4.4-6.6,7.2
		C584.7,1057.1,584.9,1057.3,578.4,1059z"/>
	<path class="st0" d="M234.1,709c0.7,7,0.7,14,4.7,20.4c1.8,2.9,1.4,7.1,2.2,10.6c0.8,4,1.5,8.2,3,12c0.7,1.8,2.9,3.8,4.8,4.2
		c7.2,1.8,11.4,6,13.7,13c2.2,6.5,5.2,12.5,11.9,16.4c6.7,3.9,7.4,9.6,4.1,17.5c-1.1,2.7-3.4,6-2.6,8.1c1.7,4.7,4.6,9.1,7.7,13.2
		c2,2.5,5.1,4.3,7.9,6.1c5.2,3.4,8.3,8.2,8.8,14.4c0.5,5.1,2.5,9.1,7,12c6,3.8,8.6,9.7,6.4,16.4c-1.1,3.2-4.2,6.4-7.2,8.2
		c-4.2,2.6-4.4,5.3-1.8,8.5c3.3,4.1,7,8,10.9,11.7c3.4,3.2,5.6,6.7,6.2,11.6c0.2,1.7,2.2,4.1,3.8,4.7c8.3,2.8,14.1,7.3,16.6,16.3
		c0.9,3.1,4.3,6.3,7.4,7.9c5.1,2.6,8.2,6.1,10.4,11.4c1.3,3.1,3.9,6,6.6,8.2c5.9,4.8,12.4,9,18.3,13.9c1.5,1.3,1.6,4.2,2.4,6.4
		c-2,0.6-4.3,2.1-6.1,1.7c-3.7-0.7-7.3-2.2-10.8-3.8c-7.8-3.8-15.4-7.8-23.1-11.8c-1.7-0.9-3.6-2-4.8-3.5c-4.8-5.9-10.9-9-18.4-10
		c-8.6-1.1-13.5-7-18.1-13.7c-2-2.8-5.2-4.8-7.7-7.2c-1.3-1.2-2.2-2.8-3.3-4.2c-3.2-4.2-5.8-9-9.7-12.3c-6-5-13-8.7-19.2-13.4
		c-7.4-5.6-14.4-11.7-21.5-17.8c-1.7-1.5-3.7-3.5-4.2-5.5c-2.5-12.5-12.8-20.3-18.4-31c-3-5.7-6.1-11.2-5.1-17.9
		c0.8-5.9,3.1-7.5,8.8-6.6c5.8,0.9,7.5,0.1,8.9-5.6c1.9-7.6,1.1-14.6-5.9-19.6c-4.3-3.1-6.5-6.8-5.8-12.3c0.2-1.2-1.3-3.6-2.4-3.9
		c-16.4-4.4-20.3-16.9-21.1-31.8c-0.3-5.2-2.2-10.3-2.8-15.5c-0.3-3-0.3-6.4,0.9-9.1c3-7,4.9-13.6,1.7-21.1
		c-0.8-1.9,0.5-5.7,2.1-7.5c4.9-5.3,6.2-11.3,6.6-18.2c0.2-4.7,2.6-9.4,4.3-14c1.6-4.5,3.4-8.9,5.1-13.4c0.7,0.9,1.7,1.8,2,2.8
		c3.8,15.6,7.4,31.3,11.3,47C230.8,705,232.8,706.9,234.1,709z"/>
	<path class="st3" d="M736.6,658.3c-0.2-1.7-1.1-3.7-0.6-5.1c6.5-16.6,11.1-33.5,12.1-51.5c2.2-38.7-9.3-72.8-33.1-102.9
		c-5.9-7.5-13.1-14-19.8-20.8c-0.6-0.7-2.3-0.4-3.4-0.5c-3-0.8-6-1.9-9-2.3c-6-0.8-10.6-3.2-13.5-8.9c-0.7-1.5-2.8-2.7-4.5-3.2
		c-6-1.6-10.8-4.5-14.5-9.7c-1.7-2.4-5-4.3-7.9-5c-8.3-2-10-5.8-4.2-13.9c-4.4-1.2-8.4-2.9-12.5-3.3c-5.1-0.5-10.3-0.2-15.4,0.4
		c-7.9,0.9-14.5-1.5-20.1-6.8c-3.2-3-6.6-4.2-10.9-3.8c-6.1,0.5-12.3,1-18.4,1.3c-3.1,0.2-6.3,0.2-9.5-0.2c-7.3-0.9-10.4-6.5-7.1-13
		c1.3-2.6,3.5-4.8,5.2-7.2c14.8-1.6,29.7-3.2,44.5-5c0.7-0.1,1.3-1.2,1.9-1.8c3.7,0,7.3-0.1,11-0.1c1.8,1,3.5,2.5,5.4,2.8
		c4.4,0.7,8.9,0.4,13.2,1.3c6,1.2,12.6,0.1,17.6,5c-4.7,4.1-5.6,7.8-2.9,11.9c3.1,4.9,9.7,7.8,14.2,5.5c7.9-4,14.3-2.2,20.4,3.6
		c5.2,4.9,8.1,5.4,14.2,1.6c9.9-6.2,19.2-5.3,28.4,1c4.2,2.9,8.8,5.7,12.2,9.5c3.2,3.6,5.7,8.1,7.3,12.6c1.6,4.6,3.7,8.2,7.7,11.2
		c4.9,3.7,9.5,7.8,13.7,12.3c6.2,6.5,9,14.3,8.9,23.6c-0.2,11.1,4.6,20.9,11.7,29c12.6,14.6,11.6,31.1,7.9,48.1
		c-0.5,2.3-3.8,5.5-5.7,5.4c-2.1-0.1-4-3.5-6-5.5c-0.2-0.2-0.1-0.7-0.2-1c-1.4-2.6-2.9-5.3-4.4-7.9c-2.3,2.4-5.3,4.4-6.9,7.2
		c-3.7,6.5-4.1,13.7-1.2,20.7c2.9,7,2,12.8-3.5,18.1c-6.6,6.4-10.1,14-10.3,23.5C748.5,644.2,744.1,652.2,736.6,658.3z"/>
	<path class="st0" d="M657.4,218.2c-7.2-6.1-16.3-4.9-24.7-5.8c-10.1-1.2-19.8-2.1-27.8-9.3c-1.2-1.1-3.5-1.8-5.1-1.4
		c-9,1.9-16.6-1.4-24.4-5.2c-2.4-1.2-5.6-1.4-8.4-1.3c-6,0.3-12,0.8-17.4-2.7c-5.7-3.7-6.4-8.3-2-13.2c2.1-2.3,1.7-4.2-1.2-4.6
		c-9.5-1.5-19.1-6-28.6,1.2c-4.9,3.7-10.7,4-16.6,1.3c-5.3-2.4-10.9-2-16,0.4c-12.2,5.6-24.7,9.8-38.1,11.1
		c-3.2,0.3-6.1,2.4-9.3,3.5c-6.9,2.5-13.7,5-20.7,7c-1.5,0.4-4.3-0.3-5.1-1.5c-0.8-1.2-0.4-4.1,0.5-5.4c2.3-3,5-5.8,7.9-8.2
		c11.6-9.3,25-13.9,39.8-15.4c3.2-0.3,6.7-3.4,9.1-6.1c3.2-3.6,6.4-6,11.5-5.5c11.8,1.3,22.7-1.3,32.5-8.3c6-4.4,13.1-2.5,19.9-2.3
		c4.3,0.1,8.6-1,12.9-1.8c3.4-0.7,6.7-2.2,10-2.4c7.5-0.4,15-0.5,22.5,0c4.4,0.3,8.8,1.6,12.9,3.3c5.5,2.3,6.9,6.1,3.8,11.3
		c-1.9,3.3-5.1,5.9-8.2,8.4c-2.4,2-5,3.3-3.5,7.2c1.6,4.1,4.7,3.8,7.8,2.7c4.8-1.7,9.6-3.7,14.3-5.9c8.2-3.7,15-2.5,20.4,4.5
		c2.2,2.8,4.6,3.9,8,4.1c5.3,0.3,10.7,0.5,15.9,1.5c7.7,1.5,9.3,4,8.8,11.7c-0.4,5.1,1.5,9.2,6,11c6.6,2.5,13.5,4.3,20.4,6
		c3,0.7,6.3,0.2,9.5,0.4c6.2,0.4,11.8,1.9,15.8,7.2c3,3.9,6.7,5,11.8,4.1c15.5-2.7,28.2,8.1,29.6,24.6c-4.8-1.7-9.6-3.5-14.4-4.9
		c-20.5-6.2-41.1-12.6-61.7-18.4C670,218.9,663.6,218.9,657.4,218.2z"/>
	<path class="st4" d="M538,461.4c-0.8,1.1-1.4,2.7-2.4,3.3c-13.8,7.1-26.9,15.5-37.7,26.5c-8.5,8.7-15.8,18.8-22.7,28.9
		c-9.4,13.9-14.2,29.9-18,46.2c-0.2,0.8,0,1.7,0,2.5c-4.2,2.2-5.6,5.9-5.5,10.4c0.1,2.8,0.3,5.7,0.3,8.5c-0.1,4.5-2,7.9-6.9,8.3
		c-6.1,0.5-6.7,5-7.4,9.5c-0.8,4.7,1.4,7.5,5.6,9.3c6.9,3.1,8.8,8.4,4.8,14.8c-2.2,3.6-0.8,4.8,2.3,6.3c2.5,1.3,4.6,3.5,7,5.2
		c2.1,1.5,4.3,3,6.7,3.9c4.4,1.6,9,2.4,13.3,4c2.5,1,5,2.8,6.8,4.8c2.7,2.9,2.1,5.5-1.6,7c-5.7,2.3-11.5,2.9-17.5,0.6
		c-6.5-2.5-12.9-5.1-20.2-2.6c-2.3,0.8-5.8,0.5-7.7-0.8c-5.3-3.7-11.3-5.2-17.2-7.3c-11.3-4-15.5-13.9-11-24.2
		c4.1-9.3,2.3-14.4-6.8-19.9c0.3-11.1,0.4-22.2,1-33.2c1.1-18.6,6.1-36.4,13-53.7c2.4-5.9,4.6-11.9,6.9-17.9
		c5.8-3,11.4-6.9,17.5-8.7c8-2.3,11.4,1.5,12.9,12.6c5.2-0.3,10-1.2,12.5-6.7c1.4-3.2,3.2-6.2,4.9-9.2c3.4-5.9,8.8-8.5,15.5-7
		c5.3,1.1,10.5,2.5,15.1-1.7c1.1-1,2.6-1.8,3.2-3.1C511.4,463.7,524.1,461.4,538,461.4z"/>
	<path class="st5" d="M775.9,774.8c-0.4,0.4-0.7,0.8-1.1,1.1c-4.1,3-8.4,5.9-12.4,9.2c-2.4,2-4.3,4.6-6.5,7
		c-2.6,2.2-5.3,4.3-7.9,6.5c-0.6,0.5-1,1.5-1.7,1.8c-10,4.6-19.4,10.8-30.8,11.4c-2.2,0.1-4.5-2-6.8-3.1c1.2-2,2-4.8,3.8-5.8
		c10.6-6.1,18.5-15,26.1-24.3c2.5-3,6.5-4.7,10-6.9c3.2-2,7.2-3.3,9.7-5.9c11-11.3,21.9-22.8,26.3-38.7c0.4-1.5,1.4-2.9,2.2-4.4
		c3.3,0.6,5-1.9,4.1-5.9c0.4-0.6,0.8-1.2,1.1-1.9c1.6-1.2,3.8-2.1,4.7-3.7c5.6-10.7,11.7-21.3,16.2-32.5c9.8-24.1,16.1-49,16.1-75.2
		c0-8.9,0.2-17.8-0.1-26.7c-0.2-5.6-1.2-11.1-2-16.7c-0.1-0.8-1.4-1.5-2.1-2.2c-2-10.1,0-19.8,3.3-29.3c0.9-2.5,1.8-5,3-7.4
		c4.8-9.2,5.6-18.6,1.8-28.4c-0.5-1.2-0.5-2.6-0.7-3.9c1.4,1.2,3.4,2.1,4,3.6c3.5,8.9,7.1,17.8,9.8,27c5.4,18,9.2,36.4,10.2,55.3
		c0.1,2.1,1.5,4.2,2.3,6.3c-3.4,10.6-9.4,19.4-16.5,28.1c-5.5,6.8-12.3,13.7-13.4,23.4c-0.6,4.9,1.3,8.2,6.1,8.3
		c13,0.2,15.1,5.6,14.1,19c-0.3,4.2-1.5,8.6-3.3,12.4c-2.9,6-3.4,12-3.1,18.4c0.2,4.8,0.2,9.7-0.3,14.4c-0.9,8.5-6.4,13.9-14.8,15
		c-2.8,0.4-5.6,0.5-8.4,0.8c-11.9,1.1-17,8.2-14.1,19.8c-1,0.8-2.3,1.4-3.1,2.3c-7.9,9.1-15.7,18.2-23.5,27.4
		C777,771.7,776.6,773.4,775.9,774.8z"/>
	<path class="st6" d="M282.1,381.4c0.5-1.4,0.6-3,1.4-4.2c16.7-24.1,36-46.1,57.7-65.7c23.1-20.8,48.4-38.5,75.9-53.2
		c35.4-19,72.9-31.5,112.2-39.2c3.2-0.6,6.6-0.8,9.8-1.2c4.4,6.3,6.6,7,13.7,4.2c3.2-1.3,6.3-3,9.3-4.6c10-5.3,20-4.8,30-0.1
		c7.3,3.5,9.9,10.3,11.5,17.6c-2.5,0.3-4.9,1-7.4,0.9c-24-0.6-47.6,2.2-71.1,6.9c-37.1,7.4-72.1,20.6-105,39.1
		c-1.5,0.8-2.2,3-3.3,4.5c-1.6,0.1-3.3,0.4-4.9,0.4c-8.7-0.4-14.7,4-17.1,12.3c-4,14.3-9.1,18.2-24,18.9c-3.1,0.1-6.3,0.1-9.4,0.5
		c-1.2,0.2-2.6,1.3-3.3,2.3c-0.7,1-0.8,2.5-1,3.8c-1.2,10-2.8,11.8-12.6,14.2c-6.9,1.7-13.9,3.2-20.8,5.1c-2.8,0.8-5.5,2.3-8.1,3.8
		c-3.1,1.8-4.7,4.5-3.9,8.4c1.8,7.8-1.8,13-8.3,17C297,377.1,290.2,381,282.1,381.4z"/>
	<path class="st7" d="M308.3,231.2c-5,1-10,1.9-14.9,2.9c-7.8,1.6-15.5,3.3-23.2,4.9c-0.6,0.1-1.4,0-2,0.3
		c-17.7,7.7-38.2,7.9-54.4,20c-3.2,2.4-7.6,3.4-11.6,4.3c-1.7,0.4-4.5-0.6-5.6-1.9c-0.8-0.9-0.1-4,1-5.3
		c8.1-9.8,16.4-19.3,29.6-22.5c14.2-3.5,26.4-11,36.7-21.3c4.7-4.6,9.8-6.6,16.6-6c3.4,0.3,7.9-1.6,10.6-4c6.2-5.6,12.8-9.8,21.3-11
		c6.7-0.9,13.3-3.2,20.1-3.9c5-0.6,10.4-0.4,15.2,0.8c5.8,1.5,10.9,1.6,15.6-2c9.9-7.5,19.7-4.8,29.5,0.2c4.3,2.2,5.1,5.5,3.2,10
		c-3.9,9.6-11.3,15.5-20,20.1c-4.7,2.5-9.8,4.3-14.3,7.1c-6.3,4-12,8.8-18.2,12.9c-5.7,3.7-11.5,7.6-17.8,9.8
		c-6.9,2.4-12.3,6.2-17,11.6c-5.1,5.9-11.4,10.3-19.5,10.8c-5.5,0.4-8.1-3.5-5.4-8.3c2.2-4,5.3-7.6,8.6-10.8
		c4.1-4.1,8.9-7.5,13.2-11.4c1.6-1.4,2.6-3.5,3.9-5.3C309.2,232.4,308.8,231.8,308.3,231.2z"/>
	<path class="st7" d="M146.9,665.9c3.8-9,0.4-15.7-2.5-22.7c-2.2-5.1-1.6-9.7,2-14.4c2-2.5,2.6-6.6,2.7-10c0.1-3.2-1.6-6.5-1.7-9.8
		c-0.1-4.2,0.6-8.5,0.9-12.7c0.4-5.2,1.1-10.5,1.2-15.7c0.1-4.1-0.8-8.3-0.4-12.4c0.3-2.8,1.4-5.9,3.1-8c6.1-7.5,10.1-15.1,8-25.5
		c-2.2-11.3,2-17.9,13.1-23.6c4.5-2.3,7.5-5.3,10.1-9.6c2.5-4,6.9-7,10.8-9.8c4.8-3.5,9.9-6.5,14.9-9.7c4.9-3.2,9.6-6.6,14.6-9.5
		c1.6-0.9,4.9-1.1,5.9-0.1c1.3,1.3,2,4.4,1.4,6.1c-1.4,3.8-3.3,7.6-6,10.6c-3.9,4.5-7.1,9-8.7,14.8c-2.2,8-6,15.1-14.6,18.4
		c-1.9,0.7-3.2,3.6-4.3,5.7c-3.4,6.7-7.4,13.4-9.6,20.5c-2.6,8.4-8.3,16.4-3.6,26.1c2.8,5.9,1.4,11.3-3.2,16.5
		c-2,2.3-2.4,7.3-1.5,10.6c1.6,6,1.3,11.5-1.2,17c-2.9,6.5-3.6,13.3-3.8,20.4c-0.2,5-1.8,10-3.6,14.7c-1.6,4.3-2.3,8.3,0.2,12.4
		c3,5,3.1,10.1,2.2,15.8c-0.8,5.5-0.1,11.2,0,16.7c0,3.5,0.4,7,0,10.4c-0.6,4-3.6,5.4-6.3,2.4c-3.1-3.5-6-7.8-6.9-12.2
		c-1.5-7.2-4-13.6-7.7-19.8C150,675.2,148.6,670.1,146.9,665.9z"/>
	<path class="st0" d="M468.7,951.8c1.5,1.6,2.8,3.3,4.4,4.7c3.5,3,6.9,5.4,11.9,1.8c3.9-2.9,8.7-1.8,12.7,0.8c2.1,1.3,4.1,3,5.5,5
		c3.5,5,7.5,7.6,14,7.7c3.5,0.1,7.8,2.5,10.1,5.3c4.2,4.9,9.1,7.2,15.4,8c4.5,0.6,9.1,2.1,13.3,3.8c1.6,0.7,3.6,3.2,3.5,4.7
		c-0.1,1.6-2.3,3.9-3.9,4.4c-11.2,2.9-22.6,4.5-33.3-1.8c-6-3.5-12-5-18.5-2.2c-9.2,3.9-17.5,1.8-25.6-3.2c-1.9-1.2-4.3-2.3-6.5-2.3
		c-8.4-0.2-14.9-4.2-20.8-9.6c-1.4-1.2-2.9-2.2-4.3-3.4c-3.4-2.7-6.5-2.4-8.8,1.3c-2.6,4.2-6.3,4.9-10.4,3.3
		c-7.1-2.7-14.2-5.7-21.2-8.7c-1.1-0.5-2.3-1.6-2.9-2.7c-4.7-8.4-12.1-15.2-14.2-24.9c-2.2-9.8-8.8-13.8-18.2-14.7
		c-3.1-0.3-6.2-1.1-9.2-2.2c-7.5-2.8-12-8.3-11.5-16.3c0.6-9.8-2.1-18.2-7.3-26.4c-1.7-2.6-1.9-6.2-2.8-9.3c2,1.2,4,2.2,5.8,3.6
		c15.6,11.6,31.2,23.3,46.9,34.9c1,0.7,2.7,0.3,4.1,0.5c3.3,5.5,7.3,10.2,14,11.6c1,1.2,1.7,2.8,3,3.4c14.8,7,29.7,14,44.7,20.8
		C461.7,951,465.3,951.1,468.7,951.8z"/>
	<path class="st7" d="M363,1129.4c-5-0.5-10-0.4-14.8-1.6c-4.4-1.1-9.1-2.7-12.5-5.6c-5.7-4.8-11.9-7.3-19.1-7
		c-15.6,0.7-28.4-5.4-39.7-15.7c-2.6-2.4-6.8-3.7-10.4-4.2c-6.6-0.8-12.2-3.1-16.8-7.9c-2.1-2.2-4.2-4.3-6.4-6.3
		c-3.9-3.6-7.7-6.8-13.3-8.3c-4.4-1.2-8.2-4.9-12.2-7.5c-5.5-3.5-11.1-6.7-16.4-10.4c-4.8-3.4-9.5-7.2-13.7-11.4
		c-1.3-1.3-1-4.2-1.5-6.4c2-0.3,4.3-1.3,6-0.7c10.2,3.4,21,5.4,28.7,14c3.2,3.6,7.8,4.5,12.8,4.6c3.7,0.1,8.2,0.4,10.9,2.5
		c11.6,9.4,26.2,12,39.1,18.4c2.5,1.2,5.2,2.1,8,2.9c2.4,0.7,4,0,4.4-3c0.9-6.4,3.3-8.6,9.8-7.3c4.5,0.9,9,3.3,12.7,6.1
		c5,3.8,9.2,7.9,16.5,5c2.2-0.9,6,0.7,8.3,2.3c11,7.4,23.1,12.1,35.2,17.3c7.1,3,13,9,18.8,14.4c3.7,3.4,2.3,8.8-2.1,9.8
		c-10.6,2.5-21.3,4.7-31.9,7C363.2,1130.1,363.1,1129.7,363,1129.4z"/>
	<path class="st8" d="M296.6,641.8c5.4-6,8.6-12.8,7.5-21.1c-0.1-0.8,0.1-1.8-0.3-2.4c-0.9-1.9-1.9-5-3.1-5.1
		c-1.8-0.2-3.7,1.8-5.6,2.9c-0.7-3.9-2.1-7.8-2.1-11.7c0-13,0-26,0.8-38.9c0.6-10.2,2.1-20.3,3.3-30.4c9.1-7.7,11.7-17.7,8.9-28.8
		c-2.7-10.2,0.8-17,9.2-22.4c4.6-3,8.7-6.7,13.3-9.8c2.3-1.5,5-2.4,7.5-3.6c-1,3.3-1.8,6.7-3.1,9.8c-13.1,29.8-20,61.1-22.6,93.5
		c-0.1,1.7,1.3,3.5,1.9,5.2c-0.7,2.9-1.4,5.9-2,8.8c-0.3,1.9-1.1,3.9-1,5.8c0.5,11.2,1,22.4,2,33.6c1.6,18.8,6.4,37,12,55
		c0.6,1.8,2.4,3.3,3.6,5c0.1,4.5-0.5,9,0.4,13.3c0.5,2.5,3.3,4.5,5,6.7c0.3,1.6,0.4,3.4,1.1,4.8c4.7,9.2,9,18.6,14.3,27.4
		c19,31.9,43.2,59.2,72.6,81.9c17.8,13.7,36.7,25.7,57.5,34.5c4.4,1.9,8.4,4.7,12.6,7.1c-9.4-0.2-17.3-4.3-24.8-9.4
		c-4.3-2.9-8.5-4.8-13.6-5.4c-3.2-0.4-6.5-2.3-9.3-4.1c-3.6-2.4-6.6-5.6-10.1-8.1c-4.8-3.5-7-3.2-11.3,0.7c-0.8,0.7-1.9,1.1-2.9,1.6
		c-0.6-1.1-1-2.5-1.9-3.3c-5.5-4.7-11.1-9.4-16.8-13.9c-15.9-12.6-29.1-27.9-41.8-43.7c-3.2-4-7.1-7.5-10.6-11.2
		c-1.6-2.9-3.3-5.8-4.9-8.7c-0.9-2.1-1.4-4.4-2.6-6.3c-19.4-31.4-32.4-65.2-39.4-101.4C299.3,646.9,297.7,644.4,296.6,641.8z"/>
	<path class="st9" d="M615,270.8c-1,0-2,0-3,0c-2.1-0.9-4.2-2.7-6.3-2.7c-9.3,0-18.6-0.1-27.8,0.9c-17.5,1.9-35.1,4.1-52.5,7.1
		c-8.7,1.5-17,5.1-25.4,7.8c-3-1.7-6-3.4-9-5.1c1.1-1,2-2.5,3.3-3c4.5-1.7,9.1-3.1,13.7-4.4c21.4-6,43.3-10.4,65.4-11.2
		c20.7-0.8,41.6-0.2,62.2,2c19,2.1,37.9,6.1,56.4,11.1c24.3,6.5,47.2,16.8,69.2,29.1c24.8,13.9,47.5,30.5,67.7,50.3
		c12.4,12.2,23.3,25.9,34.9,38.9c1,1.1,2.6,1.6,3.9,2.4c2.4,6.4,4.9,12.6,11,16.8c1.7,1.2,2.7,4.3,2.7,6.6
		c0.2,6.2,2.8,11.2,6.7,15.7c4.8,5.6,4.3,12.4,4.5,19c0.1,1.5-1.8,4.1-3.2,4.4c-1.7,0.4-4.8-0.4-5.7-1.7c-3.6-5.3-7.5-10.7-9.8-16.6
		c-2.7-6.9-6.7-12.2-12.1-17.2c-7.1-6.5-9.3-15.7-10.9-25c-1-5.6-2.2-11.3-4-16.7c-1.2-3.6-3.9-5.3-8.3-3.8
		c-6.6,2.2-11.9,0.2-15.8-6.2c-4.7-7.7-9-15.6-12.8-23.7c-2-4.2-4.6-6.7-8.8-8.1c-4.9-1.5-8.7-4.2-12.1-8.2
		c-1.9-2.2-6.1-2.4-9.2-3.5c-0.9-1.3-1.6-3-2.8-3.8c-5.2-3.3-10.5-6.3-15.7-9.5c-25.3-15.4-52.4-26.5-81-33.5
		c-17.9-4.4-36.2-7-54.5-9.9C622.5,268.6,618.7,270.2,615,270.8z"/>
	<path class="st10" d="M867.8,394c-1.3-0.8-2.9-1.3-3.9-2.4c-11.6-13-22.5-26.7-34.9-38.9c-20.2-19.8-43-36.4-67.7-50.3
		c-22-12.3-44.9-22.6-69.2-29.1c-18.5-5-37.4-9-56.4-11.1c-20.6-2.2-41.5-2.7-62.2-2c-22.1,0.8-44,5.2-65.4,11.2
		c-4.6,1.3-9.2,2.7-13.7,4.4c-1.3,0.5-2.2,2-3.3,3c-4-2.2-8.1-4.4-12.1-6.6c1.1-1.1,2-2.8,3.3-3.2c14.3-4.2,28.5-8.9,43.1-12
		c14.4-3,29.1-4.5,43.7-6.2c9.4-1.1,18.8-1.7,28.2-1.9c7.9-0.2,15.9,0.6,23.9,0.8c1.7,0,3.4-0.8,5-1.2c5.3,2.8,10.5,6.4,16.1,8.1
		c4.3,1.3,9.6,1,14-0.1c6.5-1.6,12.5-1.9,18.9,0.2c4,1.3,8.4,1.1,12.6,1.5c1.7,1.1,3.2,2.7,5.1,3.4c16,6,32.4,10.9,47.9,17.9
		c29.8,13.3,57.1,30.8,81.8,52.3c2.8,2.4,6.2,4,9.3,6c1.7,2.3,3.4,4.6,5.1,6.9c0.4,0.9,0.6,2,1.2,2.6c7.6,8.3,15.1,16.6,22.8,24.8
		c1.1,1.2,3,1.8,4.5,2.6C864.8,381.5,865.5,387.9,867.8,394z"/>
	<path class="st11" d="M530,344.8c-3.7-3-7.8-3.6-12.6-3.3c-9.5,0.7-18.2,3.2-26.2,8.6c-7.2,4.8-15,8-24,4.9c-3.6-1.2-5.5,1.5-7.2,4
		c-6.3,9.1-14.8,14.8-25.8,16.4c-3.4,0.5-6.9,0.1-10.4,0.1c1-1.6,1.7-3.8,3.2-4.8c10.4-7.1,20.5-14.6,31.5-20.8
		c36.9-20.9,76.6-32.7,118.8-36c0.7,0.5,1.5,0.8,2,1.4c7,7.4,14.7,9.4,24.6,5c7.7-3.4,14.8,0.2,20.1,6c5.6,6,13.1,7.4,20.3,9.7
		c1.4,0.4,3.6-0.6,4.9-1.6c4.5-3.1,8.6-3.9,13.2,1.4c1.7-2.9,3.1-5.4,4.5-7.9c6.7,1.8,13.4,3.6,20.1,5.6c6,1.7,12,3.7,18,5.5
		c4.2,6,8,12,14.1,16.7c3.6,2.8,5.2,8.1,7.8,12.3c-3.2-1.3-6.5-2.4-9.6-4c-31.5-16.6-65.1-26.5-100.5-28.8
		c-27.8-1.8-55.7-0.2-82.9,7C532.4,342.6,531.3,344,530,344.8z"/>
	<path class="st5" d="M530,344.8c1.3-0.9,2.4-2.2,3.8-2.6c27.2-7.2,55-8.8,82.9-7c35.4,2.3,69,12.2,100.5,28.8c3,1.6,6.4,2.7,9.6,4
		c0.8,3,2.1,6,2.1,9.1c0,1.9-1.6,4.5-3.3,5.4c-1.4,0.8-4.1-0.1-5.8-1c-3-1.7-5.6-4.2-8.5-6.1c-1.8-1.2-3.7-2.2-5.8-2.8
		c-5.2-1.4-6.8,0-6.6,5.5c-1.7-0.6-3.5-0.9-5.2-1.7c-17.3-7.9-35.3-13.1-54-16.6c-21.5-4-43.1-4.6-64.8-2.8
		c-20.3,1.7-39.8,6.3-59,12.9c-2.9,1-6,1.4-9.1,2.2c1.6-6.3,7-8.1,12.1-10.4c3.6-1.6,7.2-3.7,10.1-6.4
		C532,352.4,532.6,348.6,530,344.8z"/>
	<path class="st12" d="M548.4,124.3c-4.2-1-9.8-2.4-15.5-3.5c-1.8-0.4-4-0.5-5.7,0.1c-14.9,5.3-29.8,9.8-46.1,9.4
		c-5.8-0.2-11.9,2.6-17.6,4.7c-7.1,2.7-14,4.9-21.8,3.4c-2.4-0.5-6.3,1-7.7,2.9c-2.4,3.3-5.4,4.3-8.9,4.6
		c-8.2,0.8-15.9,2.7-23.2,6.9c-7.1,4.1-14.9,7.2-22.6,10.2c-1.9,0.8-5.5,0.5-6.7-0.8c-1-1.1-0.1-4.4,0.5-6.6c0.3-1.1,1.5-2.2,2.6-3
		c10.2-7.2,20.5-14.2,30.6-21.4c3.5-2.5,6.6-5.7,9.9-8.5c2.1-1.8,4.1-4.4,6.5-5.1c10.3-2.9,19.8-8.4,31.3-7c4.1,0.5,8.9-2.1,13-4.2
		c7-3.6,13.6-6,21-1c1.6,1,4.5,0.5,6.7,0.1c3.7-0.7,7.4-2.6,11.1-2.7c4.7-0.2,9.4,0.7,14.1,1.5c5,0.9,10,3.2,15,3.1
		c8.7-0.2,16.7,2.3,24.8,4.7c4,1.1,8.1,2,12,3.4c1.1,0.4,2.1,2,2.2,3.2c0.1,0.8-1.4,2.4-2.3,2.5C564.4,122.1,557.2,123,548.4,124.3z
		"/>
	<path class="st13" d="M922,733.1c2.5-4,5.2-8,7.5-12.1c2.1-3.9,3.9-8,5.3-12.2c2-6.1,3.4-12.4,5.1-18.7c0.9-1.3,2.3-2.5,2.5-4
		c3.6-18.1,7.9-36.2,10.4-54.5c1.9-14.6,1.6-29.4,2.3-44.2c0.1-1.2,1.2-2.3,1.8-3.5c2.5,9.3,5.6,18.5,7.2,28
		c0.9,5.1,0.4,11.2-1.7,15.9c-3.1,7.1-3.9,13.8-2.2,21.2c1.2,5.1,1.3,10.5,1.9,15.8c-0.7,1.1-1.7,2.1-2,3.3
		c-1.8,6.5-3.4,13.1-5.1,19.6c-8.9,33.7-22.3,65.4-40.4,95.2c-1.8,2.9-3,6.2-4.4,9.3c-6.7,1.8-10.2,6.5-12.1,12.8
		c-1,3.5-2.3,7-2.8,10.6c-1.9,14.1-12,20.9-23.7,25c-7.1,2.5-12.3,6.4-17.4,11.6c-11.8,12-25.9,20.5-42.1,25.5
		c0.8-1.2,1.4-2.7,2.4-3.5c21.3-16.6,40.5-35.4,57.8-56.1c19.8-23.7,35.9-49.8,48.9-77.8C922.1,738.4,921.8,735.6,922,733.1z"/>
	<path class="st14" d="M434,745c-2-8.4-7.3-14.3-14-19.2c-4.8-3.5-7.2-8.3-8.2-14.2c-0.5-3-2.9-5.7-4.4-8.6
		c-4.3-7.9-8.4-15.9-9.4-25.2c-0.4-4-3.1-7.7-3.9-11.8c-1.1-5.6-1.5-11.4-2.2-17.1c1.3,2.5,2.7,4.9,3.8,7.4c3.4,8.5,6,17.3,9.9,25.5
		c12.5,26.4,29.3,49.6,51.5,68.9c13.1,11.4,27.3,21.2,42.6,29.1c23.2,12,47.8,19.1,73.8,22.5c19.8,2.6,39.4,1.8,58.8-1.7
		c24.6-4.4,48-12.3,69.9-25.1c24.5-14.4,45.7-32.4,63-54.9c0.4,2.1,1.4,4.4,1,6.4c-1.5,8.4-6.3,14.7-13.1,19.8
		c-4.3,3.2-7.9,7.4-11.7,11.4c-6.7,7.2-14,13.1-24.4,14c-2.6,0.2-5.1,2.1-7.6,3.4c-6.2,3-12.3,6.4-18.6,9c-3.8,1.5-6.8,3.1-7.9,7.3
		c-1.1,4.3-4.1,7-8.5,8.2c-3.5,1-6.7,2.7-10.1,4.1c-1.3-0.2-2.7-0.7-3.9-0.5c-16.9,3-33.7,7.2-50.7,8.8c-19.3,1.9-38.9,0.2-57.8-4.5
		c-15.6-3.9-30.7-9.4-46-14.3c1.3-7.9-6.8-10.8-12.2-8c-1,0.5-2.1,0.8-3.2,1.2c-1.5-1.1-2.9-2.3-4.4-3.2
		c-16.5-9.5-31.7-20.8-45-34.5C439,747.6,436.3,746.5,434,745z"/>
	<path class="st15" d="M765.2,720.6c-17.3,22.5-38.4,40.5-63,54.9c-21.8,12.8-45.2,20.6-69.9,25.1c-19.4,3.5-39,4.3-58.8,1.7
		c-26-3.4-50.6-10.5-73.8-22.5c-15.4-8-29.5-17.7-42.6-29.1c-22.2-19.3-39-42.5-51.5-68.9c-3.9-8.2-6.6-17-9.9-25.5
		c-1-2.6-2.5-5-3.8-7.4c0.1-2-0.2-4,0.3-5.9c0.3-1.4,1.6-2.7,2.4-4c1.3,0.9,3,1.5,3.7,2.7c1.3,2.3,2.3,4.8,2.9,7.3
		c6.2,22.9,16.6,43.5,32.9,61c0.7,1.8,0.9,4,2,5.3c7.7,8.7,15.3,17.4,23.4,25.6c15.4,15.5,33.7,26.7,53.3,35.9
		c22.9,10.8,47.3,16.3,72.4,18c20.2,1.4,40.4-0.7,60.2-5.5c26.5-6.3,50.6-17.9,72.5-34c3.9-2.9,6.8-7.2,10.1-10.9
		c8.6-1.8,13.4-8.4,18.9-14.2c3.5-3.7,7.2-7.2,11.2-10.3C760.1,718.4,763,717.3,765.2,720.6z"/>
	<path class="st12" d="M53.4,493.8c-0.7,2.5-0.9,5.4-2.3,7.5c-5.1,7.8-7,16.4-7.7,25.5c-0.5,6.4-2.5,12.2-5.5,18.2
		c-3.3,6.7-3.4,15.1-4.8,22.7c-1.3,6.8-2.7,13.6-3.8,20.5c-0.2,1.3-0.1,3,0.5,4.2c2.5,4.8,2.4,9.5,0.8,14.5
		c-1.2,3.9-1.7,8.1-2.6,12.1c-0.8,3.7-1.7,7.4-2.6,11.1c-0.3,1.3-0.8,2.6-0.8,3.9c0.4,14.9,0.9,29.9,1.2,44.8c0.1,2.9,2,6.9-2.2,8.2
		c-4.7,1.5-6.2-2.3-7.7-5.9c-4.4-10.6-10-21-9.2-32.8c0.8-10.6-0.5-20.7-4.3-30.6c-1.1-2.9-0.3-6.6,0-9.9c0.8-8.6,1.5-17.2,2.8-25.7
		c0.6-4.1,2.5-8,4-12c1.1-2.9,2.5-5.7,3.8-8.5c1.5-3.5,2.7-7.1,4.6-10.4c1.8-3.1,3.1-5.7,1.1-9.2c-2.6-4.5-1.2-7.7,2.7-11.2
		c6.3-5.6,10.6-12.6,11-21.6c0.2-3.1,1.5-6.5,3.3-9.2c2.7-4.2,6-8,9.4-11.7c1.3-1.4,3.5-2,5.3-3c0.9,1.9,1.8,3.7,2.5,5.7
		c0.3,0.7,0,1.6,0,2.5C53.1,493.7,53.2,493.7,53.4,493.8z"/>
	<path class="st16" d="M506.9,372c3-0.7,6.1-1.1,9.1-2.2c19.2-6.6,38.7-11.2,59-12.9c21.7-1.8,43.3-1.2,64.8,2.8
		c18.7,3.5,36.7,8.8,54,16.6c1.6,0.7,3.5,1.1,5.2,1.7c2.8,4.5,5.8,8.8,8.4,13.4c2.6,4.6,4.1,9.5,1.3,14.6
		c-9.2-4.5-18.3-9.4-27.7-13.5c-16.8-7.3-34.3-12.2-52.5-14.5c-8.3-1.1-16.8-1-25.1-2.3c-5.6-0.9-10.8-0.9-16,1.5
		c-3.3,0.2-6.7,0.2-9.9,0.7c-7.1,1.2-13.9,0.3-20.3-3c-6.6-3.4-12.8-2.4-19,1.1c-8.4,4.7-17.6,4.5-26.7,3.7
		C507.6,379.5,506.1,376,506.9,372z"/>
	<path class="st17" d="M577.2,313.9c-42.2,3.4-81.9,15.2-118.8,36c-10.9,6.2-21.1,13.7-31.5,20.8c-1.5,1-2.1,3.2-3.2,4.8
		c-6.5-2-6.6-2.4-3.9-14.7c-3.9,2.2-7.3,3.3-9.6,5.5c-5.1,4.8-10.3,9.3-16.1,13.4c-6.5,4.6-11.5,11.3-17.3,16.9
		c-1.6,1.5-3.9,2.3-5.8,3.4c0.6-1.5,0.9-3.3,1.9-4.3c7.6-7.8,15.3-15.6,23.1-23.2c17-16.5,36.7-29.3,57-41.1c1.6-0.9,2.7-2.7,4-4.1
		c1.5-0.1,3-0.3,4.5-0.1c7.6,0.7,12.8-2.8,16.3-9.2c4.3-8,11.2-12.5,19.7-14.9c7-1.9,13.9-2.3,20.9,0.9c8,3.7,16.1,4.7,25.1,2.1
		C555.6,302.8,567.9,303,577.2,313.9z"/>
	<path class="st10" d="M728.4,910.9c0.7-3.2,2-5.8,5.7-6.6c3.6-0.8,5.1-3.2,5-7.3c-0.2-7,2.8-12.1,10-14.9c12.8-5,25.4-10.6,38-16
		c5.2-2.2,9.4-5.1,12.2-10.4c4-7.4,9.5-13.6,17.5-17.2c5.2-2.3,8.1-6.6,10.1-11.8c5.5-13.9,11.5-18.1,26.4-17.8
		c5,0.1,8.4-1.7,11-6.1c2.1-3.5,5.2-6.3,8.1-9.3c3-3.1,5-5.9,1.8-10.4c-1.3-1.8-1.1-5.5-0.2-7.9c2.6-7.2,8.4-11.4,15.3-14.1
		c3.5-1.4,7.1-2.7,10.7-4.1c-1,3.1-1.5,6.5-3.2,9.3c-20.1,33.7-44.3,63.9-74.6,89.2c-23.4,19.6-48.7,36.2-76.2,49.4
		C740.5,907.5,734.3,908.9,728.4,910.9z"/>
	<path class="st8" d="M538.6,891.1c-7.2-5.5-14.6-10.9-21.6-16.6c-1.8-1.5-3-4-3.9-6.3c-1.3-3.2,0.2-5,3.6-4.2
		c2.2,0.5,4.3,1.6,6.4,2.7c6.5,3.4,12.9,6.9,19.3,10.5c7.4,4.1,15.1,5,23.1,2.3c5.7-2,10.7-1.5,16,1.9c6.7,4.3,10.2,3.3,15.7-2.8
		c9.6-10.6,10.2-10.7,23.8-5.7c2.4,0.9,5.8,1.1,7.9,0c16.1-8.2,32.2-4.5,48.2-0.5c6.7,1.7,6.9,7.3,1,13.6c-2,0-4-0.1-6,0.2
		c-16.1,2.6-32.2,5.3-48.4,7.9c-16.5,2.6-33,1.6-49.6,0.9c-4.6-0.2-9.2-1.2-13.8-1.6C553.1,892.5,545.9,891.8,538.6,891.1z"/>
	<path class="st18" d="M727.9,744.5c-3.4,3.7-6.2,8-10.1,10.9c-21.9,16.1-46,27.6-72.5,34c-19.8,4.7-39.9,6.8-60.2,5.5
		c-25.1-1.7-49.4-7.2-72.4-18c-19.6-9.2-37.9-20.4-53.3-35.9c-8.1-8.2-15.8-16.9-23.4-25.6c-1.2-1.3-1.4-3.5-2-5.3
		c5.1,3.7,10.5,7,15.2,11.1c2.8,2.5,5.3,6,6.7,9.5c2.3,5.8,6.2,8.6,12,10.4c6,1.9,11.5,5.2,17.2,8c0.3,0.6,0.4,1.4,0.8,1.7
		c24.9,18.2,53,28.6,83.3,33.1c0.9,0.1,2-0.8,3-1.2c6.9,6.6,14.4,6.7,22.8,2.8c6-2.7,12.7-2.3,19-0.1c6.8,2.4,13,3.4,19.8-1.2
		c4.4-3,10.5-3.4,15.7-5.4c3.2-1.3,7.7-2.8,8.9-5.5c3.9-9,12-9.5,19.7-11.3c1.1-0.3,2.3-0.3,3.5-0.2c8.4,0.8,15.6-1.7,21.9-7.5
		C710.2,747.9,719.4,747,727.9,744.5z"/>
	<path class="st19" d="M728.4,910.9c5.9-2,12.1-3.3,17.7-6c27.5-13.2,52.8-29.8,76.2-49.4c30.2-25.3,54.5-55.5,74.6-89.2
		c1.6-2.7,2.1-6.2,3.2-9.3c0.3-0.4,0.7-0.8,0.8-1.3c1.7-8,5.7-14,13.7-17.1c2.8-1.1,5.1-3.6,7.6-5.4c-0.3,2.5,0,5.3-1,7.5
		c-13,28-29,54.1-48.9,77.8c-17.3,20.7-36.5,39.5-57.8,56.1c-1.1,0.8-1.6,2.3-2.4,3.5c-6.5,3-13.3,5.7-19.5,9.3
		c-2.2,1.2-3.2,4.5-4.7,6.8c-1.7,0.5-3.5,0.9-5,1.6c-18.9,9.3-37.8,18.6-56.8,27.8c-2,0.9-4.7,0.4-7,0.6
		C722.1,919.6,725.2,915.2,728.4,910.9z"/>
	<path class="st20" d="M490,862.9c-4.2-2.4-8.2-5.3-12.6-7.1c-20.8-8.8-39.7-20.8-57.5-34.5c-29.4-22.7-53.6-50-72.6-81.9
		c-5.3-8.9-9.6-18.2-14.3-27.4c-0.7-1.4-0.7-3.2-1.1-4.8c9.1-3.6,12.2-2.5,15.9,6.4c1.9,4.4,3.6,9,4.8,13.6
		c1.6,6,4.7,10.5,10.4,13.2c0.7,1.8,1.2,3.8,2.2,5.4c13.1,20.1,28.8,37.9,46.7,53.9c16.4,14.7,34.5,26.8,53.7,37.5
		c1.4,0.8,3.5,0.5,5.3,0.7c8.1,5.2,16.3,10.3,24.2,15.8c2.1,1.4,3.3,4,4.9,6.1c-2.5,1.1-5.1,2.3-7.7,3.3
		C491.8,863.4,490.8,863,490,862.9z"/>
	<path class="st11" d="M858.4,581.2c-0.8-2.1-2.2-4.1-2.3-6.3c-1-18.9-4.8-37.3-10.2-55.3c-2.7-9.2-6.3-18.1-9.8-27
		c-0.6-1.5-2.6-2.4-4-3.6c-0.1-0.8-0.4-1.8-0.1-2.4c4.8-10.1,2.3-20.1,0-30.3c-1-4.6-0.6-9.5-0.8-14.3c1.6,1,3.7,1.6,4.6,3
		c3,4.7,5.5,9.8,8.5,14.6c2.1,3.4,4.9,6.3,7.4,9.5c0.4,1.6,0.9,3.2,1.3,4.8c2,4.1,4,8.1,6,12.2c0.9,5.1,1.7,10.1,2.7,15.1
		c0.4,1.8,0.7,3.9,1.9,5c8.8,9.1,10.3,20.7,12.4,32.4c1.8,9.8-0.4,18-6,25.7C866,569.8,862.2,575.5,858.4,581.2z"/>
	<path class="st21" d="M272.1,485.1c-1.4,1.1-2.8,2.3-4.3,3.3c-3.6,2.5-4.3,5.8-3.6,10c1.3,8.7,0.7,17.4-2.6,25.8
		c-0.7,1.9-1.1,4.2-0.7,6.2c1.4,6.3,0.1,11.7-3.8,16.8c-1.5,2-1.8,5.1-2.1,7.8c-0.5,6.7-0.1,13.6-1.1,20.2
		c-1.2,8.2-3.4,16.2-5.5,24.3c-0.5,2-2.6,3.7-4,5.5c-1.7-1.8-4.8-3.6-5-5.5c-0.8-8.4-1-16.8-0.9-25.3c0.1-7,0.8-13.9,1.3-20.9
		c1.4-6.4,3-12.8,4-19.2c3.8-23.2,9.9-45.8,18.4-67.8c3.2-8.3,6.4-16.6,9.7-24.9c8.7-1.8,15.1-6.8,19.9-14.3
		c2.4-3.8,5.4-7.3,8.1-10.9c-1.2,3.2-1.9,6.7-3.6,9.6c-9.8,17.7-18.3,36.1-24.5,55.3C271.5,482.3,272,483.7,272.1,485.1z"/>
	<path class="st14" d="M824.8,558c0.7,0.7,2,1.4,2.1,2.2c0.8,5.5,1.8,11.1,2,16.7c0.3,8.9,0.1,17.8,0.1,26.7
		c0,26.2-6.3,51.2-16.1,75.2c-4.5,11.2-10.6,21.8-16.2,32.5c-0.8,1.6-3.1,2.5-4.7,3.7c0.1-0.3,0.2-0.6,0.2-1
		c-0.7-15.7,5-31.2,0.7-46.9c0.7-1.5,1.6-2.9,2.2-4.4c5.6-14.7,8.9-30,10.8-45.6c0.7-5.5,1.5-11,2.2-16.6c2.5,2.5,4.3,0.4,4.8-1.5
		C816.1,585.2,825.2,572.9,824.8,558z"/>
	<path class="st22" d="M829,284.9c2.9,3.1,5.6,6.4,8.7,9.1c10.3,9.2,21.3,17.6,30.9,27.3c22.6,22.8,42.5,47.9,58.9,75.6
		c10.6,17.9,19.9,36.4,27.3,55.9c0.5,1.2-0.1,2.9-0.1,4.3c-5.6-1.8-11.1-3.7-16.7-5.5c-0.2-1.6,0-3.4-0.7-4.8
		c-5.5-11.3-11.1-22.6-16.8-33.9c-3.4-6.6-7-13-10.5-19.5c3-1.1,3.7-2.9,2.2-5.8c-3.2-6.1-5.8-12.6-9.4-18.4
		c-1.5-2.5-4.5-4.4-7.3-5.6c-11.1-4.9-17.9-13.5-22.6-24.4c-1.8-4.2-3.8-8.6-9.2-9.5c-1.5-0.2-3-0.6-4.4-0.3
		c-5.8,1.3-9.8-1.1-13.4-5.5c-6.4-7.8-13.2-15.4-19.7-23.1c-1.3-1.5-2.6-3.1-3.5-4.8C819.3,289.6,821.6,285.6,829,284.9z"/>
	<path class="st23" d="M457,327.4c-1.3,1.4-2.4,3.1-4,4.1c-20.4,11.9-40,24.7-57,41.1c-7.8,7.6-15.5,15.4-23.1,23.2
		c-1,1.1-1.3,2.9-1.9,4.3c-6.7,3.3-10.7,9.1-15,14.9c-4.3,5.9-9,11.5-13.8,17c-0.9,1-3.2,1.9-4.1,1.4c-1.3-0.8-2.5-2.7-2.7-4.2
		c-0.2-1.9,0.6-3.9,1.3-5.8c6.4-16.3,16.2-30.1,29.7-41.3c2.6-2.2,4.6-5.1,6.8-7.8c9.7-12.5,18.7-25.5,33.2-33.3
		c6.5-3.5,12.2-8.5,18.5-12.6c2.9-1.9,6.2-3.3,9.3-4.8c6.2-3.2,12.2-4,17.9,1.4C453.4,326.2,455.4,326.6,457,327.4z"/>
	<path class="st12" d="M875.8,854.9c10.1-3.8,17.2-11.6,25-18.5c9.8-8.7,20.7-16.2,31-24.2c8.8-6.8,18-13.2,24-23
		c1-1.7,4.4-1.9,6.7-2.8c0.5,2.3,1.8,4.8,1.2,6.8c-2.6,9.7-7.1,18.4-16.4,23.4c-6.6,3.6-11.9,8.2-15.4,15c-3,5.7-7.3,10.2-13.9,12.1
		c-1.7,0.5-3.2,2.3-4.3,3.8c-5,7.4-9.1,15.6-18.8,18.4c-1.6,0.4-2.7,2.8-3.8,4.4c-3.8,5.8-8.9,9-16,9.6c-3.2,0.3-6.7,1.9-9.3,3.9
		c-5.7,4.4-11.8,7.1-18.8,8.7c-4.5,1-8.7,3.8-13,5.8c1.3-1.8,2.3-3.9,3.9-5.4c12.3-11.5,24.8-22.9,37.1-34.4
		C875.7,857.7,875.6,856.1,875.8,854.9z"/>
	<path class="st19" d="M626.1,248.7c-1.7,0.4-3.4,1.2-5,1.2c-8-0.2-15.9-0.9-23.9-0.8c-9.4,0.2-18.9,0.8-28.2,1.9
		c-14.6,1.7-29.3,3.2-43.7,6.2c-14.6,3-28.8,7.8-43.1,12c-1.3,0.4-2.2,2.1-3.3,3.2c-5.5-2.8-10.8-6.1-17.3-3.3
		c-1.5,0.6-3.3,1.1-4.2,2.3c-3.8,4.7-8.9,6.3-14.5,7.6c-5.7,1.3-11.1,3.8-16.7,5.6c-3,0.9-6.1,1.3-9.2,2c1.1-1.5,1.8-3.7,3.3-4.5
		c33-18.5,67.9-31.7,105-39.1c23.5-4.7,47.1-7.5,71.1-6.9c2.4,0.1,4.9-0.6,7.4-0.9c1.7,8.7,7.8,11.5,15.8,12.1
		C621.7,247.2,623.9,248.2,626.1,248.7z"/>
	<path class="st3" d="M742,721.8c-9.1,0.4-17.5,2.2-25.2,7.8c-3.7,2.7-8.9,3.4-13.6,4.4c-1.3,0.3-4.1-0.9-4.4-1.9
		c-0.5-1.5,0.6-3.5,1.2-5.3c0.2-0.5,1-0.9,1.6-1.1c14.2-5.8,23.4-17.8,34-28c2.3-2.3,3.5-5.6,5.7-8.1c4.2-4.8,8.5-9.7,13.3-13.9
		c2.9-2.5,5-4.8,4.3-8.7c-1.4-8.4,1.7-15.1,7.4-21.2c8.3-9,13.9-19.6,16.9-31.6c1.1-4.3,3.1-8.3,4.7-12.5c0.7,1.2,2,2.6,1.9,3.7
		c-0.6,5.9-1.5,11.8-2.3,17.6c-2.5,17-7.5,33.3-14.7,48.8c-6.8,14.5-13.9,29-25,41C745.4,715.5,743.9,718.8,742,721.8z"/>
	<path class="st13" d="M718.9,924c2.4-0.1,5,0.4,7-0.6c19-9.1,37.9-18.5,56.8-27.8c1.6-0.8,3.4-1.1,5-1.6c-1.5,4.1-2.4,8.8-4.8,12.3
		c-2.5,3.5-6.5,6.1-10,8.9c-2.3,1.8-4.8,3.3-7.2,4.9c-3.3,1.2-6.6,2.1-9.7,3.6c-20.5,9.9-41.9,17.7-63.9,23.6
		c-6.2,1.7-12.1,4-18.2,6c-8.8,0.8-17.5,1.8-26.3,2.2c-6,0.3-12,0-17.9-0.3c-2.9-0.2-6.5-0.4-6.8-4.3c-0.3-4.1,3.5-4.8,6.2-5.1
		c8.2-1,16.5-1.7,24.8-1.8c5.6,0,10.3-1.1,14.9-4.4c2.8-2,6.6-3,10.1-3.4c7-0.7,14-0.7,19.8-5.4c1.1-0.9,2.7-1.1,4.2-1.6
		C708.2,927.3,713.6,925.7,718.9,924z"/>
	<path class="st21" d="M831.9,338c-3.1-2-6.6-3.6-9.3-6c-24.7-21.5-51.9-39-81.8-52.3c-15.5-6.9-31.9-11.9-47.9-17.9
		c-1.9-0.7-3.4-2.2-5.1-3.4c5.8-1.7,11.5-3.5,14.6-9.4c1,0.1,2-0.1,3,0.2c23.8,7.7,47.1,16.7,68.4,30.1c-3.8,0-7.7,0-11.5,0
		c1.8,8.8,13,14.3,19.1,11.6c12.3-5.3,13.3-4.9,18.8,7.2c3.4,7.5,8.1,12.2,16.6,12.6c5.9,0.3,9.5,4,11.1,9.3
		C829.6,326,830.6,332,831.9,338z"/>
	<path class="st15" d="M423,501.9c-2.3,6-4.5,12-6.9,17.9c-7,17.3-11.9,35-13,53.7c-0.7,11.1-0.7,22.2-1,33.2
		c-17.4,1.8-25.6-5.6-25.1-22.7c0-1.3-0.6-2.8-1.4-3.9c-6.1-8.6-4.4-16.1,4.8-20.9c6-3.1,7.3-8.7,7.7-14.6
		c0.4-5.6,1.9-10.5,5.5-15.1c3-3.8,6.1-6.5,10.7-7.3c3.7-0.7,5.9-2.9,7.9-6.1C415.3,511,419.3,506.6,423,501.9z"/>
	<path class="st11" d="M471,837.9c-1.8-0.2-3.8,0.1-5.3-0.7c-19.1-10.7-37.2-22.8-53.7-37.5c-17.9-16-33.6-33.9-46.7-53.9
		c-1-1.6-1.5-3.6-2.2-5.4c3.2-0.5,6.4-0.7,9.4-1.7c10.4-3.3,25.2,3.9,26.1,14.8c1.3,14.8,8.9,23.6,21.1,30.2c3,1.6,6.1,4.1,7.5,7.1
		c4.2,8.6,10.8,14.8,17.7,21C454.1,820.1,462.4,829.2,471,837.9z"/>
	<path class="st24" d="M773.8,279.4c-21.3-13.4-44.6-22.4-68.4-30.1c-0.9-0.3-2-0.2-3-0.2c-1.3-2.1-2.1-5-4-6.1
		c-4.4-2.6-9.2-4.6-14.1-6.3c-10.6-3.8-19.1-10.6-27-18.4c6.2,0.8,12.6,0.8,18.6,2.5c20.7,5.8,41.2,12.2,61.7,18.4
		c4.9,1.5,9.6,3.3,14.4,4.9c4.1,6.1,8.9,11.5,15.8,14.7c4.5,2.1,8.1,5.3,9.4,10.3C778.4,273.2,777.8,276.9,773.8,279.4z"/>
	<path class="st16" d="M436.1,468.2c-3.9,2.9-8.4,5.2-11.6,8.7c-5.8,6.4-12,11.7-20.3,14.6c-2.6,0.9-4.9,3.2-6.8,5.3
		c-2.7,2.9-4.6,6.5-7.4,9.3c-4.8,4.8-9.1,3.6-11-2.8c-0.6-2-0.7-4.2-1.1-6.3c1.2-1,2.8-1.8,3.5-3c3.2-6,5.8-12.3,9.3-18
		c3.2-5.3,7.2-10.1,10.8-15.1c5.1,2.5,13.9,0.5,19-4.8c3.8-4,7.1-8.4,10.3-12.8c4.8-6.7,10.9-9.1,19-7.7c2.9,0.5,6.2-1.2,9.2-2.2
		c4.7-1.6,9.4-3.5,14.1-5.2c-1.3,1.6-2.4,3.5-3.8,4.9c-9.4,9-19,17.8-28.2,27C438.7,462,437.7,465.4,436.1,468.2z"/>
	<path class="st12" d="M653,1034.1c6.6-0.9,14.7-0.1,22.6,3.2c2.6,1.1,6,0.9,8.8,0.4c9.8-2,19.5-1.4,29.3-0.3
		c3.6,0.4,7.3-1.1,11-1.8c4.1-0.8,8.4-2.8,12.3-2.2c9.3,1.3,18.2,0.5,27.2-1.7c2.4-0.6,5-0.6,7.4-0.5c1.1,0.1,2.8,1.1,3,1.9
		c0.2,1.2-0.5,2.7-1.2,3.9c-0.3,0.6-1.3,1-2.1,1.3c-11.3,3.8-22,9.9-34.3,10c-9.3,0-17.8,3.2-26.7,4.9c-7.5,1.4-15.5,0.3-23.3,0.2
		c-2.5,0-5-0.5-7.5-0.3c-6.9,0.4-13.3,0.2-19.8-3.1c-4.1-2.1-9.4-1.6-14.1-2.8c-3.3-0.8-6.8-1.9-9.6-3.8c-1.8-1.1-2.4-3.9-3.6-5.9
		c1.9-1.1,3.7-2.9,5.6-3.1C642.5,1033.7,646.8,1034.1,653,1034.1z"/>
	<path class="st18" d="M436.1,468.2c1.6-2.8,2.6-6.2,4.8-8.4c9.2-9.2,18.8-18,28.2-27c1.5-1.4,2.6-3.2,3.8-4.9c2.2,0,4.4-0.4,6.4,0
		c7.4,1.6,14.3,1.1,21.3-2.2c2.4-1.1,6.3-0.3,9,0.8c7.8,3,15.8,4.6,24.2,5.6c5.2,0.6,10.2,2.8,15.2,4.6c2.8,1,6.1,3.1,4.6,6.5
		c-0.9,2-4.2,4.3-6.4,4.3c-7.2,0-14.6-0.2-21.7-1.7c-4.9-1-9.3-1.7-14,0c-11.5,4.1-23.5,6.3-35.7,5.8c-11.2-0.5-19.3,5.4-27.9,10.8
		C444.2,464.8,440.1,466.3,436.1,468.2z"/>
	<path class="st18" d="M742,721.8c1.9-3,3.4-6.4,5.8-8.9c11.1-12,18.2-26.5,25-41c7.2-15.5,12.2-31.8,14.7-48.8
		c0.8-5.9,1.8-11.7,2.3-17.6c0.1-1.2-1.2-2.5-1.9-3.7c0.1-0.5,0.1-1,0.3-1.5c2.1-4.8,4.6-9.9,10.6-9.8c6.1,0,7.7,5.4,9.5,10.1
		c-0.7,5.5-1.5,11-2.2,16.6c-1.9,15.6-5.3,30.9-10.8,45.6c-0.6,1.5-1.5,2.9-2.2,4.4c-3.7-2.7-5.3,0.4-6.3,2.8
		c-2.2,5.4-3.9,10.9-5.5,16.5C778,697,776,698.6,765,700.1c-2.9,0.4-6,2.6-7.9,4.9c-2.6,3.1-4.1,7.2-6.1,10.8
		C749.1,719.4,746.2,721.6,742,721.8z"/>
	<path class="st12" d="M1080.5,260.8c8.7,2.7,15.9,7.8,21.3,15.3c4.5,6.2,8.5,12.7,13,18.8c5.2,7,8.2,14.5,8.1,23.5
		c-0.1,4.6,1.4,9.4,2.9,13.9c1.5,4.7,2.6,9.1,0.4,14c-0.8,1.7-0.5,4.2,0,6.2c1.7,5.8,1.8,11.6-0.5,17.1c-0.8,1.9-3.4,3-5.2,4.4
		c-0.9-1.7-2.3-3.4-2.7-5.2c-1.8-8.4-2.8-17-5-25.3c-1-3.9-4.2-7.1-5.7-10.9c-2-4.8-3.8-9.8-5-14.9c-0.9-3.8-0.5-8-1.3-11.9
		c-0.6-2.8-1.9-5.7-3.6-8c-5.5-7.7-11.4-15.1-16.8-22.9c-1.9-2.7-3.2-5.9-4.2-9C1075.1,262.6,1076.1,260.2,1080.5,260.8z"/>
	<path class="st23" d="M296.6,641.8c1.1,2.6,2.8,5.1,3.3,7.7c7,36.2,20.1,70,39.4,101.4c1.2,1.9,1.8,4.2,2.6,6.3
		c-8.3-0.2-11.7,2.4-11.8,8.7c-1.3-0.9-3.1-1.4-3.9-2.7c-3.8-6-7.4-12.2-10.8-18.4c-11-20.1-19.4-41.3-26.2-63.2
		c-0.6-1.8-2.3-3.2-3.5-4.8c2.2-2.6,4.2-5.5,6.6-7.9c4-4,5.6-8.3,3.9-13.9C295,650.8,293.2,646.2,296.6,641.8z"/>
	<path class="st15" d="M587.3,377.2c5.1-2.5,10.3-2.4,16-1.5c8.3,1.3,16.8,1.3,25.1,2.3c18.1,2.3,35.7,7.2,52.5,14.5
		c9.4,4.1,18.5,8.9,27.7,13.5c-3.2,4.7-7.5,6-13.3,3.1c-5-2.4-9.5-5.8-14.4-8.6c-3.4-2-6.9-3.8-10.2-5.6c-0.6,0.5-1,0.7-1.1,0.9
		c-2.7,10.2-2.7,9.8-13.3,7.7c-4.2-0.8-8.7,0.3-13.1,0.6c-4.9-4.9-11.6-3.8-17.6-5c-4.3-0.9-8.9-0.6-13.2-1.3
		c-1.9-0.3-3.6-1.9-5.4-2.8c1-1.9,2.8-3.8,2.7-5.6c-0.1-1.4-2.5-3-4.2-3.8C599.5,382.6,593.4,380,587.3,377.2z"/>
	<path class="st23" d="M538.6,891.1c7.2,0.7,14.5,1.4,21.7,2.1c4.6,0.5,9.2,1.4,13.8,1.6c16.5,0.8,33.1,1.7,49.6-0.9
		c16.1-2.5,32.3-5.3,48.4-7.9c2-0.3,4-0.1,6-0.2c-12,12.1-26.3,19.4-43.4,21c-3.3,0.3-6.8,0.6-9.8,1.8c-14,5.6-28.1,3.5-42.2,0.9
		c-4.1-0.8-8.1-1.7-12.2-2.2C557.8,905.8,547.7,899.5,538.6,891.1z"/>
	<path class="st20" d="M696.5,861.9c-7.5-1-10.2-4.9-7.2-11.3c1.3-2.8,3.5-5.2,5.3-7.8c2.4-3.2,5-6.2,7.2-9.5
		c3.9-5.7,9.6-8.1,16-5.8c6.6,2.3,11.6,1.1,15.7-4.7c1.3-1.8,3.3-3.3,5.3-4.4c4.7-2.7,9.5-5.4,14.4-7.5c2.4-1,6.1-2,7.7-0.8
		c1.6,1.1,1.5,4.9,1.9,7.5c0.1,0.7-0.3,1.7-0.7,2.3c-6.4,9.4-13.3,18.1-24.7,21.7c-2.4,0.8-4.8,2.2-6.5,4c-4.6,5.1-9.1,9.8-16.8,9.2
		c-1.3-0.1-2.6,1.3-4,1.8C705.6,858.5,701,860.2,696.5,861.9z"/>
	<path class="st16" d="M505.7,793.9c15.3,4.8,30.5,10.4,46,14.3c18.9,4.7,38.4,6.4,57.8,4.5c17-1.7,33.8-5.9,50.7-8.8
		c1.2-0.2,2.6,0.3,3.9,0.5c-2.2,4.2-4.3,8.4-6.5,12.7c-6.8,1.1-13.6,2.3-20.4,3.4c-18.8,3.1-37.6,5-56.6,2.8c-1.3-0.1-2.7,1.2-4,1.8
		c-2-4.1-4.5-6-9.5-4.3c-3.4,1.2-6.9,0.1-8.9-3.6c-3.2-5.8-7.2-7.5-13.5-5.7c-3.5,1-6.8,2.7-10.2,3.9c-1.7,0.6-3.8,1.9-5.1,1.3
		c-6.7-2.6-13.5-5.1-19.5-9C505.3,804.8,504.2,799.4,505.7,793.9z"/>
	<path class="st13" d="M945.1,484.6c1.4,3.4,2.8,6.9,4.2,10.3c2.8,6.4,5.6,12.7,8.4,19c0.4,0.9,0.6,2.1,0.2,2.9
		c-4,8.4-0.8,17-1,25.5c-0.1,3.8-0.4,7.6-1.1,11.4c-0.2,1.3-1.8,3.1-2.9,3.2c-1.2,0.2-3.5-0.9-4-2c-1.6-3.8-2.8-7.7-3.9-11.7
		c-2.6-9.2-5.1-18.5-7.6-27.7c-0.9-3.3-1.3-6.8-2.4-10.1c-1.3-4.1-2.8-8.3-4.8-12.2c-5-9.5-10.5-18.8-15.4-28.3
		c-0.7-1.4-0.4-4.9,0.5-5.3c1.7-0.8,4.5-0.9,6,0.1c7.7,5,15.3,10,22.4,15.8c2,1.6,2.2,5.5,3.2,8.3
		C946.3,484.1,945.7,484.4,945.1,484.6z"/>
	<path class="st25" d="M297.1,535.2c-1.1,10.1-2.7,20.2-3.3,30.4c-0.7,13-0.8,25.9-0.8,38.9c0,3.9,1.3,7.8,2.1,11.7
		c-0.9,1.9-1.6,4-2.8,5.8c-3.3,4.7-7.6,8.1-13.8,7.1c-5.7-0.9-7.5-5.6-9.2-10.1c-3-7.6-2.5-15.2,0-22.9c1.6-5.1,1.7-10.7,3.1-16
		c1.1-4.2,2.2-9.1,5-12c5-5.2,8.3-10.8,9.1-17.8C287.2,543.2,290.8,538.3,297.1,535.2z"/>
	<path class="st20" d="M326.6,687.2c-1.2-1.6-3-3.1-3.6-5c-5.6-18-10.4-36.1-12-55c-0.9-11.2-1.4-22.4-2-33.6
		c-0.1-1.9,0.6-3.8,1-5.8c1.7-0.5,3.5-0.8,5-1.7c6-3.6,12.1-1.6,13.1,5.3c1,6.6,0.2,13.5,0.4,20.3c0.2,5.7,0.1,11.6,1.5,17.1
		c1.4,5.5,1.8,10.4-1.1,15.3c-1.6,2.6-2,5,0.1,7.7c5.7,7.4,5.2,15.4,2.2,23.6C329.7,679.5,328.1,683.3,326.6,687.2z"/>
	<path class="st5" d="M809.8,440c-1,4.3-1.7,8.7-3.2,12.9c-1.3,3.4-4.6,5.5-8,4.1c-2.1-0.9-4.2-3.6-4.9-5.9
		c-1.4-4.7-1.9-9.8-2.7-14.7c-0.5-3.1-2.2-5-5.5-5.4c-3.8-0.4-6.6-1.9-7.6-6c-1.1-4.4-3.8-3.4-6.4-1.4c-6.4,5-11.1,5.2-15.6-1.5
		c-5.4-8.3-9.8-17.3-13.9-26.3c-2.2-4.9,0.7-7.5,6.2-6.6c2.3,0.4,4.7,1.7,5.1-2.2c1.6,0.5,3.6,0.5,4.6,1.6
		c13.8,13.4,27.5,26.9,41.2,40.4C802.6,432.6,806.2,436.3,809.8,440z"/>
	<path class="st19" d="M566.5,929.8c9.3,1.7,18.6,3.3,27.8,5.1c4.1,0.8,9.7,1.2,9.2,7c-0.5,5.3-5.8,5.2-9.9,5.1
		c-11.3-0.2-22.6-0.3-33.9-1.2c-4.1-0.3-8.2-2.4-11.8-4.6c-3.3-2-6.3-3.5-10.2-2c-5.9,2.4-10.8,0.9-14.6-4c-2.2-2.9-4.9-3.3-8.3-2.9
		c-3.9,0.4-7.9,0-11.9,0c-6.9-0.1-12.1-3.5-15.7-9.2c-3.1-4.9-7.2-7.6-12.9-8.1c-6.3-0.5-10.8-3.8-14.1-9.1c2.1,0.4,4.2,0.6,6.2,1.3
		c4.5,1.6,8.9,3.6,13.4,5.2c22.6,8.1,45.7,14.1,69.5,17.4C555,930.5,560.8,929.8,566.5,929.8z"/>
	<path class="st11" d="M809.8,440c-3.6-3.7-7.1-7.4-10.8-11c-13.7-13.5-27.4-27-41.2-40.4c-1.1-1-3-1.1-4.6-1.6
		c-1.5-2.2-2.8-4.5-4.5-6.6c-3.5-4.3-3.8-8.9-2.6-14.1c0.4-1.9-0.1-4.1-0.2-6.1c1.4,0.1,3.2-0.4,4.1,0.3
		c11.4,8.6,22.8,17.3,34.1,26.1c4,3.1,7.9,6.3,11.9,9.4c3.2,5.5,6.1,11.3,9.8,16.5c3.6,5.1,4.6,10.4,3.9,16.4
		C809.2,432.5,809.7,436.3,809.8,440z"/>
	<path class="st5" d="M401.4,460.8c-3.6,5-7.6,9.8-10.8,15.1c-3.5,5.8-6.1,12.1-9.3,18c-0.7,1.3-2.3,2-3.5,3
		c0.5-3.8,0.9-7.7,1.6-11.5c0.5-2.8,1.3-5.5,1.4-8.5c-7.5,3.1-15,5.4-15.8,15.2c-0.4,5.8-6.1,9.9-13,10.9c0.6-2.2,0.8-4.6,1.8-6.6
		c8.1-15.7,16.3-31.3,24.4-47c0.7-1.3,0.4-3,0.6-4.5c5.3-4,10.5-8.2,15.9-12c2.3-1.6,5-3.1,7.7-3.4c2.3-0.3,5.6,0.6,6.9,2.2
		c1.2,1.6,1,5,0.1,7.1c-1.9,4.7-4.9,9-6.9,13.7C401.5,455.1,401.7,458.1,401.4,460.8z"/>
	<path class="st20" d="M312.1,579.1c-0.7-1.8-2.1-3.6-1.9-5.2c2.6-32.3,9.5-63.7,22.6-93.5c1.4-3.1,2.1-6.5,3.1-9.8
		c4.7-2.2,9.4-4.4,14.1-6.7c-0.6,2.5-0.9,5.2-1.8,7.6c-5.4,13.6-10.9,27.1-16.2,40.7c-0.8,2.1-0.5,4.6-0.7,6.9
		c-1.1,1.6-2.1,3.3-3.2,4.8c0.2,0.4,0.3,0.8,0.5,0.9c5.2,2.3,9,5.4,9.1,11.8c0.1,7.5-1.1,15.4-7.1,19.5
		C321.7,562.1,316.1,569.8,312.1,579.1z"/>
	<path class="st3" d="M512.1,726c-9.4,0.1-17.1-5-25.3-8.2c-4.6-1.8-9.2-3.8-13.7-5.9c-4.1-2-7-5-7.1-10c-0.1-4-2.2-7.1-5.8-8.6
		c-9.1-3.9-12.1-12.8-16.6-20.5c-0.8-1.3-0.1-4.4,1-5.7c0.8-0.9,4.2-0.9,5.2,0c8.1,7.2,16.2,14.5,26.3,19c1.6,0.7,2.6,2.9,3.7,4.6
		c2.8,4.4,6.3,7.5,11.9,8.1c1.9,0.2,3.9,1.1,5.4,2.3c7.1,5.4,14.2,11,21.1,16.7c1.6,1.3,2.3,3.7,3.5,5.6c-2.2,0.9-4.4,1.8-6.6,2.5
		C514.2,726.3,513.1,726,512.1,726z"/>
	<path class="st25" d="M756.3,318.6c-2.6,4.6-6.8,6.6-11.7,5.6c-5.3-1-10.7-2.3-15.5-4.7c-10.8-5.4-21.2-11.6-31.9-17.4
		c-2.6-1.4-5.5-2.7-8.3-3.1c-7.2-1-14.4-2-20.6-6.3c-1.2-0.8-3.2-1.1-4.8-0.9c-13.3,1.7-23.7-2.9-31.3-13.9c7.7,0.7,15.4,0.9,23,2.3
		c33.9,6.4,66,17.9,96.2,34.4C753.1,315.7,754.6,317.3,756.3,318.6z"/>
	<path class="st10" d="M272.1,485.1c-0.1-1.3-0.6-2.8-0.2-3.9c6.3-19.3,14.7-37.6,24.5-55.3c1.6-3,2.4-6.4,3.6-9.6
		c10.7-6.1,21.5-12.1,32.1-18.3c1.8-1.1,3.1-3.1,4.9-4.2c1.3-0.8,3.1-1.4,4.4-1.1c0.8,0.2,1.5,2.4,1.5,3.7c-0.1,2.3-0.2,4.9-1.4,6.7
		c-2.7,4.3-5.5,8.8-9.2,12.3c-7.3,7-15.4,13.1-22.9,20c-2.6,2.4-5,5.4-6.6,8.6c-4.6,9.3-10.5,17.2-19.7,22.6c-1.8,1-2.4,4.4-3,6.9
		C279,478.2,277,482.6,272.1,485.1z"/>
	<path class="st23" d="M892.2,571c-0.8-8.1,1.1-15.5,3.5-23.3c2-6.3,1.1-13.4,1.6-20.2c0.3-3.1-1.4-7.4,3.1-8.4
		c4.2-0.9,6.2,3.1,7.3,6.2c3.4,9.4,6.5,18.9,2.2,29c-2.2,5.2-2,10.6-0.1,16c1.3,3.7,2.2,7.7,2.4,11.6c0.1,3.2-0.2,7.2-2,9.4
		c-4,5-4.5,10.4-4.3,16.3c0,2-0.5,4-0.6,5.9c-0.3,6.2-3.1,10-9.5,10.6c-0.6-1.4-1.6-2.9-1.6-4.3c0.2-15.2,0.6-30.4,0.8-45.5
		C894.9,573.4,893.1,572.2,892.2,571z"/>
	<path class="st21" d="M956.9,584c-0.6,1.2-1.7,2.3-1.8,3.5c-0.8,14.7-0.4,29.6-2.3,44.2c-2.4,18.3-6.7,36.3-10.4,54.5
		c-0.3,1.4-1.7,2.7-2.5,4c-8.3-15.5-6.4-30.8,0.9-45.9c3.1-6.4,4.2-12.3,1.3-19c-2.2-5.1-1.5-10.1,0.8-15.7
		c2.1-5.1,0.9-11.6,0.7-17.5c-0.2-6.8-1.1-13.6-1.5-20.4c-0.1-1.8,0-3.8,0.7-5.4c0.7-1.6,2.2-4.1,3.3-4.1c1.7,0,4.4,1.5,4.9,3
		C953.4,571.3,955,577.7,956.9,584z"/>
	<path class="st24" d="M397.1,913.9c-1.4-0.1-3.2,0.2-4.1-0.5c-15.7-11.5-31.3-23.3-46.9-34.9c-1.8-1.4-3.9-2.4-5.8-3.6
		c-0.4-2.3-0.7-4.6-1.3-6.8c-1.7-5.9-2.5-11.6,0.6-17.3c0.7-1.3,0.5-3.2,0.7-4.9c1.1,0.7,2.4,1.1,3.3,2c5.4,4.9,10.5,10.1,16,14.8
		c1.8,1.5,4.4,2,6.7,2.9c3.4,4.7,7,9.2,10.2,14c2.7,4.1,5.3,7.7,10.2,9.6c2.1,0.8,3.8,4,4.7,6.4
		C393.5,901.7,395.2,907.8,397.1,913.9z"/>
	<path class="st23" d="M346.8,766c3.6,3.7,7.4,7.2,10.6,11.2c12.7,15.7,25.9,31,41.8,43.7c5.7,4.5,11.3,9.2,16.8,13.9
		c0.9,0.8,1.3,2.2,1.9,3.3c-3.1-0.5-6.5-0.4-9.4-1.7c-7-3.1-14-5.4-21.9-5.7c-11.4-0.4-21.6-10.1-23.8-21.2
		c-0.9-4.9-2.7-8.3-7.7-10.6c-7.9-3.7-8.7-7-7.9-15.6C348,777.6,347.1,771.8,346.8,766z"/>
	<path class="st17" d="M795.9,396c-4-3.1-7.9-6.3-11.9-9.4c-11.3-8.7-22.7-17.5-34.1-26.1c-0.9-0.7-2.7-0.2-4.1-0.3
		c-4.7-4.7-9.6-9.2-14-14.1c-2.8-3.2-4.9-7.7-1.8-11.3c3.1-3.6,7.7-1.7,11.1,0.4c9,5.7,17.6,11.9,26.5,17.7c3.5,2.2,7.3,4,11,5.8
		c10,4.9,16.7,11.8,15.8,24C794.1,387,795.4,391.5,795.9,396z"/>
	<path class="st10" d="M566.5,929.8c-5.7,0-11.5,0.7-17.1,0c-23.8-3.2-46.9-9.3-69.5-17.4c-4.5-1.6-8.9-3.6-13.4-5.2
		c-2-0.7-4.1-0.9-6.2-1.3c-5.1-4-10.3-7.8-15.2-12.1c-3.1-2.7-5.7-6-8-9.4c-0.9-1.3-0.2-3.6-0.2-5.5c1.7,0.3,3.5,0.3,5,0.9
		c3,1.3,6.2,2.6,8.8,4.5c15.3,11.2,34.2,14.6,50.4,24c6.3,3.6,13.3,6.2,20,9c2,0.8,4.4,1.4,6.5,1.2
		C542.2,917,554.3,923.5,566.5,929.8z"/>
	<path class="st17" d="M892.2,571c0.9,1.2,2.7,2.4,2.7,3.5c-0.1,15.2-0.6,30.4-0.8,45.5c0,1.4,1,2.9,1.6,4.3
		c-2.2,3.5-4.8,6.8-6.7,10.4c-5.3,10.4-14.6,16.1-24.2,21.5c-2.8,1.6-5,0.4-4.7-2.5c0.3-3.5,0.8-7.6,2.8-10.1
		c5.1-6.6,9.1-13.1,9.5-21.9c0.2-4.1,3.2-8.2,5.6-12c2.6-4.3,4.4-8.5,2.8-13.6c-1.4-4.4,1.3-7.5,3.4-10.9
		C887.1,580.6,889.5,575.7,892.2,571z"/>
	<path class="st3" d="M551.7,725.8c4,1.8,8.2,3.2,11.8,5.5c3.8,2.5,7.4,3.6,12.1,3.1c3.7-0.4,8.1,0.3,11.3,2.1
		c13.1,7.6,27,6.9,41.2,5.5c2.7-0.3,6-1.8,7.2,2.1c1.3,4-1.9,5.4-4.8,6.3c-6.8,2-13.7,4.3-20.7,5.2c-3.5,0.4-7.8-1.2-10.9-3.3
		c-3-2.1-5.6-3-9.1-2.4c-4.6,0.9-9.2,1.9-13.8,1.7c-3.8-0.1-7.5-1.8-11.2-2.9c-3-0.9-6-1.9-8.9-3.1c-4.1-1.7-8.6-3-12.1-5.6
		c-2.3-1.7-4.7-5.8-4.1-7.9c0.7-2.3,4.8-3.7,7.6-5.1c1.1-0.5,2.6-0.1,4-0.1C551.3,726.6,551.5,726.2,551.7,725.8z"/>
	<path class="st22" d="M910.1,792.4c1.5-3.1,2.7-6.4,4.4-9.3c18.1-29.8,31.6-61.5,40.4-95.2c1.7-6.5,3.3-13.1,5.1-19.6
		c0.3-1.2,1.3-2.2,2-3.3c0.1,0.1,0.3,0.3,0.2,0.4c-3.3,10.7-1.3,21.2,0.4,31.8c0.9,5.9-0.4,11.6-4.3,16.4c-5.9,7.2-7,16.5-7.8,24.9
		c-1.3,12.7-8.1,21.5-15.2,30.7c-3.5,4.6-7,9.2-10.1,14C921.7,788.9,916.8,791.9,910.1,792.4z"/>
	<path class="st22" d="M234.1,709c-1.3-2.1-3.3-4-3.9-6.3c-3.9-15.6-7.5-31.3-11.3-47c-0.2-1-1.3-1.9-2-2.8
		c-1.2-7.7,2.4-14.3,5.1-21c2.1-5.2,4.6-10.4,7.4-15.2c2.3-3.9,5.5-3.9,7.7,0c1.5,2.7,2.3,6.3,2,9.4c-0.8,11.1-0.9,22.5-3.8,33.1
		c-2.4,8.6-0.7,15.9,1.6,23.6C239.8,692.1,236.7,700.5,234.1,709z"/>
	<path class="st13" d="M272,441.4c-3.2,8.3-6.5,16.6-9.7,24.9c-8.5,22-14.6,44.5-18.4,67.8c-1.1,6.5-2.7,12.8-4,19.2
		c-5.1-5.5-5.2-11.8-4.2-19c1.3-9.8,0.8-19.9,5-29.3c0.7-1.5,0.1-3.6,0-5.4c-0.1-1.3-0.7-2.7-0.4-3.9c3.4-14.6,4.1-30,13-43
		C257.9,445.9,263.5,441.4,272,441.4z"/>
	<path class="st26" d="M500,284c8.5-2.7,16.8-6.2,25.4-7.8c17.4-3,34.9-5.2,52.5-7.1c9.2-1,18.5-0.9,27.8-0.9c2.1,0,4.2,1.7,6.3,2.7
		c-4.4,0.8-8.8,1.7-13.2,2.4c-2.4,0.4-5.2,1.4-7.3,0.6c-4-1.6-6.6,0-9.4,2.3c-2.7,2.2-5.7,4.1-8.7,5.8c-3.8,2.1-7.7,2.3-11.9,0.4
		c-8-3.6-13.5-2.7-18.9,4.2c-2.5,3.2-7.8,4.7-12.1,5.8C518.9,295.3,508.4,293.1,500,284z"/>
	<path class="st26" d="M883,714c4.2-8.3,8.1-16.7,12.7-24.7c2.2-3.8,5.2-7.4,8.6-10.2c3.9-3.2,8.4-1,7.4,3.9
		c-2.4,11.4-4.2,23.6-9.5,33.6c-3.7,7-8.8,13.4-11.6,21.2c-1.6,4.5-5.6,6.7-10.2,8.6c-5.5,2.3-10.1,6.6-15.1,10.1
		c0.6-1.9,1-3.8,1.9-5.5c5.3-10.7,10.7-21.3,15.9-32C883.6,717.6,883,715.6,883,714z"/>
	<path class="st9" d="M285.8,676.9c1.2,1.6,3,3,3.5,4.8c6.8,21.9,15.2,43.1,26.2,63.2c3.4,6.2,7,12.4,10.8,18.4
		c0.8,1.2,2.5,1.8,3.9,2.7c3.3,8.6,1.3,11.3-7.4,10.2c-6-0.8-10.2-3.6-12.1-9.5c-0.8-2.5-2.2-4.9-3.8-7c-6.9-8.8-9.7-18.8-8.9-29.9
		c0.4-5.7,0.8-11.1-6.1-14.3c-2.3-1.1-4-5.4-4.4-8.5c-1.3-8.5-1.9-17.2-2.6-25.8C284.7,679.8,285.4,678.4,285.8,676.9z"/>
	<path class="st26" d="M756.3,318.6c-1.7-1.3-3.2-2.9-5-3.9c-30.2-16.5-62.3-28-96.2-34.4c-7.5-1.4-15.3-1.6-23-2.3
		c-5.7-2.4-11.4-4.8-17.1-7.2c3.7-0.6,7.5-2.2,11-1.6c18.2,2.9,36.6,5.5,54.5,9.9c28.6,7,55.8,18.1,81,33.5
		c5.2,3.2,10.6,6.2,15.7,9.5c1.2,0.8,1.9,2.5,2.8,3.8c-10.2,2.9-15-5.1-20.6-11.4C758,316.4,757.1,317.5,756.3,318.6z"/>
	<path class="st3" d="M572.1,782.7c-1,0.4-2.1,1.3-3,1.2c-30.3-4.5-58.4-15-83.3-33.1c-0.5-0.3-0.6-1.1-0.8-1.7
		c5.3-1.2,10.6-2.4,15.9-3.6c8-1.9,10.8-0.7,15.9,5.6c1.6,1.9,4.5,3,7.1,3.6c3.7,0.9,7.8,0.3,11.3,1.6c3.3,1.3,6.4,3.8,9,6.5
		c4.8,4.9,9,10.5,13.7,15.5c1.2,1.2,3.5,1.5,5.4,2C566.2,781.1,569.2,781.9,572.1,782.7z"/>
	<path class="st11" d="M331.2,519.1c0.2-2.3-0.1-4.8,0.7-6.9c5.3-13.6,10.9-27.1,16.2-40.7c0.9-2.4,1.2-5.1,1.8-7.6
		c3-2.6,6.3-4.9,8.9-7.9c5.4-6.2,12.6-8.8,20-11.1c-0.2,1.5,0,3.3-0.6,4.5c-8.1,15.7-16.3,31.3-24.4,47c-1,2-1.2,4.4-1.8,6.6
		c-0.9,0.6-1.7,1.7-2.7,1.9c-4.3,0.8-6.5,3.8-9.1,7C337.9,514.9,334.2,516.8,331.2,519.1z"/>
	<path class="st23" d="M883,714c0,1.6,0.6,3.6,0,4.9c-5.2,10.7-10.6,21.3-15.9,32c-0.9,1.7-1.3,3.7-1.9,5.5
		c-5.4,5.5-10.2,11.5-18.6,13.3c-4.3,1-7.9,4.8-11.9,7c-2.6,1.4-5.3,2.9-8.2,3.4c-1.8,0.4-3.8-0.9-5.8-1.4c0.5-1.8,0.4-4.1,1.5-5.2
		c6-5.7,12.3-11.1,18.4-16.7c6.4-5.9,12.7-12.1,19-18.1c1.2-1.1,2.1-2.9,3.5-3.5C873,731.1,877.7,722.3,883,714z"/>
	<path class="st5" d="M576.6,825.1c1.3-0.6,2.8-2,4-1.8c19,2.2,37.9,0.2,56.6-2.8c6.8-1.1,13.6-2.3,20.4-3.4
		c-1.9,3.3-3.6,6.7-5.9,9.7c-1.3,1.8-3.3,3.5-5.3,4.2c-8.5,3.2-17.2,4.8-26.4,3c-2.1-0.4-4.6-0.1-6.5,0.8
		c-8.6,3.8-16.6,5.2-24.6-1.7C585.3,829.8,580.8,827.7,576.6,825.1z"/>
	<path class="st22" d="M875.8,854.9c-0.2,1.2,0,2.8-0.8,3.5c-12.3,11.5-24.8,22.9-37.1,34.4c-1.6,1.5-2.6,3.6-3.9,5.4
		c-8.1,3.6-16.3,6.6-25.6,5.6c-1.6-5.1,0.5-8.6,4.3-11.2c2.3-1.6,4.9-2.9,7.4-4.1c7.5-3.4,14-8,19.8-14c3-3.1,7.8-4.6,11.8-6.8
		c2.1-1.2,4.8-1.8,6.4-3.5C863,859,869.1,856.5,875.8,854.9z"/>
	<path class="st13" d="M910,393.4c3.5,6.5,7.2,13,10.5,19.5c5.7,11.2,11.3,22.5,16.8,33.9c0.7,1.4,0.5,3.2,0.7,4.8
		c-5.9-1.9-10.2-5.4-12-11.6c-0.3-1.1-0.9-2.1-1.3-3.2c-2.5-8.1-7.2-13.6-16-15.9c-10.4-2.7-14.4-11.6-17.4-20.8
		c-1.6-5.1,1.4-8.5,6.8-8.2C902.1,392.2,906,392.9,910,393.4z"/>
	<path class="st24" d="M673.9,953.2c6.1-2,12-4.3,18.2-6c22-6,43.3-13.7,63.9-23.6c3.1-1.5,6.5-2.4,9.7-3.6c-2,4.2-3.4,8.9-6.3,12.3
		c-2.8,3.3-6.8,6.6-10.8,7.3c-6.4,1.2-11.8,3.9-17.7,6.2c-5.7,2.2-12.2,2.4-18.3,3.4c-6.7,1.2-13.6,1.6-19.9,3.8
		C686.2,955.3,680.2,955.8,673.9,953.2z"/>
	<path class="st22" d="M468.7,951.8c-3.4-0.7-7-0.8-10-2.2c-15-6.7-29.9-13.7-44.7-20.8c-1.2-0.6-2-2.3-3-3.4c0.7-1.1,1.8-2,2-3.2
		c0.9-5.2,4.2-7.2,9.2-7.3c5.5-0.1,10.7,2.7,11.6,7.6c0.8,4,3,5.1,6.3,5.5c8.2,0.9,13.4,5.4,17.1,12.7c1.5,2.9,4.8,4.7,7.2,7.1
		C465.9,949.1,467.3,950.5,468.7,951.8z"/>
	<path class="st21" d="M366.2,865.7c-2.3-0.9-4.9-1.4-6.7-2.9c-5.5-4.7-10.7-9.9-16-14.8c-0.9-0.9-2.2-1.3-3.3-2
		c-0.9-7.7-2-15.5-2.7-23.2c-0.2-2.1,0.7-5.9,1.8-6.1c2.2-0.5,5.6,0,7.2,1.5c2.7,2.6,5,6.1,6.4,9.6c1.7,4.3,2.2,9,3.4,13.5
		c0.7,2.9,1.5,5.5,4.9,6.9c1.5,0.6,2.5,3.4,2.9,5.3C365,857.5,365.5,861.6,366.2,865.7z"/>
	<path class="st5" d="M803.9,490c0.3-7.3,0.4-14.6,0.9-21.8c0.1-1.2,1.8-3.1,3-3.2c1.4-0.2,3.8,0.7,4.5,1.9c3.8,7,7.8,14,10.5,21.5
		c1.2,3.5-0.4,7.9-0.7,11.9c-0.2,2-0.6,4.1-0.3,6.1c0.4,3.1,2.1,6.2,2,9.2c-0.1,3.1-1.8,6-2.8,9.1c-0.7-1.3-1.5-2.5-2-3.8
		c-3.7-9-7.2-18.1-11-27C807.2,492.3,805.2,491.3,803.9,490z"/>
	<path class="st16" d="M803.9,490c1.3,1.3,3.3,2.3,3.9,3.9c3.8,8.9,7.3,18,11,27c0.5,1.3,1.3,2.5,2,3.8c-0.9,1.9-2.4,3.7-2.5,5.6
		c-0.7,10.1-4.2,19.1-9.4,27.5c-1.2,1.9-3.5,3-5.4,4.4c-0.6-2.2-2.1-4.5-1.8-6.6c2-13.6,4.5-27.1,6.4-40.7c0.5-3.7-0.1-7.8-0.8-11.6
		C806.5,498.9,805.1,494.5,803.9,490z"/>
	<path class="st8" d="M851.7,469c-2.5-3.1-5.2-6.1-7.4-9.5c-3-4.7-5.4-9.8-8.5-14.6c-0.9-1.4-3.1-2-4.6-3
		c-1.6-7.1-3.2-14.3-4.7-21.4c-0.4-1.8-0.6-3.7-0.4-5.4c0.1-1.3,0.8-3.2,1.8-3.7c1-0.5,3,0.1,4,1c2,1.7,3.7,3.8,5.2,6
		c8.8,12.5,11.8,27,13.8,41.7C851.3,463,851.5,466,851.7,469z"/>
	<path class="st16" d="M434,745c2.3,1.5,5,2.6,6.9,4.5c13.4,13.7,28.5,25,45,34.5c1.6,0.9,2.9,2.1,4.4,3.2
		c-4.2,2.5-8.7,2.1-12.9,0.2c-7.7-3.5-15.8-6.6-17.8-16.4c-0.2-1.1-1.6-2.1-2.7-2.7c-1.6-0.9-3.3-1.8-5.1-2
		C438.9,765,435.4,755.9,434,745z"/>
	<path class="st11" d="M775.9,774.8c0.7-1.4,1.1-3.1,2.1-4.3c7.8-9.2,15.6-18.3,23.5-27.4c0.8-1,2.1-1.6,3.1-2.3
		c0.5,1.7,1,3.5,1.5,5.2c4.6,16.4-7.5,24-18.3,26.1C783.9,772.9,779.9,773.9,775.9,774.8z"/>
	<path class="st20" d="M704.9,339c-6-1.8-12-3.8-18-5.5c-6.7-1.9-13.4-3.7-20.1-5.6c1.8-5.6,7-8.2,12.4-6.1
		c5.8,2.3,11.5,4.7,17.4,6.9C701.4,330.6,703.7,334.3,704.9,339z"/>
	<path class="st15" d="M596,395.1c-0.6,0.6-1.2,1.7-1.9,1.8c-14.8,1.7-29.7,3.3-44.5,5c3.2-1.6,6.4-3.3,9.7-4.9
		c1.7-0.8,3.9-1.1,5.2-2.4c3.6-3.4,7.5-4.5,12.3-3.5C583.2,392.5,589.6,393.8,596,395.1z"/>
	<path class="st21" d="M865.5,375c-1.5-0.9-3.4-1.4-4.5-2.6c-7.7-8.2-15.3-16.5-22.8-24.8c-0.6-0.7-0.8-1.8-1.2-2.6
		c8.4,5.5,16.9,10.8,25.2,16.5C867,364.8,866.6,370,865.5,375z"/>
	<path class="st11" d="M756,792.1c2.1-2.3,4.1-5,6.5-7c3.9-3.3,8.2-6.1,12.4-9.2c-1.6,2.5-3.3,5-4.7,7.6
		C767.1,789.3,762.4,792,756,792.1z"/>
	<path class="st8" d="M859,486c-2-4.1-4-8.1-6-12.2C855,477.9,857,481.9,859,486z"/>
	<path class="st14" d="M790.9,716.8c0.9,4.1-0.7,6.5-4.1,5.9C788.2,720.8,789.6,718.8,790.9,716.8z"/>
</g>
</svg>
